<mxfile host="app.diagrams.net" modified="2023-06-18T13:51:04.039Z" agent="Mozilla/5.0 (X11; Ubuntu; Linux x86_64; rv:109.0) Gecko/20100101 Firefox/114.0" etag="81-WEpZOsCPFwalc6xDA" version="21.3.8" type="device">
  <diagram id="1cdYfaxTsIgGYpxO4O4i" name="Page-1">
    <mxGraphModel dx="1959" dy="1716" grid="1" gridSize="10" guides="1" tooltips="1" connect="1" arrows="1" fold="1" page="1" pageScale="1" pageWidth="850" pageHeight="1100" math="0" shadow="0">
      <root>
        <mxCell id="0" />
        <mxCell id="1" parent="0" />
        <mxCell id="cE-21o4Gt5_F8m1UTusz-1" value="" style="shape=image;verticalLabelPosition=bottom;labelBackgroundColor=default;verticalAlign=top;aspect=fixed;imageAspect=0;image=data:image/png,iVBORw0KGgoAAAANSUhEUgAABLUAAAJhCAYAAAC3uoI7AAAZPXpUWHRSYXcgcHJvZmlsZSB0eXBlIGV4aWYAAHjazZpZkly7dUX/MQoPAd1BMxy0EZ6Bh++1kVl8j5IsSyF9iEVWFTNv4gKn2Q1w3fmf/77uv/hTfMsuW22ll+L5k3vucfBL858//X0PPr/v78+09z/9/7fXXQk+vt8iLyV+ps8bdXx+hsHr9scHfu4R5u+vu/Z9J7bvQN83vsP7pDvr9/3nSfJ6/Lwe8negfj6/lN7qb0v4DrS+F76pfP/lX9P6/ND/3W8vVKK0jRulGE8Kyb/v7TODpH8xDV7R95QC14WU3yvV8SOm8B2MgPy2vJ+f3v85QL8F+ec395fRb3/E6Lfgx/G9Iv1FLMs3RvzyN98I9hevp1/3j3++cfo1o/j7G22H8lfL+f67d7d7z2d1IxciWr4V9YL9EyFdOAl5eh8rfFX+Gb/X99X5an74Rcq3X37ytUIPkaxcF3LYYYQbzvu5wmKKOZ5Y+RnjIhN6raUae1zpkye+wo019bRTI1krHkcac4q/5hLeffu73wqNO+/ApTEwWHjp/z++3N9785/5cvcuhSgomO2FTQmOqmumoczpO1eRkHC/ebMX4J+vb/r9nwqLUiWD9sLcWODw8zPEtPBHbaWX58R1QoIvFri6vwMQIu5tTCYkMuBLSBbAhhpjDYE4NhI0mHlMOU4yEMziZpIxp1Siq7FF3ZvP1PCujRZL1MtgE4mwVFIlNz0NkpWzUT81N2poWLJsZsWqNWfdRkklFyul1CKQGzXVXK2WWmurvY6WWm7WSquttd5Gjz2BgdZLr7313seIbnCjwViD6wevzDjTzNNmmXW22edYlM/Ky1ZZdbXV19hxpw1M7LLrbrvvcYI7IMXJx0459bTTz7jU2k03X7vl1ttuv+NX1r5Z/auvfyJr4Zu1+DKl6+qvrPGqq/VniCA4MeWMjMUcyHhVBijoqJxRZjlHZU458z3SFBaZpCk3bgdljBTmE6Ld8Ct3f2TuH8qbs/YP5S3+f5lzSt2/I3OO1P113v5G1rZ4br2MfbpQMfXpisgGf93PL//qz/+QgXaeFOk5Yw/XFrknqomUp7TDYtX31Lzm3b4aWBpq3Xv3RbLuvovUnwLBpzT+PLL7/EJuRj6DsMdJEcZcZ877npDPPavsDHm0cKvdW0+fFxDnYzvYiH2Ew2fdnG2T/HnWaiD6AWT89fuMsWbPmujc1OVCQxQzPhngJBvkUboinVPvubsPxywYOfNvjg6wUOO0wWqJHtrjzdr7MXIPVCsTb31Y3zutba3HkGnIQYVkR1dRRpNaJxCLWlYXZUQI4oH3S5l992p5nsZd+jkwVGm7hA5nldShnJP9mY61Dj5N38SdbXdN2XYunXUfpslnWtnU6PG9H9onlpxLO6n23KIuotKBX6fUDAqecCri8OlsK9IdJxYmdJYP7VL8sOGq4XSi7/e9ZdJRoaYxN2Q7SnG9COvrId7NuLhdgU2K9do4o0+rdNSsucQwZwjdIgFOpY5Of2QuyzcPVu1sp4JEKnta2T1kWHsT2xrXWmNCGEjCGFaC2kwsTTO2NC9ldC4pqn50OrKZK4mANj/LjqX02bWU0Ci8kz9rIWDpgA2tz4JIW1YJjBEWM4qDVPm60ylORDsaCmXcvsuhXDY4uBdR3WseJS+sOij1u2unQhqZ23evdIudfmtfl1oIjmLYINjKde11auDFdcMq/vZOO/DrDqfUNZlIzr0BjDcubpouV/qYqGFwcLnv/Gc8HSFjgwkQxzsBHCDKRibIsK2fXAxKEbfOzJPRC20AbSQ4T27qzi63yAMkkgLe+lqP+VNb2GPSEKyAmxiNt1hahxLg8DnVCmGC06OFAOpGd2oF5vtiWq8Y+2GOib+qynZHpROrX0u9OPaxxJTj9D3nQSppz1MC+GtOOAHKktm2uEOljnQ1BLXEW62wKlTjpfBu2nHaWfXwmo3l96SGci+IvUb3A+QUGImkGr3ReXwMWCqDqLUyutakubaaSHnhQ/w/LEYaUwqGBpgxux4prEgxwlYHfrgJtcjF1DZEWOEcEGna8rYylcpCaSwCTmSJVmLWPfSduwtntkRBCJ8mg7SeaAn6pZ0FhBziDIslVcI6Vo/m5hNN/GY5ABPo6PjjejLa2u9dJrppEa71tF4ph2ZKV+1Kf99A7Y0xgJLk54roM+osrLlPu5YalT0ZsF7qFjR6mKw7hcH7CGc/PrCiufo+5pr+REto6VlLAn8oGqovAv4UDChjLA2CXAjkmIHVmRpJFHqVd5MySqMyx0WgAAdCI6aaqcmT1kAZLjfMp0kZrt0On6L/uhkwwxj11kLL5wDMrZ5uxV2Qb/CoDMr4RBqiznkVseXA8y2IA28MT9DR/5PKb+PCJDAyLJ6oWUQDfTzQ8KnfOStebVFxntqwxSSKG7uGegE7WiEjWbcw3mavJFveAyGDfwKE7ida0jerAqB7NOa8cX0joFJc3qiM4mcQ4uOITxpddQOFUTN3wDTUcrZ4MuHnBtQ1IMzSBhXhMyImJm7sADNIFb8uUEa/gkTnUArzkHAwA36hxRmBoutHQRHY5iptBlxJshyCFhyWVL0gGkdthSFU0tSJQsprZLXZBDJno3LD2XZUEYCQuv6CHRGe3yU7ixVh1QM1p94H8gf0hegbQDEhmQAfIlAsDiI/py/RCZIOKhbvzOxrRx5/Sl7fqSb0nfUB3MCoFJGIl2YCE3DyFZBo/LNXsHdeQL0BU0rBNf8GksgkFcymoyOb4KVtWr2fNMPOqBQ5wAL5LKAtH9gmneZhogLIWa8rTgdJZzCJEAYpUDRIRdmhH8D9VmVTMtHZ3lCYLV4KqY9FO+BSCPzqeckPZgZC0xycaxLFAOa3KEt0H+5HqiN/dMe8aIVKKzW8prZkgDMlAJJcRqUUhzzYq03wnFW3fNGzNOKm9yDT2pDNO1IPmQWQBINkEQK+NZILmcJM/WH0dU8ybDQ2jLlOgx/KQgl5pFEQb99h5jdcERUh4B1ukXD2iHK1406U7oH7m7xy7hR6GzZ1i0JsAaZmE9LGktwApNJzJCJyNzgfKBXzUA9WLz1OtwSHqEI18V6fp/aSQMiB4C5+JLLY0qW0ocmL9laJTH3n04BLocdRhVgMsDg4dAXzA2zaqOrWlfsGIIBIJIZoADjDAPCdaHtu2WijxiSQ8rxvRBYCj9uNA/BTgwzASkkpIfILxXHATkQbN0bq2Ot96p8yeVh9BwAFawD3YBO2w0FXXTw1Qa2Dr6jakvBjoYUbSUI5GdUM9CIWmIyF1wX5SkGR5SKdDFBGJ6FMnpG9Jbx7nQ5tHY+0YFYVXgcivfTc+eGNCYCmid4EA4EUeIlGcvPMRc9bWzAdDnyCDG8nTSwuXc6wi47Fb0GJuVd0Abfs9B/f8EZQ5iVsLkeChuo07eBEkfNtqINC6OKt+LyQjb/aN0sgKUmFb54qAWzyaqDT5PbLIUDAoUmDFe3kgSBYToTSLBGlPh45mUoT9Um2U2HBAfSCP1ffJINJwDMEOyMaIrBxQQ+yGobyT0HwZUhzEoo2ONg8Ag5qotggaRoS0bknAndx55jBbF6bgYYFxBquseA4ka7QJZdJTkMhdBp36bQlZiAfYUJE0gCXlWyg6IBZJ5WNZC6kHPtpFRQAVyGqZtp+wm+CVwbXWDSYpyD8WDPKk1E912Tk9sKOgEe+sER1CrWIUgZpGXBDEghkfLl860D3LFmhdeZBq6ThJ4aZuisICG7RIl6EosDDRNkNOFMpAWMnOGcXTZM878Fwp25WJ7lJvND9bZ0kHB3IAPOlObll8CH6rMRSZN1r8+waTUZw0TN0eIWrPYgwt7oRFX0OUANYLq6JcGF/6Y9T2wRd7LfBGkyUoEBrKygjRAd4BDXB5DGSUKwdXoKS2FBdnDg2QKo4qpvGwdp4VCY0XilyfH8loK3yBsUcAp2F9yFVgARyIEptUFMsMQ4Cb3Msd2SJ9p1AEkpW9VWPbgk3Ur5U01JRo0IBnwzANGwpuWPRYFhcUoKIhwweZRhMWwsIa7wAQSXW6AmYd3M/InKEmrMaVSrgKLyB8JgkGD6SBcRn5+S0DUImkAW4wYuerugLQ0+ea6L6rt5mSCIZVbkSE8B3/uq6nZDuGC/Sf9HMMPohxQhzhqBRsSQBSxMYLCDy5VGaR59DWpBLAKupA3/HhMeZNn5iOEp9o7w8vQAjGobjsQQ20hbOUKVahTxYNqbbPYI9S0aTR/ARyJsiUa9eK3QLpPsRBNQAlB5YS8RgrfPxrbA2VhF4BLQSlith0qBdDETpqnbEIS0ScuhYmULITqFmICr6HeogPwA7Zg6HTtF4hR4RmPzanVoBSvSP3MJI+H6uCmgjPq993cKI4Bn8ue6qdbwtDmTL6dQ8RdGqJOvBjcEaXEHrUVnwjMOhxd0w6yS8B8wGCg4IzQhEqIUQIzmI21iP0VoWMgvH0QNQ0Y3h8UtAHrNgWMcX7cCqmN+ehqGXuYwmojEPuhddLgUAOl8NTS0o0XgBgKvEMw4D7XnQ6x2qKEMbJcQM8eNleiPy6ApfqYlObSMHgowUaYOmU29kpmsOqTsZX4ILF28wJ9UhZ6XNO4ak04xL/QIMAan19n4RrtpoL1RZVaQaDYLAcVOR0R4BrXcuvEOPMtxF23QAQD5fZQkO5oNYgunlz+gjGhvtil6IJOsiRgEh8Keig0GpqyLPlB/hRE8qObtnSN8M3qqLEtl5CbjWZxeFjNFXyB53EVJgH56ZRA9oB+E/QDM4iTUMXB9lUUNfkD5CFefCK7gbDKLJfKKFcOQNzA4s/2qjoHzusfrTPAtvxseiopw9oWs/ryMlTMh1G6IVJ7vDAGUdAo0+QIkxK8xxGAZi1zi0G9WfPNTO59MiAlttjRklIPFAU7JKQ6DTwI4i1fbJj7iYuwKniwLvS+qRqGfttFFWsrTEH1dEV58sirpUOipKt3Hj9q/SyZ7e+27kgQw9N5oxBbIHwWGSE6KALG1LNcHijPI6DkbxWEGXDOhqrKNYFith0aAZFmKFCgXqqLuAnX26BHLDYST0ObpeoHDwR3cIoB0UIyHkFyqVtNFqSfpfOp8KB31h8Ws0B8oE2LInTpov2lwc2gejHGvbXqYG6Bud/mcGS1tbxAzanXHpWsILZ8KKLARnNSBulkpLdRgneKQHJQniOE/lbgRdm6yYgkKOAFbYu1UxI5G0VzF3oxUQNuSSqY7lxRioH/wIEk8+wbUH46W1Ix5NtDZ6uJ4A0EVWtClmsNpLtiFncPxbO5o090IikWltYAkS3FNF3HhviedIPmiNWeFUfB1QAWqksqQ6ktoa8xBAKmqR2JFb6R9I7m4X5WQMmwdulwX5XjQ1cYkzYW1ojI62lgcj3pij1ege2rXKF+6jnQqAHpXjusznBzFosY3xj03H0kAo5E+Fw+6ExetAsfo6gd95C8VdkBKoU0i19m3d9YMB0wQD7IChAy/SevtGDVs7kVJynCScCVFRJoRZmSLENlIpVCE6A7kHZfuAhKYbEWtXkA7HU3+gxxwRt0cbc18BEgHCV6PlGt6XZu1XO7VQJYVdnAoDOkCbczlyAubCh4BnyytAN+ryjCeF/JFzSnfoqGlEFcV2ng8Al7uDMKrOWoa1MoGS0YD7K96D27o2ukqBOL04nkTh4IOaGy2Hf7xW4xF+oCFXAr2JjSGjkdqAAgADhTXZza2dSyqz7jEfGxN/9JE8SYRHsWO4ZTLENFyvGnJRax6+k0DVrgs1J5Sg18dzKBPJWcG8bFmnXRh3TCYrz9VSp+QY6AYvqddSpmwBIAQqIlHpzqh/zDlASnV/tr8TmpzqxTgNneRsSpWZQzNnOcI5QwEMk/IKvqQ7RAciQRq2ywAioyULT5WJwWchk1gTWIPhUDJCHR6/NvHJaC/uhCTV7tam84BrjBpWmpyC/IGShVEsASFwPHU2GKOp2gPXFT8ddkayoQTQpaMTj1w6DpzqwMProBpDxkvoJ8QOi686DZv47exhTNawrsSUgypMZ1IdNYJoZpp4MlI7TedkzImxiY42mzcBJ5jgETo6LnJE92LaxajdsXQuQHVcfuQ+wiYUmLw2YSgsDHpQp3dJu4geJY6c1gMONDFySmWBXkFmovwrM9VGGzrwdggZ7EakjYgPAw8nUIoFC7J00EOmTvh0TNqtSLxHirAScUVmhIAvyB9EAoA40avPux4iVFAzcPLgjaeOClYinALQ2Z3a6/OynTqjSNGh4oDaiIKAWX3WkwLoRoLTdmg67l/Vj8aKGrBBxV6igvdE8rYhH9wQEbfGgGI7e8poRTwTOMV3sA443tnr1BO5gJvCEUGdwEmgxoiEHiuJEcOLdfFiku62VA4KDTYA9MLbDxBkK5yQrrBCTypU2bGGoQnonqnjB+14kHcEtOxNc1Sucq0tTgQqtNp0IETj74GGR6IQS6C/JJ2GaffrhLKlABa1EGXpK7Y4RweuCJ+hFNG92n2mZ64x+wa/4pwPyg8xA3ydjGHSPhoOJGU0iCyazdYKTFuCts2gc5gePJ1NB8yYldp0bFDTEL8Aq3L82sxAJFyQY+pUNyJsAtqAFnOdthkeAxTfVlbg7fS27XssOu35URWQCxYa54hvRgaxdkS+VysvKvlGZA03QBdK/MAgqnksnmgDCdOkYLD/bycvUFUT1cWtAInn1KAxXE1B/8Jr9fq3X02eAPeOs7voiwhWyfFri3v4okOHAVh2PH3aW/o9xHIblYg5TrQjWdP2DD1JqVnV+VQiq0gg0J7e0qEHlIO9xQnBw8g//GyPYHu2hCSTt4jgmYMwtswVWEIpVY/LllziCytCDtAX8BJFgW/saPJTkTxRGwRBJwJPFCI7LgXptW8M5sC4STtmsTBGpmxqOfSs4GfNQQDTRxR1NCJ1CVi/HUqdDi6f3UmeONBiIOBFs+lN/EhCAHDtWstjLABOGiIVP6i3wno3sOqDNn9i0OmFVYdtI2XqUd1+CwsyJgwYogiTjrBIDPWBoh4nXgw3ahndjpOg2zHYWh+F55qakfoKQ0eJHU+Eb4AgIRxwAW7Vk1BRrIwa2rJhEBTUD3YjVcFp+LKMdlzTFuVuZzzHXM4tekhJgh8eQkdSruAKK0czVW2nLssAKR9gvShObZoFmWNsfKp68CP8sZ5xktYDryEE1dPau6C0cEyINWBwq6hP1RIL9g/dnhwcYLIzFZkIf9GciJ5FNaoUsWk7EB/02zvZo+/1xF3uFFTBAUhH6oR57u5oaJQUsuxRs99DZ9yogwHO3Ei/lYhBBW4p0oawROFoC2BLb8vbaY8TtUdBIgCrOpVen5Sb9ssqwDHV7rjCPrQ/E6D1RINCcFGHs+gNnf/vIZhHjM3q7iSgj1kO0hgyo+AmlmjjNpeAMqENEJG+V5AMfRwRLFsOrEbsN5y6kcwrYEWpNXmUnOu7OlJLuEntj3lcVJbnlYVJLLFq7wGFO18PIUMJLnBa70BD/tqgxDgg4waUIk8I3vbLapIfQAlKLdA92qzqOil8RxY9kE3IJ6JryRqOw6+dZb0oRdM5GxPfdAO90jN09TQT1L210IGnxxPSwsBJwwZClngc7y7z5373HQKiVor2kuFGYH2ROcOAxKvjLupM9pPabYs6pNTG9ku0a+T9ICK4DgRuE9dVM3PHm5+Kw+oGd5FNBsbIQaiiGXrOpOhhhVPCjEDiUTYaXoQ6A7Zy1LnqLHLXi4jggGQUW6OkmSwkxBjrddu91HvNJmM1ddoqgeyOHurJ4PI1AEznC9sTbZ2+YQZLzgRrrguunBb752ho1s85E6KU8j1vzx15DHEf6A+m01M+dClNGZbUlLZ4knb3VHeVpt7EJA9gUEcP2mRCtMhqkj+HD9FeDhIyvr2CrVNeweIYOvGwQBoSSKSnSIWSeqQFys46NQXhuFqPjTVEhMDoHJ1n83lyoTqCXVG1raOLuDmfixgU/CVtpseKgCfUibod4r34ZypOvfYYJQJXS6eUe+rBFOZ4CEUkAg1NT99UbQnO+fwQH294ILoQr4BIWTMRI5bYMStmPushChTWmKoU+N/SCyS+USf8dSmKKFeS8s4RK7cHHBBcvTjuBoYiCOg4YMO6Ic7zStBf4pdi0nEJ30HlL/hb4CpCR9hTq1CUHjDzegLBwMaimoD4F7lmLvBH18n9JsW96pEv9G8SiFc9QdDesxeW9BjCSg0Qxg06SAKRyXx07iNAwOpjhpO2RvTEJGTgB/ZHqYra3psiVOTAjohhPjpQJ0CBy56uRB9xw6VDMK5CRWR8F5QWcJ/40izh06XNyAh1G3ozsG5w38PcCik8Lk1D1bXTNTCBhHMMI215J3skBbEC9irrnfVAk5Wp4+0zcD6/HivSE1HfX/7+T2rCI70aXg2OoeRwgVRdFOwhX6gaJ8WPkDXkGlSns9OZKMPDrPbnLO2ROHNjJkuP5WJ3KwDdZ/cowfHex2YVOvJIk+H8cMFICuSedrHgHW0QoNpw3m9InWzlggMm9NpYLfoYUXovuM82egcYTW9uHRMlPUpCDVDZg0xkLqTETU+DNXlyGzpP+P1d9/M2GfHCGI3GOBLhmsB8Ayds3oTFu04HKduGsI+fx1U+O3N1OXpmk6T1rz5g5/5NT+j9Jw1E+tGd3v0v1V3DdUP7fHYAAAGFaUNDUElDQyBwcm9maWxlAAB4nH2RPUjDUBSFT1NFkYqDRUQEM1RBsCAq4qhVKEKFUCu06mDy0j9o0pCkuDgKrgUHfxarDi7Oujq4CoLgD4ijk5Oii5R4X1JoEeODy/s4753DffcBQq3ENKttHNB020zGY2I6syp2vCKEIapR9MnMMuYkKQHf9XWPAN/vojzL/96fq1vNWgwIiMSzzDBt4g3i6U3b4LxPHGYFWSU+Jx4zqUHiR64rHr9xzrss8MywmUrOE4eJxXwLKy3MCqZGPEUcUTWd8oW0xyrnLc5aqcIaffIXhrL6yjLXqQYRxyKWIEGEggqKKMFGlHadFAtJOo/5+Adcv0QuhVxFMHIsoAwNsusH/4Pfs7VykxNeUigGtL84zscw0LEL1KuO833sOPUTIPgMXOlNf7kGzHySXm1qkSOgZxu4uG5qyh5wuQP0PxmyKbtSkErI5YD3M/qmDNB7C3SteXNrnOP0AUjRrBI3wMEhMJKn7HWfd3e2zu3fO435/QCWZ3K1XbgmXQAAAAZiS0dEAP8A/wD/oL2nkwAAAAlwSFlzAAALEwAACxMBAJqcGAAAAAd0SU1FB+YMHw0RHI5DFPsAACAASURBVHja7N17fFT1gf//9yQzSSb3BJJwCQhECCRyJyiICmpdd39SrAWr6w2tl2+9dNVd6Xbtd8Xduray27rV2tJuKxXttkqtVL67VVvBqih3uQQIN8MtIJeQC2RIZpLz+2NyJufMLZOQkAx5PR8PHiQzJ+cz53POXD7v+VwcCxcuFAAAAAAAABBPEqgCAAAAAAAAxBtCLQAAAAAAAMQdQi0AAAAAAADEHUItAAAAAAAAxB1CLQAAAAAAAMQdQi0AAAAAAADEHUItAAAAAAAAxB1CLQAAAAAAAMQdQi0AAAAAAADEHUItAAAAAAAAxB1CLQAAAAAAAMQdQi0AAAAAAADEHUItAAAAAAAAxB1CLQAAAAAAAMQdQi0AAAAAAADEHUItAAAAAAAAxB1CLQAAAAAAAMQdQi0AAAAAAADEHUItAAAAAAAAxB1CLQAAAAAAAMQdQi0AAAAAAADEHUItAAAAAAAAxB1CLQAAAAAAAMQdQi0AAAAAAADEHUItAAAAAAAAxB1CLQAAAAAAAMQdQi0AAAAAAADEHUItAAAAAAAAxB1CLQAAAAAAAMQdQi0AAAAAAADEHUItAAAAAAAAxB1CLQAAAAAAAMQdQi0AAAAAAADEHUItAAAAAAAAxB1CLQAAAAAAAMQdQi0AAAAAAADEHUItAAAAAAAAxB1CLQAAAAAAAMQdQi0AAAAAAADEHUItAAAAAAAAxB1CLQAAAAAAAMQdQi0AAAAAAADEHUItAAAAAAAAxB1CLQAAAAAAAMQdQi0AAAAAAADEHUItAAAAAAAAxB1CLQAAAAAAAMQdQi0AAAAAAADEHUItAAAAAAAAxB1CLQAAAAAAAMQdQi0AAAAAAADEHUItAAAAAAAAxB1CLQAAAAAAAMQdQi0AAAAAAADEHUItAAAAAAAAxB1CLQAAAAAAAMQdQi0AAAAAAADEHUItAAAAAAAAxB1CLQAAAAAAAMQdQi0AAAAAAADEHUItAAAAAAAAxB1CLQAAAAAAAMQdQi0AAAAAAADEHUItAAAAAAAAxB1CLQAAAAAAAMQdQi0AAAAAAADEHUItAAAAAAAAxB1CLQAAAAAAAMQdQi0AAAAAAADEHUItAAAAAAAAxB1CLQAAAAAAAMQdQi0AAAAAAADEHUItAAAAAAAAxB1CLQAAAAAAAMQdQi0AAAAAAADEHUItAAAAAAAAxB1CLQAAAAAAAMQdQi0AAAAAAADEHUItAAAAAAAAxB1CLQAAAAAAAMQdQi0AAAAAAADEHUItAAAAAAAAxB1CLQAAAAAAAMQdQi0AAAAAAADEHUItAAAAAAAAxB1CLQAAAAAAAMQdQi0AAAAAAADEHUItAAAAAAAAxB1CLQAAAAAAAMQdQi0AAAAAAADEHUItAAAAAAAAxB1CLQAAAAAAAMQdQi0AAAAAAADEHUItAAAAAAAAxB1CLQAAAAAAAMQdQi0AAAAAAADEHUItAAAAAAAAxB1CLQAAAAAAAMQdQi0AAAAAAADEHUItAAAAAAAAxB1CLQAAAAAAAMQdQi0AAAAAAADEHUItAAAAAAAAxB1CLQAAAAAAAMQdQi0AAAAAAADEHUItAAAAAAAAxB1CLQAAAAAAAMQdQi0AAAAAAADEHUItAAAAAAAAxB1CLQAAAAAAAMQdQi0AAAAAAADEHUItAAAAAAAAxB1CLQAAAAAAAMQdQi0AAAAAAADEHUItAAAAAAAAxB1CLQAAAAAAAMQdQi0AAAAAAADEHUItAAAAAAAAxB1CLQAAAAAAAMQdQi0AAAAAAADEHUItAAAAAAAAxB1CLQAAAAAAAMQdQi0AAAAAAADEHUItAAAAAAAAxB1CLQAAAAAAAMQdQi0AAAAAAADEHUItAAAAAAAAxB1CLQAAAAAAAMQdQi0AAAAAAADEHUItAAAAAAAAxB1CLQAAAAAAAMQdQi0AAAAAAADEHUItAAAAAAAAxB1CLQAAAAAAAMQdQi0AAAAAAADEHUItAAAAAAAAxB1CLQAAAAAAAMQdQi0AAAAAAADEHSdVAAAAAAAALmRXXXWV0VX7+uCDDxzUaO9AqAUAAAAAAOKeNbiaOXNmt5Uzc+bMQDmVlZWqrKyUJO3fv1+VlZUEXucRoRYAAAAAAIgrZoA1bNgwDRs2LOw2e/fu1d69e0Nuf/fdd9sNnhyOtk2KioqMESNG2O4vKipSUVFRuPINSVq1apUkenV1N8fChQupBQAAAABRlZaWGpKUmpqq1NRUlZaWhjT8Itm2bZsk6eTJk+bvNPIAdMiQIUOMwsJCjRo1KmyI9c4770iS9u7du2Hv3r1TYnltCtaZv5HsoZcZdgUj5OoehFoAAAAAbEpKSgyHw6GSkhLl5eUpLS1NqampXVrGiRMndOzYMe3fv18NDQ0EXQBC5OTkXJuTk/PeiBEjNH78eElSUlKSDh48qD179gQCLHP78xlktccMugi5uhehFgAAANDHJScnq6ioyCgtLVVeXp7y8vLO+2NoaGhQZWWlOSfNqWPHjuVyZoC+p6WlRc3NzXK5XEpNTdX06dMNSaqurpYkrVq1yhH8+hXM6XQqMTExYhnNzc1qbm6O+fauUFRUZBQVFckMuqzMebmYk6vjCLUAAACAPqqkpMSYOXOmUlNTlZaW1qse28mTJ7V27VqtXbuWBh7QR6Slpen06dM6e/asXC6XEhISlJKSolOnTsnp9E8JnpiYGPi5O1kDrq4Iu4J7hI0YMSJiyLVq1SoCrljrlVALAAAA6Dvy8vLWl5WVTR42bFiP9MjqqIaGBu3fv1+rVq2i9xZwgXO5XPJ6vWpqapJhGGF7YfW0pqYm2/+RdHRY45e+9CUjUsDFEMUo9UyoBQAAAFz4SkpKjLKyssAcWfFox44dhFuIa8OGDTMuuugiKqL3n6eIKyoiVGVlpX71q1/1SPDmpPoBAACAC1dhYaFRVlamoqKiuA2zTGPGjNGYMWNyduzYYRBuoTfxer0qKysziouLNXr0aCoEF6R333037O3XXXedrrrqKqMnepQRagEAAAAXoAspzApGuIXeoLm5WV6vVy0tLf7Gdes8T5Ea/rG47rrr+lw9nkt99aS+eK6iHfPMmTP1wQcfnPfHRKgFAAAAXECSk5N19dVXG6WlpRdcmBXMDLc2btxovP3228w5g/PC6/Wqubk5EGZJ0k033WSUlJQoIyODnlod1BfDIXQdQi0AAADgAlFYWGjMnj1b+fn5feq4J02apDFjxhhLliyh1xa6hRlieb1eKgPoRQi1AAAAgPPDLSmlk//nRNsmLy9v8pQpU9QXemdFrFy3W9/4xjdyduzYYbz++uv02kKXCB5iCKB3IdQCAABAX9Xl4VKU/7MldUvQMnjwYF1zzTUaPnx4nzlxq1atkuSfwyXYmDFjtGDBgl7da+vTnaeNjv5Nc3OzmpubedaeJ9PGZDhi7ZWVmppKhQE9hFALAAAAOniiyTh8oolGdpz5yl9frltv/f/6XO+sDz74QAsXLtTChQv11FNPhdzvdrs1f/78nO9973sqLy83JGnXFy7tPe7iomnlckrORDq0WeVluTTx4nQNyUt2dGSYIaEW0HMItQAAvVpnvs1uamqi4npQ1ckmHanu+JwjXs5bn+ZOpnHdEUMGZOqRu67X1+bM7LPDDSVp4cKFWrVqlZ566qmQXltut1tPP/208Ze//EU/+tGP5E52KDczgYsHIUovSlNBTpIG5CTxQgTEGUIt4Dw1svk2u+dt2H2GRvYFbtrkUXryoa9o1vTS2BpDP3xDixa/HXK7+e112fiRWvB/Yt/fytXleu6nv9e6zbv5gNGJZoGzC0INV6LkdNImQe81Ot+jrJRz+zyQm5urBx/8uiZMmECFyj8UcdWqVZo5c6ZWrlwZcv+VV16p1NRUPfSPP6CyEJCX5VJ+dpLGj0i33uyRdCron0fS2TC3B28DoCc+c1IFfcdz/73XoBbiE93D47eRTc+D86ds/Ei9+fMnO/Q3Cx+bp2svL9GtDy/qkv3Nml6qWdNLddN9zxBsAQjRFYHWsGHD9OCDD2rEiBFUaJBVq1Zp1qxZYYOtKVOm6D/+7cmwr/foW/KyXBo7PF0DcpLC3Z0iaWDrPwDx0MajChBPXE4pI5Vu4wDsOhNAmWZMLdV/v/iEraETvL+P1pZr9fodUfczfcoYzZjq79H15s+fJNgCYEOgdX6sWrVKDodDK1euDBmOGO71Hn1H6UVpwb2yAFwACLUQXxcsvZUABAkOoGINk6x/Z23ohAu0YmkAvbBkhf77xScIttDrPDL/hvNSzqebKjp9vZeNH6nLJhZ3+WN6YcmKXnEOCLTOP7PHFsFW39ZOrywAF0JGQBUAAOJVpEDL5zPkbQ4//NO875MNu3TTfc/Ygq1H5t+gBQ/ODWxrBlqexthGb9/68CJbsPX4fTfScEKPsl6P58OQqfM79Xed7WnZnt4QahFo9ZxZs2Zp4cKFjqeeesr2Ik6w1XfkZycRaAEXOEItdNglQ2s1cWKhjLPHdP+dI0Pu/9kru+VIyddnO5u0taKRCgPizPnq1dFR4XqBWHt23HTfM/pkwy7VNbS1XcKFWt5mydNoyCPp/U8qbMGWlRlo1Te0yOuL7TF6Gg1bsHU+wwQgnK66Bg9XbNXhnVs19dqyyBs1NemRG4s6V8Cp8vA/B8sp9f+LE101Kfztt99OoNVJCxcuNFatWhUyz9aMqaV68V++rof/+RdU0gUiuMfn+ytXMtwQ6AMItRCTFs8x3Xljhu6/c6S8deny1lVLcurkmtCJOG+/epikas2/PkeuzDz9/PXaLg24emuDu6+zzicEdJdovUDWbd4tT1NsPapaPMeU4M6X1+fvsRXO6vU75Gk05PX5tx9XnKyJEwsj7vNXv9mrBHe+PI2GVq/fwfMBvcpzLy0L9Fqy9kgcOOkuWxAcyazCs7r+ogZNnZ4TeaP6ei24pZNDCKMFWdbj+MmbeuEtf+8aT6MRthflPz30ZT35yNwer/OuCrTuuusuVjk8R5EmkJ9z/RWSRLAV50qGpuql7/+9ioqKtG/fPr333nvat28fgRbQRxBqod2Gnz/MmqSGQ5+HDbGCeQ5X2v6/bfow3XfzcK3f1qhv/Xu1vN7Of8B7OGhoEIDeJZYJ1Tsj1ue92aPqzz9Jl7fulIwDm0O2cWQNkGvIaF3/TY+83mbF8pJ01y1FuumijZKORd7olklauryeiwBxpa7B0NjiZE0YHX14Tl5Di9TQ0OOP95IBtfpqqf/zhS8tX760PNv9n+1sktfX84s9d0WglZ6erltvvZVAq4tEC7Z+9bu/MP9hnOmf6dIlw1I1ICdJDodD+/bt089+9jMqBuiDCLUQ+YPj0Fq99GzsYVYknsOV8hyuVMngYfrzkuF69NmT2rjN0ysbzjj/zmVi4d7C02jIlSg5nd2zkIE5B5Qp3JC6ri7jXMoJt6/OMh9DrKGWub334E55TnukxKzQjU57pIM75U6+SM4Eh1yJPA/Rt/34n/PUcOjzqNt8UdGkoxU9/1hnlI3W+JJBOvL5J/J4T0hZbU9gV2aOlqjn587pqkDrxhtvVFlZmdLS0rhIu8iqVau0atWqkMnj3/z5k/rr2/+vtu06SCX1ciVDUzVuuP854XA45HD43/f/9Kc/9YrHl5TE/F3A+Uao1Ye4kpLkbWqKadsffDtP44emq27HJnnrarqm4X+4Ut5DFVr00GXafCBPjz97vNP7Wr1+R7uTv0ZqWHdlIBCt8d5V5Zhl+JqNQC8Ul9O/EmRXBSnhyrCW0xXHEqmMri4n0nAU85x0RZ15Go2Q4/DHtEaXlePzGfI0GWHncjKPz5187nUWrb46U060/XWWtexH5t8Q9blvbmvUHg0faLUyao/KmTBUzmRWVAXM9+hwTg94QnPmzNEG/VZHK37d448zs3CaMnNK9cXpH8iz6w3pdPDjzu3Rx9dVgdYVV1yhadOmKT2d4VNdLdKqiE9+85ZeO3F88HtrbmZCxG2r61ps74nd/f7tckoZqQndevz9M13Kz3Zp3PA0h8PhWCLpLjPMAgBCLYTwB1oe1e3Y1OX79jmSVbdjk8aPmagffPvcgq3Ovil7Gg25nJI7ydHp0CGWN35Po3FOoYPPZ0Sc58Trk7w+/0TXLqfR6WOJFpzYymmts85+aGlvom1rOZ2ts1jPybnUWbRzEqmcztRZuPryVm/zf3jMvSTkmDtTZ+Hqy1wEQpJtHjxz28zU9uvM3OcdczLO+bm8dHl94PgAoLfrikCrvr5eZWVlmjRpkgoKCqjUbhIu2OqtE8efy5dF1i+nuqsMr8//uaU7gq2SoanKz3ZpQE6S0+FwNEuSw+H4s6S7uIoBmAi1YNOdgZZVdwRb4QKH4Ia12VA3Q5SOhg7hQqBwjXdzXp2OhAHRQg2zDKNmi5QyQI6U/EA5nT2W4A8wZhmjkz/T5MlDteVgqrYeTLHVWXVdS4eOJficXDK0VhPGJOn2q9teerbsrtPW48NsdeZr7tixWOtrbHGyxg+rsZUhKXA81jrLTI29N5W1jBbPMd11S5Fum14dst2Wg6la+l5Cp+osuL7umJOhsXmVGjcyU776AnnrauQe7JUkba8ZpJffrNPWisYO11lwfd3xpRaNG9IgX32TvHUbJUlfG5stZ0a2XludG7gG6hpir7PbpldH7PkRC/fgYVq63NXpv7/o0hPyOSLPb9VwsGMf3tPTD6mo7FDE+w8cGC7ttzciAPQdXRFoSdLEiRNVVlamkSNHUqnd7Omnnw7prdUb59cy31PMue+Ms8f09RGfRNz+F9uH+39IGaBX33HH9OWQWcbdc7M3fK3s+ORYH9uWg6la8KI35hWCY2UOMTR7YzkcjoOSXpG0WNKfuXoBWBFqIeD2v/Kcl0DL1JXBljUMMCe3v/1qpzyHN9q2szbUzXAj1m+XYi1Dkm77/jBbuNGRMMAaONz+Vx57GRdJ0iFJh+TKzNZt0zt3LNYyLhlaq39/KNV2HJ7DlRqZII28yF9n22sGdfhYrPU1tjhZd1xRpZIBLfLWHZPncNt2I1OlkRdV67bvD9Nv1+VteHlZzeTOHEuL55j+/YnBKsk+JG9dja0MSYHjmf+TiXr0eW+HjiW0vnLkObwxpAyznGfndbzOwtXXyNTdreej2nZuJGm4KvXsvGztai7R488ej/n8B19ft5QdD1tf3roaeetqdNNFlbpt+jA98cv0Dl/LPemiqZFfU7xq0rHmfh0MtQ5GDLWa9X916Ow1MupelOSWJDUQbAEEWh1QVVWlK6+8UiUlJSotLWXY4XkQaeL41370uEZd9Y1e8zhzMxPk8xmaMDqpdcESqUZDIm7/1fH+N3n3YKdefadjZblciW95DlfGHGp9+r+HJM3qUBll40fqsomhq6Tu+/xznTl1KDDxe2uYZd49UNK3JD0h6V2uXgCEWghxydBa3X3j4PMWaAUHW5MucXd68nhrGNAWOFSGDRzMhvrXxtZo7JBBenJxi7ze5pjCAGvg8PyjI1S3Y1PYMqyh0KJ7OhYG2AKaRxI1MrU6YhnBx2J+U9besXga23qa/eDbeRqVeFyew5FXdPPW1WhkQk2HjiX4nDw7r6n18UauX8/hSn15UOXkMQ+XxHwsIfWVsD1qGeY19+y8bP3zW0O1cZsnpmPpSH1Z6+z5Ryfq0efl703VZCgjyrn3NLVdX4vuOW0LsqKVM1yr9ZylzqJ9I2s9lucedmlkwu5268s8Nx2ps95hYcR7ms42SZrZwf1dIWlO2HsSdKXOes7Kffa4XM6hXf6NNYDeq6t6aF155ZXKycnR5ZdfzrDD8yjcxPFut1v33nKt/us3PT/x+MCMY3I4pKq6fKU0Rv6ypupUi6pP1ii3X7YG5ZzTMMB/7e5jevPnT4bctnfvXv30p2uUmZusdubKSpB0PVcuACtCLajFc0xfn9tfnsOfd+rvj51s0P4alwbnJnbqjdRz+HM9/+2Jumb+EXk7sWSaNTz53p1N7QYO1tDh+w+P1eM/bG43DKhvaAkEDs/OO6S6HTUxHps/DPj2G4WBMCg3M3wZ1rDJDLRiYR5LLMGGz9c25PD2v/Jo+JnV8ga/KBiNqmrOU76zLuqxRAtprAGNGWgFf/g6XN0syaGyIvvL0MiE7bZj8fmMsOGJNaAJV1+uzGyt3nRckkMOhzRlhNNWZ/9yo/Rtb/vnxby+SvMqNCrxeMixrNtr1qBDg3MTbM+Buh2bdPffjNXjFYp6Xsxz3+I51hqYVkYoI3w5IxO26wffnq7Hnz0e9To2j+X2v/KoJPu4LdA6XN2iqlPNOt6cJaP2qAr6pWpQTls5wXXWXkgXybq9Xh3zZWr//mo5HP7zbz0356ptgtynIj9nztZo04kZ8vgq5Gnwxjhn1wxJ88Le45DkbfJPXp+RmhB4vQBwntV+IeeZZrnOU+DeVYHWxRdfrPT0dBUXFxNo9YBZs2bJMOy9a596/Hat2VShrRU9txrioMxjKsw6qkDGU9sQcdu3N3rlcKRJB7y6/+rkuKj3515aFvi5obZKCQkJXIwACLXQOXfemKExBc3yHI59lcNjvkyt3XhIB2pcrU06n9bva+ueMGWEU2VFsc2H462rUcOhz3X7HP/Qs448djOgafEca+2hdcwWaqzdeEif7PMv9+0PNly2EGV489ZAgOJpNMKuWGcNT+64osoWajiNRq3b67WVMSgnQWVFLlsYsOiebM3+Toq83uaowYYZOAQHNJv2nA6UEelYxjg26Y4506JOrm2GTZcMrdUtZU22UGPdXq/W7TXP4RcRj+X5R4frmm80RgxprPXl73FUYwuzNh1L0/79bce3fp9Xg3ISNWdK2xLIJdlVumPOCC1dXh8xcLIGNNb6chqN+t0G6XD1EVt9rdvr1ZwpySHn5fpvuQL1H3ws1uvrP/5hhG2OKHt9mcciDcpJVFmRM1DO8Oatuntu2YaXl9VMbu/c/+01zbbeklWnWvTZ8TRVVnpsx2KWY62zUYnbNba4MDDHVrRjuf3qHNt5Wb6+UYerzSDmpCSXDtR4JTk0Z0qSrc7u/pshgZAuUuAYTtWpFr21rtGMniRJhmFo3V7/a8eXJyed67fLHebzdk/4lJGaYGtUd9cEuriwhJuzsStWOO1LjNqjcp5pkSux+8sqTD2urBR3lwVaLpdLY8eOZdhhDwZbwcMQH7v3Rt3zxAs99phqzqZrSLZkGFJ9Y5qkyKHWoJwEVZ1q0cDs+Hm9sK5kXHpRmsaP4NoH0Dl8yu7jWjzHdP+dI2Oe0PlwdYtWrK3Tsve/aA20LB8mjbZ/6/f59JP3PKo6FVuj0XO4Und/JX2yq4OfRM2G+r8/Mdh2DFWnWvSj3x2xBUGG4Q8ilq9vtO2jJLtKY4v932qF6yhmBkF3zMmwhSdVp1r0wp9a9Onn9jIOV/sb720hgf/4bp+TscH6mCMFDreUnbYFNP9vXZ2tjEjH4nMk2yYuD1eO2Vi68zqfLZz7w4Ymrd/nk7XHt/VYrOexbsemwKTyvmYjan0Fn5Pl6xt14EB1yLEcrm62HYu3rsZ2LD6fEdL4awto7Nn8H3bnqOpUS8ixGIZCjsVzuDLqsZi33Xmj/Vg+23smUF+hddasHV9k2/ZjnXQ1+LxYj2X+nP6B212Z2frDhqbWHk2hx9KSPFJrDo2w1dmUi+ojnvtIx7L5RLqO1BghxzIky6sBA4q15tAI1Xlz28KztIOadIk74vMlHKfRqD9saAopY2i2VwUFxSooGG07lnPhiuGrGqfTqf96ozbQM7SrQoMl64a2PY5E+/OO3ltxFi41tv+vK8urb2hRXUPoSrSeRkPVdS0xPZ72Hqe3uW2BkI50iq6qqtI777yjPXv29I4T5DkmndymQ4d6rgdNgrdOCd6ac96PGWhJ0uWXX66ioiKegD3EHIZo9aWrJqtsfM9N2N/QlKrtR4u0/Ysif6iVlR9x29mTXJo8PFFfntz2ZZdqvyAYB9An0FOrj7vrliI1HIpt2GHVqRb9YUOjpPZ7YKWl9VfpkCzt941zpHvXGpmu9ofSNRz6XLf8TW5gFbxYGgJmGDBuSE5g7in/42xqHZNv2MIAM5h7a12jbixLtoQBWdpakRS2h4vZyBid/Jnt9s0n0uVwNJl7Dyln+fpG3T5rsMxj/1rZ8ckvL3MFHru1h4s1cPDWtU1G/eZGh6pqk1qDgNAyDENac2iELi3cZwlpJoWtQ7Nxc8nQ2tYJ2/23H2/OVNWpY5Y5DOzlpKf3V3nNmDcG5awPjL0a2/+4pJSwcwdFqq+2cxJaRmlhlvoPmvDAwTPVi4ek+RtO3kMVmnRJmTZu88jbLDktr1Zmg+yuW4psE9x/tveMDhw4G1KOYUgDBozWwIFjHPt90iD9MfAA7pp2REuXp0c9Fv9k/W1h06efnw2EM4ZhBH4uKPCXIUnlNdX3l2avXdzeeYl0LL9b6e91GHws1jJaJNV5awLPr69d49DL7yrsNRbpWD7509FAOeaxDBgwWv0GjAn8cXmNNC3PX2feuhqVFo3Qxm2KaUUlSa2hrM92LKOG5Cu13+W2Pz54xmmY5z9Wn26qkCR9tLbcH1Al2Z/37clMdQT+fsbUUtvPn26q6FBjINw8cCtXl0e8r69LTzqjSTlrtcdTqqq6/G4tp7j/bh05Pajdcnw+Q79+cYFmTS9td7/Zl9zZ6fMZvMKtlcspORMd8jW3hVxdEaJ5LcPPvb7Y9/fwww9LktZ6a7R2+9qev3AajklnvlDpAEN79/XMQ3D4as95H+PGjQsMtxo4cCCrHfYC4VZD/Mbt1/foSoj1TWmWkKptNEK9r58mTLvRtm1RWdvPe9f9QkbtUbmTh3a67KqzxbriihkR79+77hdcNBZnzpxReXm5Pv74YxUWFkqScnJy9KUvfYnKAQi10J0mFdXKV9/+t43+XjZN8g81NBQ8h6MZsgzN9io5Lzt0NQAAIABJREFU7+o30tP739wUaBBPdZRmtx9seQ9VaOr4a2MOtSKFAcebMyWdCAoE/D1EDMPQ0Gyvkvpf/Uadd9+8cGFApOBs8uShgR4u6/f5bEPo7JNaGkpP76+LL77CcfBMW7ARNaRpbbiMyapqa9hkZqvq1NGoZRQMu8Lh7/+xL9BCcXpOSkqKGDhMnFgob11bfVmHjQaXc/0lbh11XuHwBw4XBwKHcaMS5XIlRh1OGVxfkcqYOW6AahIuc9R5pTpv7s+GpO0xJH/Ps9IipzZuM0O/0BDQOGufP21NZWLYci6+eMYb6en9b24LTy6WeSw+R7LtfJtBkPXcSzmBbT757ETrtWQvo6jIXkadN/dn8i89bb+mYjyWIzUtIccycXSJWpJH2Sq7tik3EJyq9gu5XBfJ620OucbCCXcsZcVFakoZE3JC67xt5dw2vVpLl7tifp3Z8Lm9W0hpYbZcQYGWJB1quNhhnv9Yrdu8W0Omzm97U3M6Yprry53sUG5mWyBx68OLVDZ+pNZt3m0bEmFum9pOuNXQ0GALr15YsiKwH5fTfzvBlt2Y/D0605KjQRlHujXUGpO/Ry0t0uDM9svxNBmaNb1U9fX7VF8f/gufjIzhysgYoUe/PluLFr9tu++JB2Zr4WPzYn5sC3/4hm0fmakOSxjtiBp+xY2cUn/vKkly5/t/dudLp8r990n+n/uQAQMGBAIth8OhUaNGMZdWLxBu0vgvXTVZY4uH9OjcWuGc7Xerispu69bA6UhjsYrK7j0voVair1ZSfA8/XLhwof7zP/9TP/7xjzVp0iRJ0ogRIwi1gPOAT9Z9mBnUBE98Hc5ne89YgixH0D9/YJSR0V/9ht/ssDbsZQm22ivD50jWuAEn5DrHyTA+3XwiZJiTNRhI6u8P3Wqbci3JwBeBcoOHa0hSs+eYbciWO8MdtYxJY0ofsAQbsoY00UyePDQkcAhXzuDcRF188RUOa0hj+to1HetmfuBAddgy0tP766jzrxyWUOOBQL0cqpDTFfryEegFUL0tJCwNdyzp6f1Vk3BZxAec4quxhX7BIWDDnk/bwgyjUeak8NYySgZnKdw1aT337lSX7Xxbfx5XnBxy7q3HE1MZklJOVpzTsaSn9w8JtMwgKFD/pz0aW5wU8by0eMItotBWzqCcBDWljA17PmzPl05wOByBANDVf1avHAtxLt/Gezwe2zm1Djf0z7EV/r6+rL4pQw6H5HN275CrusYMlQ7JUrNzWLvbms/H+vrPte2t74T9d2zn+2H/dsUvv9WhQEuSFj42T2d2vqIrp44KBFrXFu3UsOSPlZF8RhmpCYHhQ539Z3I5226zzvnmTnao5cDmbqn7vYfr/IHV2dZV2zzH+vx1P3ToUA0YMCDwupiamkovrV7k6aefDrntsXtv7JXXUW9UNn6kHpl/gx6Zf0PMQzcTPQeV0AW9HwH0XfTU6sPGFSfHNPTweHOmDtScDTTkrfw9PBwalJOgiy8ufaDOG3k/1t4xERuG9Z4ODUGUJKNmi3SRvZHe1pC2D3MrKcySK0z4YNQeldM1POLqi/fcPU1SW++mj7acVlugZ+9YUlAw2hZmdT4EiHwsg/OHq6mT+w3uERSpjJGF+bI2va09j3yOZI0Z4dTGbd6YynQZjbaXG7OcsuIiVUfrhVD7haRBEe/2h4D+R+nKyJZUE3JeCgaMjl5GB/nDOvuxpGQOVmfWv7KGG67Mtnm4fI5kORyNMoy2YykZnKXGMPvIdFXfH3hBNxrD13+i5JGU4M6XLOtd2oNqQy3Jo7rltcbaG2zAgNHd/tr2yPwb2nk8Dv3DA1/RxDWfh/TKimTBg3Pb3WbFL7+lG+75fiAcsfbKMldFpMdWm53HRqjFSFCCo3tDvorjI1RxvOv3a4ZE/kbvbNuQxWdeWBZ1iJ/L6dBVl44JDHl98uGv6NaHFykj+YxOec4qLy9dU3J2aNnWKV02H44rsW3+OOt3R+5kh4wDmyXXkC6vo6LBmVJKnv3Gs8fbQq4+1kMrJydHBQUF8nq9gZB/1KhRTA7fi8RTb63e5pH5N4S8V9503zM9OnwTQN9AT60+bOLEwpi2W7fpcNTGqsMhpfab/kZ7QY61R0k0Tlfihg41mLPHhX1MbY11/z+HQ0pP6x9+H1kDopbxy5c/sf0+bUJ/Szn2XmsjC/Mf6MowINyxBPemyUpqGwq5ZVf0eMWRkh+2jOBjCe4VVJjaNizMne7Wjn2hSZHZYEp058uZYQlpEpLDHku1b2DUa8I3oGRD+Aah//8dtW2Bl+e0J+yxtFeGsgrkafCGNPTMn7dUNMo9eFhQ4GQ/luakUe1e22f7Fbc91kYjZFiR25Ub5fw71BihB1WmqzowxNFVWKytFaFxZ7QVCu31FZk1kN5yMLVD1/HA7ISwvRrDHMv9XfG8MefZiubj9TtCtjPDsLLxI0O+YTbn7IrmuZ/+3vb7o1+frUtGt/WipMdWmA8hjvitAzMkcif7A6rAc2XqfP106Qo9/4u3tWhx6L/nf/G2frp0hW59eFHgujLDrfrGNDW7ilRQMFqbT0y8ME6yGWJZw6w4VjZ+pB6798ud/Nw10RZopaamavTo0YRavUy89NbqDkZd53tThvvy582fPxkf70UJCTIMIzAsGEB8oadWH2bUbJHUfrB1sNYVsvqaVcng8L2fOsN7qEIu14CbJe3t7D4GZifoSE1LmF5lDuXlunWoIXqwYRuu0drDJdGdL/fgnMAwNG/dKVsoYC3DGu5ZgyCn0ajyvdG7DG3ZXaeRrXnB5OHOwFxE7QUC1vnKdhzs2BvyZeP769PNJ9otxxqcRQqCAh8OgnoEDcxOkNT+sQSHGj5v8+TgcyL5J1H2+ozWgO5QyLlvr5xIPQat4Y//ZyPkWC4b318bPv+i3TKs5z5Y8KTPmakOuXILJLV9Czx5eGJM5z/4WNpb0W/LwVSNTOjYNRZ8XrYeTJHkjWmlQfNYVmxqafc6HpK2Z3FnGpjmh2Zzbq33P2k/1Hp/9Q69t+ZgYMjXf7/4RCBYMD+YP/fSMr2wZIU8jYb+9PH2wP2R/GXtrsDP1rmVrBOK02PrwmReG8+9tExfLa3UTZNaF3oYOj70vbd1qN+bG/P1wZodbYFW67Xw2f4Mfba/9TXQZ6iuoWtWWmxoXUnR/NlUXdeixBl3SmtWciJjfL35z//8zw7/7eWXX67q6mrbnJLDhw9nLq1eKFJvrT6h9osObW7tZW567qVltvfSeJCSkqKmJv+XgomJifJ6vTwRgDjCJ+k+zjpXUDjudLesvZDMxq/1X3LG4JjLs879FI7Pkazbb3DHFGiZYcqvfrPX9qY6eXj4Obkcjrb5kDJd1fdbw4DtRzOihhwJ7nxt2V1nKcOpoUPD96yxBgDWIMhVWKyN2zxhgyAzgNh6fJjt9kuHtT9uLjg421yVFTbUMMtcurze1vMoUn0FhxrW4Oy195PCBkFSWy+qV99ve+yDchJag63YQw334GH6zf80tHvurcdy08y8dgOZ4LDptdWR54oKdyzeupqQOjtz5sTrwWVary/34GERh9Saq+/9/I8pQefFaauzL77YGdKyLc1eG/OxBK6xgym258sNE13tnntzsYPg8+JMjG1Y1KCchECdnTlzMuw2sSwmEc5lE4ttv8cysbZhSebNwCBSYOWzrBgXTVJSUsT7mGPrwuRt9gfUwfMw+tLydTYxS2cTs+Q5XBnyL3BfSp5tiKJ5LZiLVHgauy7QuqCk5ku5l/j/P8/M15sf/tcfOvR3Y8aMUXJysi3Qcrlc6tevH720eqlwvbXuveXaXvlYP/zwQ3344Ye224rKvq6LLn2ow/NbtVfGgQMHbGV85W8f1xMPzNYTD8wO3L7gwbkdCrQMZ5ZanFk9Vn/JyclKSkpSv379NHjwYLlcLp4A6NPKy8v1+uuv6/XXX9e9996rb37zm3rvvfdi+tuWlp75TEtPLUSXVSD/PEVS6PCk1smnk0f1yKTP1p4022tcGplQE2hAzx3v0bLN7pC/+WhLvQoK7OGJKzNbr77lsIUYwWGAp9HQK+869b07swMT64/rV6/9+0N7uOw+dGxxQUHuz4Ib6b9dl7dBqpkcNghq7RH2q9/s1W0/GhYIG8ePSNOBGm/ISnjJjVuNxuSxjsLUPYY1PNl9ZkjE4MysLzOk+WpxW0hzw0SX3t7otR2LWUZwqOHKzNZnlUmSGsP2BjJ7UW2uzNbtVzsDxzJ7kr+MqlNtPXbMMsKFGr/9sxGx15H93OdpuCptx7Lh8+ZAnZnnwwy0gsOm3/ykIWwZ1mN55a163W45L2ao+eaq43I4pMSmXfPUOrQ1uL6Cz324QMtsuL62Olc3XVQZuN+ssyM1LSFhUHB9tXcs5jW2dHm9xuYlBHoEDspJaKuzYxUqKBgdMdAyj8XrrZkcqZxIzJBuxaYTOnPmxOtpaf7ena0B4OLOBFqRAqRYfP26s1q1sW0Fz2jBRSySkpJ0x5yMQHgZvFoic2xdOMxVEVd+ujPk2vH6DPnS8pQzKE+5gyMPH6w+vEmO/eGvX3/QZd+vyxl7iGyKJYyNxZtvvqk5c+b0nhPgzpdySlXb9G5cXC/p6ekqLS3V3r1t39c5HA7169ePCeJ7sVWrVoXcNn3yGP3Xb/7UKx7fgQMH9Oyzz9puu+KKKyyBk3/VwgVT/b8/99KyTs1tFVyG1DZJfVHZvSqSNDvK39903zPtN4JdmWp2pvVYXWZnZ+vEiRPKzc1Vbm6uzp49q6amJvl8Pp4I6BNef93/3fz27dtVXh463UZtba1WrFghh8Oha6+NHu4bRs98GUeohXPg0NCsph59BGbgtPS9BD07ry1wyu2XrRsmtmjD582qOtU2HG1I2h5Nzqu0Pdt2WYIgd1LkMGDbgSxtP3rSFgY8cE2y1u/z2YZwTR+0QykZdbbAIWPQQL36k/qIQYDT6ZDLacjrztc//LjWFp7NnuRS1Sn7sRSm7lFKhsdWhiszW6++P0CSx98ACjOPUiCge6tedy+ZqLodm0KO5UiNoapTLWHLkKSK6n7aWtEYNjizlrG1olGvvu/TLWWhx2IGW4Z3vwpz3EbwEDp/fbklNUcMTsxyHv3ncq0MOpZBOQmqOtXSGmztUX6qM6QMV2a2/mlpprxeT8QgyCwjIcx5yUusC9SZw1Gt/NQ9RlZStYLr6/PEsXp5WfuBlszA6eESjUzYbgu2JGnD56c0srVnVnAZrsxsPfHLdHm9jWr3GvNJSz8cpEX3ZAZCOrPOJGnnsU+NtLT+YYdoWo+lM5NXD8pJ0P1XJ0taPy+k1d7FDh06pEOHDoX/AN3SooGpCXK6EiIuDhHORx99FHG+jZMnT9qum0iBG8FW75c2+k6NLU7WhNGTwm+wv0ZLH7wz6j5yB08MNCrD+y9Jm0KCq3ChbPAqhrHyNRsxh7zoPuawQ2ugZRiGBgwYQC+tXu7pp5/WU089Ffi9Nw1BtPaYMn344Ye2YKs7fPTRR1HLuOm+ZwI9Gj/dVNHrJ4l3uVyqr69Xc3Oz6urqlJeXp5ycHNXU1BBq4YJUXl4eCK7eeOONmP/u1KlTeu+999oNtXoKoVYf5x48LOoQRO+hiqjzaQ3J9qq+A+XZ5mWKYHNF7G8i1gDlH19JsoUO1oZ6JJ8njtW3XvQGGhThgiBrGPAPLzTbAhRJmjLCqSkjgp9K9rDpsZf7RQ0cpLZeQdsOZGlXc55GZW5v51jsZfzriuHauO10xHAuOKR59HmvFt1jP//RjkOSdreUaMFL0evLWs6r77g1bmSmSrIV5ViCAq20hJjqK/hYnn/Ufl7s5YQGWr/bOXLDxm1tYVN7vRrCnRd7ne2Jen0FB1pOpyPssLMFL3r1XFCwJfl7OgWfD+u531px2haWhZORmqDquhZtrWjUE79MDzn/kjQ6v0ZtvTMjP1e6akW27lJYOESFUaYMPPxphqR5Hdjjs5oxY1PEe5ubr9HGvcVh78tMdQTCS4KtXv6eaHlPMcP7aMznclfISE2Qz2dowiUjdWlro9DldIT98kCSbeXOsvEjQ4biNgS9pl11aYk+Wl+hTzbs4kSfo8SGSilzQLvbDRkyRBkZGYFeWmag5XK5VFhYSKjVy61atcoWakn+IYi9obdWhvOEzrTkKzExUQkJCd0y5CfDeUJnHQMl+SdST0xMVENDQ9S/Wbd5d1ytduhwOALHdOrUKTkcDmVlZSkxMZEnAC4I7fXCipXH4+nVx0mo1Yf5Vw2MHjL5HMmSGi0v/kH76GCZ7Q0xcqe7tXW3t0gdmCjebDBuO5Clf3zF3psmlkDL7KkRrSEZaHi2Bih3XJGrkantB3QZgwbqsZfbejZFChyC52V5/Nnjuv2v0nVLmdo9Fne6W0+tGK41n51u21+ToYwwDS2fZf4WM9iI5VhcmdmqqO4XCLTMxrnPZ9gadD6f4Z9TptmwhTSxHIvTaNRu5xS9/KZha0zWN7S0O+xma0WjHn1euuNLJSrJropajnvwMP3T0kxZA61YQi3zvIwtLtSie7KjhsFmff39j85GDbS8Pn9AZL326htatOBFr37w7ekqya6KWI7TaFRqyWV69HmvLdBqr4FtPl8C57+dOnMPHqbfrsvbYPbQCn68iOGN1ulQZqoItuKAp9HQEw/M1pHK13X71eE/Im3ZXafjifO1aPHbEZ9vBzY8Lc/R15Q5aGbIfRv/8l/KcktS6Ap60yaPinm1sHc/3qn1m3fJ65PGlYxqdw6bWdNLNWt6qa697buc6PMROmRkaMaMGdq5c6ct0JKkfv36MUF8nIRaoc/R0b0i1BqVttr2e9XZYkmXdmsZkrRBX75gz3dzc7NOnz6tYcOGye12txvgAb1NZ3thxSIlJUXXXHMNoRbi16XDfFpTGf5S+fhAmsaOjTnQur/djbIK5Glo6tDKh9YG47YDWfr2G8m640uDNG5IQ0gg4DQa5SostjXSo4VNtsZ9kr8n1daKRi2o6Kc75gzTbdOr5auvCQkE3IOH6XdvHdGS9Vm2HkfBDaBoK1u9+o5bmyuzwx6LeRxbDqZq6e8SAqGGNXAyV7lqLwyyHovUtniAKzNbzoxsbTmYqt+85QwM0bTyP/b2wyDzWKaMHbnha2XHJ0v+FcDMlcG2H83Qpn2usJOpt80xE8uxSGOLCwN1Fuy11bn6zU8aAkMOO2NrRaOu/5ZLd8yZpLFDzoaU89t1eRvWv+OZHK6XR6RAKz3pjDKST6u+MV1SmuobWloDtHRNGD1J8683bCtu/vbPhjZXZWnjC6dD9t2R54u1ziaMHqGJ/Q6ppNg/vva195OklPTW+up4oLXlYKrGDRkWcru58lu4VeGC/74jKywG+5/f/Y2Ofr4lwmtRpvITOjb68ejRaXr3pWT/h/rPfVq/r1mGYWj2pCQNzk2QdKbTwZZ15cVwZt/9jD4rb/vmu73tb7rvmbj6prw3cSc7tPCxeara0aRtK18Mu831V31dRWXz5HI69NOlKyLuq/bIKtUeCW0U56VJTS3huxG++fMntXJ1uW645/uBxxOuV2Tw6/uixW9r0eK3wx7Pic2/kiQt/OEbWvjYPM2YUsyJPg8KCwttK6iZgZbD4VBBQQG9tOJE8BDEK9pZBbc7mM93x7CJkj7lpAQ9n7o62DIMo8v3C3SHruqF1Z7k5GTdcccduu666wi10Pv86jd7Nf/6Ee2ugDhlwmCtqfwialhV5/VPxB2NdXL2iBek0ajyvR0fwx6uod7iOaW7brHPiVK+19cazrQ10t1JsYcBuZltgcTS5fVautwVCASCy8jNHGabr8ffe8kRU6AVHNRI/hAl9Di6Zslh81gkBcqxl3Hu5bQO55n88jJ/Oe7UafJ5W1rr6Gzrv841Qs1GX31Di63OQtXHvK/g3nPh6swvuJyasJNuBAdaUtvEz2Py9wQ+oK0/PCEwFNUcArV0ebhyWhcE6MA1HOlaDpQj6+pDhq2+Yp3Xx5wXaMGL3pDH7K+DqTGtUGgGWp3tsZThzJQzNcr4w+baTl/L/qGg0sDs9oc4xxJszWinkeRpMmwhhtcnfbS2XKvX7wjcZg41W/jYPF02sZhQ6xxCLUkyYljW3tVNo1M+WLNdLZ5j+vDlQTIObJanvi2Ev/IR/7Dk337XoWTLgptpKVLWwJmaOm+lJOnD5bdKkhL3r+1T588xdLzOHsoNGXp5vqWnp2v8+PGqqKiwP77WhnJmZiahVry+RrjdumTUEG3bdZDK6EKJvlpJsT0nEhMTZRiGWlpabD0gO6OpyT43sM/nk8vlItS6wFh7MHWFvXv32hb/OJ8aGxt19uzZbi9n3jz/FB2TJ09WUVFRrz/HhFp9WII7X67M7Ha389bVaPLwxMBk6MGsq8tFC75iWd0sachoba040rmLubWhboYRCe78sD1/OtpID2kst8574mkybIFAMJ/PiDqXjqfJCAk8Ao3YMB/Il/3xdNjGV1ezltOt8yY1++RMkJznUIYr0X/epxYe0vZjOTJ7OXVmcmTzerDuK9y5sK5CFutEzOECLauLcrw6UJOk2rPpHXq85vF3VuBabDTCHot5rB25DqxD6TpSByHnthOBVrg5yrqLGWx15nUqONiS/CtTmXMktVdH877xXMg5MUOvhY/NE3qeKzNbOn0o+v0Rr32HJhXWyjhwXEbtFzrrGhKyzbS/XqiDGxbabhswYmbbe4j5ZZUz37ZfnB9jxoyx9dKS2gItp9OpQYMGUUlxYuHChSHzal02qbhHQi2j7piUd+HVcaLnoBJ8qZIGx/b5x+1WUlKSUlJSVFNT0+lhgikpKSHhAHNpXVjKy8v1xhtvdGsvpgtBaWmpSkpKJEk333xzXB4DoVYf97NXduv2q4e121tr8nCnqk4ZravJ2R07VqGCgtGRG/Su6vtLs9e220vLne7Wqys8RV5v8zlF32Y4YQ0jfM1GIIg41yDAbJhmOB2BOaSs5ZiN0boGf6gVLtiyNmbNYYlJTfvUr1+aDtUWdEuYFPxYLwROp0MDM46pxTih4v4ntPbQhMBk6B1qgLZOfD51yGG1tJzQ6LwT2nl8pKQ023UUGoS2H9JcPa1YV5QVy9scfhhlarJD0g0amXJWp8+m6DrZJ3hOTY6/hmjwsZqTXQff3tXHZjsPMfS06cnr1hpsmXX21dJK3TTpmC669CFdNPUhSdLcuaHzJN188826+eabtXr1ah37+O+Vm1KrpEtm6ppvnOZNrYd8tLZcM6aWtk7EXi/fUZfuvjzy9kvecem/19RLeltXXVpiG2brSpTKRiXLqO3aRnNne5ZVVVXpnXfeUc2ePb2irvfs2aM9Jw+q6ehBpfTCa2HgwIEqKioKNLSDe3z069ePXlpxzp3SPVdetKHlK1eXa/kv/67T+17w4Nx2592TpEfvPbeVzQ6uXRJyWyxD4vPyYkvrzF5UiYmJysvLk8/nU1NTU6dWKgwXauHCUV5eroULF1IRYZi9sEpLS1VaWnpBHBOhVh/3ylv1uvvG9ocgStLsSS69vdGrqlOtY/stn9POnlptpORMD2mhxhpoSZJryGit/0NDTIHW9CljeqzOYvlQ0FGHP/2BHnlus6R6/f39c/S1r/0fLs4Y/d2Cxx44tPfoYsMwVLV+yTnt6/XXF+u3v10swzD0xk+/pUsumRKyzeIlS/XH5f8hSfr97z/jBPRCmakOGbVHpcSsrm3IpLulrCiTO+/vwJtvSI8tQ56UPJ1NbGxdoCMy67doR5qGKDVN0rZVys2cysnvIbc+vEhS53oL/u3Dz3XZCooxvdc6HTHNU2jas2eP9uzZo7+dNVXrdqzV+j+vi7xx0FCe7rDlSJO2HGnSpYU7lJLa+66FjIwMZWRkqKKiIuwQptzcXEKtOBM8r9bXvzbLtvpoV4kUaK1du1bbNqxRXr98/c+n/h4nbneq3G53YJvTzWd0pPEjHThw4Jwew+hRo/Xpru0R7z/SeECvvfZah/Y5MOOs8lPbelO99tpruu2222zbdCTUqq+v15kzZ3TxxRcrNzdXtbW1nQq1CLQuXARabZKTk/XlL3855PPjhYZQq49LcOdr8wG3RmXGtmLg7EkuVZ1q0dsbvbIOYd918LhGuE68np7eP/BsKUzdYwxJi+2bXVdmtrYfSdfGbUdjfuOfMbX0gjkPGYXTlJDwqgxDjOPvoH/95s2L/7h6dJfs6+abHwj8HC7QkqSc1AYlJCTIMAxt27Y+4nZd7bmXlvX6cxGpJ5a155nZa6uz2mtImMMcv/vHURrZ75SaB14ScVtPg394ciyPZ+nyei17b3jUbcz9xfwG3BpsmRyZ+ZIO8aTuQYEJmYeOlzZGXzko3LxNHe0pGusCD8GChx52hCtRciXGXubfjFojSdq7bosSHGla//76Hj1HOQPO6G9G9c5VyTIyMjR8+HA1NTVFfC93uVyEWnGuX79+3br/4DkTt36yXGvWrLFtk5vrVr9+busrkrTvoy56BO4o9x3Qr3/96w7vcUBa28+//vWvQ0KtmNstCf5pCVpaWuTxeFRYWNjpII9Q68LVVSv/mT2aIunpnk7mRPHh2zQ396lzTqgFvfxmnX78zxN1cs3KmLYflJOgB65JVtWpFlWdatGRGv//Z099Mm90/hhDkmINswJvn4OH6+Uftz9x84tLVoQdshSp91RwEDB9yphAGBb8oSHavoK3NXuKBf+9uf/nXlpma+Cb89w888Iy/duP/2D/gOuU/unBL+tLNzym5haHKk+k6LmXltkaTIsWv61pk0dpxpTikBWuzNv9w1522fZp+nBdhT7ZuCtivU6bNEpXlBUHtjN/D8fcJtb5pMzH+ORDX9EzP/69PtmwK/D7rOn2NwLrql+RGn3WCfaD5136u++tDtwXXMbK1eWB8q1/a92ftSzrvgIfIjMTlJF8RiUFUl1jhv76nhf1yPwbAtfMytXl+mDNdi1euqJD80driRbjAAAgAElEQVSZ+7Y2hnMzQ+eTMocmDJk6v0tfA8zhAuZ+y8aP1OP33WgLjq1zPoUTvPBB8Bxa0yaP0p9e+07Yv+3s8fh8hu15Yj1/W49k6eO9mWpvcQCXM/pwZHeyI3CtexpiWzChI8OHOxNolJeXXzDdxXsbcxjgoEHXaNCD0Zeu3rBlV9hrsiM8TYYygq4Bb7O0blejbruqIGTCerMx+eE7mbq4qEC//JM/HLnn2tP6864Nyv74R5Kk0a3H4TQabfs9FwkJDjU0eXv8HKX7Wnrt9TNw4EDl5eVp69atEbfJzMzkiYaYrd+wQZvXhi74UF1drYKCgj5XH6dPtw2zr6urU2Fhodxud6fn1cKFpysmhZ83b15chEJ9Lbgi1EJUWysaY55bKzjcCl35q+NzbrjT3dp8wK2N247HtH1ww/qR+TfEtH3wXAXmz+awkWj7MnuGmfMCmCHGD37+lm2eAOuwyJ8uXaFLRl+s/32lrSH/5CNz9eQjc3Xtbd8NhCteX/tDGhctftsWCFiDLTO4WfjDNwKBUXB4sED+5dzDLfk+bfIovf3yk5Kkhh++ofc/qdDkcaMiPiZzm1hZH88Ha7brkw27NGNKcUigJSnkNnO+seL+e5WeVK+q+oE6Ul8gl9MfMnh9/p4V5op74cq07nvW9FKljb7Tv+8kR0gQ4//ZiNrYrW9M05oD48JeU2YZqckO/dtLf+jUhPWRQpFoc210lhleBQsOtKS2azRcsNVeoCVJM6aED0k/Wtu5Dx7hVg81A6Lg+6yT+9vOaYzz62WkJkRdCbOzgda5fGAj1Ooe7iSHrr3tu4HrNfhLFDMYciVKn5Xvtj2XLptYrHc/3hl4bY+F1ye98vwTWvfZjsBzy+sz9NnJkfrFjgw5zxyX88wxy1/412QxLr5duyVVtvYO3O3IkBKlqsP+1+btalst9+pAWZGv4fXbGjXl0llRH2s/SRfHeFw/f71WS5fXR+2JZi7q8pfXQlcpbf7olXYqzv9fwtjr5MgaYLvrs53Hdf2Anrl+srOz1b9//8gfup1OQq04FG6y+NvmXK7Xln/cZWVYP39aRyOMGfN/I/6Ny+XqNXW0fbt/yKI52XR3SE5OVmNjoy3UMgyDEQ4I+YzUWaWlpQxbJNRCPHv1Hbcml7ZoZIzDELuKKzNbqWMm6lvzj3R6H59uqrD1yLKGMWYj4ZH5NwQ+IJjbLnhwrmZMLVXZ+JEhE1gG98wy9/n4fTfq1ocX6bmXlmnBg3MDv1vL+GhteaDcJx/+iqS2HjxXXVqiWdNL9afXvhMIV9QaOAV+bu3VZd720Xp/I+Xa276rP732HS18bF6gV9YTD8wOBEGLFr8tl1Na+Hf2Ms19Wv8uWvgTHJpZH9PK1eVhg7FYAi17QOSw1XNDoxF1v1nuMzIMhwqzjupIfYGcifY5YYLDoycfaquDG+75vq3X1hMPzNbipSssIVZoeBUuAHEnt4Vg7mSHpk0aFbimzJDyqW9+OTAZ69M/+kOXhk/dMdz2zZ8/GfaDtVmW2YPK2hutM4GWy9kWDrTX46uzgZa1URA8LKyzE9Kfy9x9nf1bp9Govet+oT/+8Y+SpLGDT6r2xGFtqxuhz3Y2asLoZO34+Cf6cYW/y3m/VP+31o6h4zu8QALChQ4OVezeo8+27Q4874OvPW9z6O3mc6mh8Q2dPr1fE8dEb2xOGnFS22qSdf3M6wJh+AtLVuijteW2FSwjDdcNfs1curxeTzwwO2qZV11aYgvmrM/Zx589Lndq22P2eVvkPceuXe31gnQlSh5JV94WOuQ2N/PaGF8DfAo3ZPf6mef/2hk4cKCGDh2qU6dORQ0hBgwYwBPtAmCdz6q7vPjii+ccMgXLy8uLef6qWBw/flzHjx/XiRMnuj3csgZaktTQ0BCYOB44VwRahFq4QPzy/7n143+eqLodm85bsOWtq9Gjzxw/pw/P6zbvDoRSZeNHBm6/6b5nQhqYwQ3qBQ/O1WUTi0NCrdXrd9i2e2HJCh1cuyTQ2H9hyYrAUMNH5t+gTzdV2HpvBQcRX7n/+/L6/GHRil9+S7Oml+qfHvpyYCiitXFiNmiCQ55PNuzSytXlmjW9VE8+9BXdcM/3A9tee9t3A8PpzDKtw/jMMG3GlGJbqBWp94y1/GmTRwVue+bHv+/QuQm3f3eyv5H24ov//n1XWsG3JLdcToemTR4VsYdDXWO6slJOa/sXRf4GTXP0XjNm0GfWwScbdumDNdsDvaiiBVrW4YyRghRPo6HJ4/z1YvaQy0x16IUlK1Q2YUwgPOtIANjR8KkrmKFiuMDquZeWBUKiF5as0KebKkKeJ7EGWtY6ta7A9NHa8pDejh0NtFyWRnNXL+JwvufuW7q8XpozzX5jSoFUWKKPl9dLiVJdQrKON9fq1D5/7x1/zSXr7P5ctTfUEh1osEYIQp1Oh5ztfHKaMDpJJdlVUbcZU9CiCaOTQm7/wc/f0oyppbZgKxrzNeaJB2a3+zfm66LXZwQCLkl67N7ZEVdn7fBriuWLE3dS9IZm8GIJ1lCuvSC6oZ2ek9bjO18GDRqklJSUqKEWLqDXiJTuW3vT/Kya1FSlpF5eD8ePH9eOHTtsv3dXqBXJkCFDAuUCnfXggw9SCYRauBBsrWjUQ/9y/LwGW9/7n6GqPOYNGT52ro3/j9aW2xrKZtDU2R4i1rAsuPGx4MG5gSFU1nIvm1gc+HCSkZoQaOib4Yor0R8ChAtXIrnhnu/rzM5XNGt6qc7s9A/PWLm6XJ9s2KXczIRACLFytb3rrVnmVZeW2IKWRYvf1qLFb0dtEFl7WllDsViGWb24ZIVeXLJCj907W08+Mlcup0PuZIcSm7c/8P7K3y82DCOwguCTj4TOqeVpNORKlHYeG2ELNdq7VqzDh4IbOd7m6IFWpF5A0VjDHLOuz4Wn0QjU73+/+ETg2urqgMXsZWgNg8yfg2/7aG25bahuRwOtcIFT8LDejgZamakObdhS0eWvS11Z17EOr4zWCPf31qwPvE7PvvbmkN47DY2GnniA97GelprsUMqxcmVNn6lJc5ZG3G7j8juUsqZcqRfZh/yt27xbQ6bOD/SOtPbijRRoBf8cLPi1Pfj3rg6DF/7wDT3/i7djGtrrdDrkTva/5sUa5PVGGRkZcjqdmjBhQtRJtAsLC3mS4Lw4X6FSSUmJSkpKzsvwQ6C7zJ07V/n5+VREHCPUgs35CLZcmdnKHDNRj35njypP+rtvW0Ofzgqej+Dg2iWBxvK6zbttDfKy8SMDH+Q/3RTaKLb2JrGyDnNct3l3YBhiuPm5Qj70th6jtRFqNsw7EqKYwxBN1hDI3Kc57NDa4Fn42LxzDlvMIYzlO3ZHnSelPUMKChY7HA45HA7d8dB3NLZ0ghY8ODdsDyf/cL/WUCPGyek/2bDL1uvLOkwzeKJ+a/jSkUDLbIBt2b6rw5PCx8ra288MUc8nM5Axw6dH5t+gF5as6FQPLTMosgZY5jxh1mG8kUQqc93m3Zp99zOBnnP+sju3wqLZG607lmpvjzkELdJ5uPG+5+ROdsjTaOjJR+YKvVvWoKtiuP/VdvezaPHbumNORuD3AQNmSpKW/e53Gh40ddOy3/1Oc7/6VUlS1boXlTDkEn22synQU/d8MV8bzQUzgt+nuzpEW7VqlSRp5syZYe8/uHZJlwx7jiYjI0PZ2dk6dCjy6qUOh6NXzYGEczOhdBiVAFwgxo0bRyXEOUIthDCDrbtvKtH4MR7V7djUZft2Dx6m3WeG6Gf/clxbP09RZqoR+NB7rsGWOUTqsonFgaGB4YYWSgpMjh3coyuacB+KrYFY8EqLYT/4pibYhkvVNRjKTHV0KNiyhjXBPbK6gzn3l9mba+HffUW3PryoQ+fKHNbi9Rny+Qz95r0TOlw7QDVn09Vw8JD+96ODevfjnYE5w4J7HcQ6SXc40yaPsg3TDHYuPbRM3RVoWXsemj3/zIahec13F+v1bj6WBQ/O/f/Ze/P4Jq577/8zWizLluTdeGP1jlltMEsISyApaUlpSXCbS0nTtITbLG2SNmmfH3ke3KehTUKeprckaXOzlIabmwQINw6koQkEAsSAsTHG2HgFg/fdlqzNkj2/P8YzHkkjaSTLtgTn/Xr5ZWlmzplzzqzno++CV98+7LGgBQgLvg8+sdvGrVeo/5u27cLZkhqbfR559zeQy5jyVisN46BtllHWrdK+/UJ9FHKrdFXGvm7+9vwA+/aulfz+2It6/OyPjUV7HazigFHLSKWC8nn2S4J/s2V5D5fE5Z7HXgcA0H1XHILh5uXlIS+PuQa+eONPAC6C1iZxFr7OkoXwr2NWdKq/8LbjfU53HX/7Vx/2FejwkwfC8bO71FCrZzpsl7z4Z8z9fghOXTVdWaBx1xrPlZHNBssGlweAb92ZjnuWT8O/Pv0TJBIK1Q1Po9+gdHBNHC8LsIGBAbS2tiI+Pp4TtQYHBwXFLO6lW0ZeuwOVkydP2ginOXNmkkHhQSy0CIFMZmYmGQQiahEChZzUUJyrGBQtbD3zx05s3ajGtrw1MDRd9ygzopCYFZI0E3//n4GS/yrozGFjaDGiDnwmbLFWWedKqznXQPvJJzuRPFFYgc0/f1kwAxo7oef/qiwkIPAzxz332ANOJ8g2IoqdBYmnwtaRd3/DfRYbu4kfF8tbWGuvFblZYzpGWgONsyU1kMkYM1+rlZmkeJIxzBNBi7Vq42ec9IWgtWvPQex48gHMm52Gf532vQscX8Syj+0klAzB1/AFW/457Y2gBYCz8vK0/znz0m3GVxNCcVYnViuNrMxUh2QE7HgtX5SJB5/YbTOWfNhxFHJ/dFaGfyxciWb2rpVsfXyrNLYedmzcZXIlBA5Hjx5F7ftXnK5PjWoaU/1ZWVkuMzx9WjKIRbNkUJo6AUwTdV/WhIx+r7/wjpMtmayKcrkUHVVfoUNgi+TFP3NrLWlvgQYAHZ005s1l3DGvXr2KjptXkRzD3lcoyKS2P3A0X6/Axy1FWJazAnPmzEGvAdC1FKHToue22VegQ/7Tm2Ew0z5JpMAXzFJTR8MSqFQqREREOFhqkQDWtw5ff/21U2tAAoEQuMydO5cMwi2AhAwBwRX7CnRYseki3i+MRNSSNdBkLoQycYaosnJNOJSJMxC1ZA0+uhBT8vj/7cTfD/bl2AeF1xoY6x0WxppJXPsWz0/1aCLIF7Q2PPISjGZGzNAZhm3awBcMWBcs+/3wXcNYKy2+yMWyfFEmjGZasH57oUATQrkVadgJPftLd/7TmznRihW37H+ZZuNLifl1fFlOGvRV7zkIYfzvY7VKar34D/z0we+gRzvstXXUZApampDRCZt9LCT2O5u10lv27D2Cl984aPPHwn4fD0GL3Q9f1BGKKeeJoMW6+7LxwVzVaw8/eDW7T/51wx7jM0UV2LRtF6bmPsz1gXWZ5Pdtau7DmJr7MDZt28Vd20LXrVAZft18YZEVtPjb2tfNHiv2nuGq7/zMq4TAJDWqGd9OO+/0LzWq2eM6i6+Jv/G29g2jtc8zEUdroDHGhIej91cp3MbU2rK8B5umX+T+7k7u4jL13r8uA2lTLNzfzKhBTA0ftFk2NXwQYUo55sy5E3l527H94a14eGMaV9+W5T0TcqzVajVomkZKSgonarHu9UKQ7IcEgm9pbGwkg0Ag+Ak1NTWTsl8iahHcnyTKWOwr0GHllibsPUqhsi8BUUvW2Ihc/D923XXJXLxfGIm1D7fi7wf7csqrzS5fpsUIW/ZZ75YuTBecLLMTSb4QYC9o2U6cnb/Qs0Hmn3vsAZuJKDuR3bRtFyd+8SfRf3jjU24Su2BOKrQG5pdidjJ83i6WlxhhhZ3As24krPvhjse/77AtP5OUJ+4XrAB27P3nOSFrWU4atw8xwpgY8p/ezLVxWU4aZ4HmC5dKd4IWwGTmGktQ+BPnqgCMWss9u/0+LrMlAI8sz5yJuHv2HrH5s18+njz32AN48uENePLhDdy5zh57TwQtYNTSa0VuFj547VmHesW47toLWkLXKbufPXuPYNO2XS6FP36cPU9ildnXx17vZ4oqbNbx67YXsBbPT7URDdnsrK7i/BECA8sQYA0VF2zWGhrrkYiUEDF6fbmy0gIAjWaBd+33MgNiS++wT8cxK8u3McDYJCVj/ZML3INUKhUUCgX33ZV1Fk3T5CIhEAgEwi1Le3v7pOyXuB8SPGJfgY5JOz8C4z4QabPNh/9shcWLn3vFuCJarOCCrVuszASTDdTeWLTXoc4T56pgNNP45K3nuIkrP3MgK6KwIhcX+2kInKvCv05XI//VA8h/ejOe/Mn3sOGRl2wEmK/OVkMmpbDrtf/B5+8xLo9ffFOFsyU1XDl796gThRU4VVQjOAbOYAWgE4UVnEUWPxvi4vmp+Nfpai6QPPuLN3+f7twUAcbaiw0sbN9uwFGM84YThRVYszzLoY0AsOv1//GZoAVAsA+hGQ9BJqM8jtUll4ETc04VjR5f+z4Ixe5yVSdrMcYiJrPkeLFn7xEuJh3fGok9fzwVtFg2bduFQ2/tcHCltBeDAMatkO/mwxe07C0e2XPp0Fs7bGJksX9CsEIUKyaJzVDIClJ82DFixW8+bCIJNrYf/zu7b1b44iM2zh/BD0UtKw1raAwA95YD1tAYj0SkhAgJTp06BZqmcezYMYf1paWl0Gg0AIDvLOiARi5DQfv4iygFxWa09tGgKArb1yr8U9SS+ua+KuRSqdFooFar0dvbS9wNCQSC7fvgunVkEAiECYCIWoQxwRe4fIFYYUtosuzwIOFZ6AhZYrAT2TXLs7h4VqzLmP1Egy/0sGUA2IhhfJGD5c/vHEaIgnIQB+wtxYQm6WymMxbWrc1e9GFFrKULmdhDfDGNX6crscjeVW7DIy9xgeFZ8l89gJLLNV5NuNl4XPb188c0/9UDNoGBvaXiai1nNedsfL3F/nzc/eZhnCmuxopF6Yy45WEfnLlAOotFs2nbLqexnsaCfb0PPrEbi+enImdeOixWmuuTt4IWK9RMzX3Yxh1QKAad/ViEKGwFLZtxkgEPPbWbs8LkX2dCVlrOspoKCVLuytgLYZ5eF/bnJ2tt6onARvA/Vi2Zjf/10hcAsiHTd0Kmd4w6ZQ2NhTU0BpeqBvHHje6DK8s1EdznmhOMYP7ic9Mg10Rg7c8HAADH/6qCRdsAmBuA/naESNpAJc7HUHwkAJ3P+/mjDUp0n2c+DyvSMGUKhc7Oasg14X55XPgxteamK7AgI8irejJSgh2WaTQaREREoK9PXLZoNrg8IbDYuXMnGQQCgUDwU4ioRfA77IUtZRBlIzINGzvw4x8mAwCCOyoAawOe+smXWJaThhWLMrD7zU9his1CShJQfFkKi2UISzduw6G//hAnz1Xim08OQi6lcGPkBfQVOga//1Y7LvSEoaJJx2X7+9G3jICpjdvvh//4d7y7qwGbkoGt35kKADj60go8+64K5dVmzE1XYO2sQzhdcAg78wDkAfTNMmCoGKf2/B8AABUWB+XUjNGJwbeM+NFddpdh5ws4tacM//OrOCBsCgDg/a+COCHs5Z91Y2eehi/j4HTBg1g6VIajL80fWXYI//6bk9hXoMOcaf145fEQrk1OpCCcO/EY/vyuEQBjgcf2hWXtLGBtVDuwBly7KtvUeOZVE9eueakap8f1dMGDWDsLaNsYiX0FOrz053ewfu8snC7oHa1/lnAbv/+7EBgNFmzdqHYdJ6W/HXR/G2T61xGawUz2frCwFD/54Rybm97Rl5hjQ4WNjvH+00q8e8TKmyD2OlRP3ywDNW0+9/39wkjsK6jBqS8PYe2sQy77YN8XZ4KWKzc7V9ZHY4Gtl80kaLEyFor8AO18KzVPBS0+rtwmXbmDCq1j982KcKw7MitGsYHinWGfoVAsQtkJxcC6FdqLb6y1KUDiaQUq7HFcszwLf/zNU/j6fKXTYOmWIeaHkD9uHBX1XYmZjHAlH/k2Eo/pAwAYcLJN0sgfxkXQcmhfhg6N+hRkTumDRdvH9dFqpW3uZfYWmFZd36Qcq92PDHif+KbuIuoj2hxfpklWw9uOkivXySB4SV5eHhkEgt8wWe5yBCJqEW4zYUsmo6AJGXXNGzJ2YNP0fmbD6fxS5ai4WI5vLwaAi1AmzsDBL0NgsQxhQUYQrnzyPKIBbFwKdA5p0HiSmRDnzOzDtKmhmDbVCgoUSutHBKe7ZDA225mFzU+y+WpsbsCCjGyUV5uxICPI4UVZJgnGnmPMr8OLZsmwONkIaHtHJx+mNsd9AIA0DBgwAgMj9ZniAagAAPNSNcIv5NIwwGY54xZaeqkRxmZxLiEyeQjnOurypX+kXbMTZ3B9cdouByK542jRRogq88Dd2dhXYHHfrpFxoHhjbNH2OR8v3hhbdKNjbNH2ejTGotrF68uHn1k8FrTGG1eCEite2VtNKoOocdu/fewad7HPWGFuz94jXDZC+3hW9llNV+RmuRWn3AlY/Fh69oId38WQbaN9WXtIPK3AhHWFBxhLXlasEou9tSDrwc93lbeHb41sb1krFnuXPPa6S178U+ECN0oBAMVXzFjH22YhAGA0g5TFysSoZLUeoXsdK4AJ4S5m2GRinxmSxMm6PblU0UAGwUfQsjAyCIRJo6OjA1evXkVmZiYZjACGiFoEv8WVsDVWYqRaLFsQjRs3emyC7/oauTocEgnz4k5ibRBY/F3QkssAmZTiEjMICVq+bK/QWLAWLssXZXJJFwA4ZOVkRSu+YGQfv0pIgGDjhn3w2rMuRSt3llOFxVexIjcLyxdlOoharPUVfznfNbaw+KqNGGLfD0JgsWnbLjyz7XseJR4QshZkrjXPnnXeZlu1d3NnSV78M8Ht6/78AgAdWnuWInnxZq+ub8B9ZkR/FrVs7uUjmQ/VarXIsbCSC+UWwZlrujecKaq4ra109cNqckIRJpUrV64QUSvAIaIWwa8REra6xWbp7m8HMNPp6nlROsyLktss2/JtBfZ97V1b3/37WWzKt7WIMg4YsWiWFC299LiKZ4TAIdjcCatV6TeCFgAYB521heJNsjEu7XUm7vGTQDz10/uw+83DWJaThvxfMlk42YyJ/AyKrHi0eH6qg5WUPX966xMuaP3i+alei0n8drIC2eL5qVwGVntrLFYEA4hV1q0GP6Omt9hfa6w7vDvOltS43NaVxRdf1PrD65/iD69/6nZ/u988zCUeYTMDColX9oKZ3M194+jRowCYoPetra2i+s4PkB9lKvXZ8dRZo7Bg2fcE1y1Z8hUGBwc5MSs5ORnXr7t3R+vpYV5gaJomP3QFOP88Xoyiy8wxDxGZhIB1PbYn/+nNHonhBP+DBIQPbE6cOIFVq1YhNjaWDEaAQkQtgt9jL2wtzxTnSkf3t8GVqDVR5MyUIcdJM6jweQAukoNsh1wTjsLSTiRESJEYKQGt7QCgvCX6Zulph9YwnTfJw6QKWsBo8gXlSFD2dSlV6DWYUN2VioHB0AkXtFjufegFfP7e84IZJllBiE0UIfSrOZtZkR+cni9AsNZch97agam5D3vdD35mR34WViHXRb6QxQppbDtYoY5we2IvaAFApEaCj350GlaKee6tfLISAPDAA44WIllZWfjd734HgIlhCLBx/8TF1ZLLGJdi9hoUao8QRjMtKpMs3wLTaqWhTJxh47YdruhH/YW3AQDBhm4smdGJK9pZuFRldqhrQYYCczTXYKUUSAqpRf2FWtA0IIlu9njcL9RbkRgpcfjhSWeNdmqxtmSJHqdPn/bY9VCr1ZITPQDJz893WNbRWYm2NiZbQnCHOMtCNkkES2lpE67cDPPKdZhAIPiOzs5OHD9+HA8++CAZjACFiFqEgIAvbC2YpQBgvq36PxYLskCk4KtG3OyTo/iaFT+/Wwm6vwN2AdREE5I0A8D4u3zYT9CcMRQ/B2zwZm8Crfsaq8CvxlrzICQSCnHqdtR1z7JxUZooQUtnGMapohqs2/ICdjz+fS5G0ctvHLTJmnihrFbQ7YtvucUKSfaWUawbohDOyghOigXaIJR9kd3W3tXEk33ZwwbIt2+7M8szV9knheqyHy9/QEiktG+fu764GiNfkhZdD3WQDjMjrTh4ZZHT7ewTMLCWHz3aYQxNz4XJ7t6Sl5eH/fv32yzLyho9/0fvRZGi28rei+LV7RgYVAEIFS1sucP++tYaaLxfGOnQvv/zy004ea4S5eergKTZ+KZABwgE29dKFDAkMQljykfj5eOKfgr3+dK/Bt2+K1yot6LkuhWlNyg8/r0pLuN8+Yq2tjbExcWRF7sAZxZ9AgnTq5gvol9PGkf+ABltxra89Vi5pYkMJoHgBxw6dAjl5eX4xS9+Qe7RAQgRtQgBAytsecSQb8WMXosCH57sQ0KEBBsXKbyuRy6XcgHZCY4kzUxAU1kXaHriLJjmpsiACRQO/UHQAliRylbY0ppVCAseQIuWeaizsbV8hRhBi51IF5fV4KGnXLt0uXP7ulBW69QSy1k5V2W8aYOrffL3JcbihTuHpKPul0Js2raLE24+eO1ZQfcWvjWZq7oAxnXmb/uOOD2m7C1NLnUufnrSP6G62CD/Qjz32ANcn9315eU3DnJjw2874Bg83dM+8gkLHsCUKZkwu9h0rBlFfQHb57ToeoQFD4CiKBQ1zhPVFnfCl5B157Pb73PYbtWS2UhIyMK/bVqLmhsHcL60GkrFgGCddQ2DWL/6HpftWh8HrF/tuu1xcRlQd7VDr++akHEmMbVuHUy9VWM7FygF/vx/9oFJKU0gEPyB2tpaPP/885g9ezby8vKQlJREBiVAIKIWIaBgJxTBQ/0wSSc+W8r+U1pIJBK09o1tki+TS4io5YJ5UToMzpBi0SzmFkWFjb+P+7w06cTefKX+F0/FaKahVFCo6phlO5G3up7sezapEy9o+Yvw5w3uLIX4sFZDnrw0qHQAACAASURBVFrFGHmf+a6LrOjDulU++fAGTtBircTYQPn8WGBCdeS/eoBbtvvNw4jUSJzem1nByghwlrWeiB/O+qhUOJ579tZubH+e2fY9PPjEbmzatosbf3Ydvwxr1SUUB8rZeS6mj/Y06pcgUhaF9m49AEcrIKHz3WqlYTBPTka9uCnpCMIQhoebPbqXuQpszx8jtl/u3K3yn96ME4UV2Pzzl51us2rJbNFZJp0F0p8aWoecmeHQyOUTYqVltVrR1NSEBQsWkAd9ALFz506b793d3WRQfEgQrQVALGMI/kF/fz/Onj2Ls2fPAgBCQkIglzMxmM1mM0wmk9+0NTg4GAqFo5HFd7/7XQQHByM5ORnJycm3xXEjohaB4AGbFxhx4JISiZHSW65v9M0yAMv8pj2soAUAlCYWrMsewffw3Qt7tMM2k3q+ZY18jKf97SJoubImcsa9D72AU0U1GDZ2YMjY4XS7R37CXKNsLBYWvuvdnr1HOMssvqse3yVyz94jWDw/1caiiV8H2342GPjWjWps3ah2GjuGjRVzqWoQ5dVmGAdpqHnHli+Obt0oPtPVvgIdJ7byYTNH8tveWLSXE+8ulNXauBeuyM1yKAOM/lAyN12BBRlBzEuil30Uoq3XhLbzwgKRM0FLTJZfe9fDscKOcU2LDHFRKrR1KwCYHKzY7O8bnsIPMB+pccyq+uz2+3CmuBpnS2rc1rXhkZd80veM2D4AE3uvGRgYgEqlIsHiA5SxWmmxbFuvxsl9JIkQI2oRCP6JwWDw33uRySQosu3bt495nwkORnBwMDZv3nzLC1xE1CIQPCAyKhzb15Jx8AVS5e2bYeTZ7fdBLqPcikQTFcNIqaBgHRoVHYRcxMYaIP52EbQARhA6UViBjwreAN13GQtj+pAd0yu47X9fSsGf/34SSxam41RRDU7snQWLNsJx/HR9I5YkTGKJLctnYP1vPGvX8kWZDvHIxLhYbt2oxqbpIwktnMaOYWLFMO2SO1hk8YWRLct7RMWfUybOwL4Cuai+LZ6fOqZjtiAjSHQfgWyUV5vHFGvKE0FLRo/GhXr994zYuDh5AB06A/Z9ydxEtt49hKvf/BWvVzNiV2oUs70nSTZ0hmEAJrT1mmyuWb7gBzBC49x0BZZGjrhvhsbi78eC3W4HAG9+FQyJMpYTSE2xWZxIuHWjGm1tJ5GSBAwMKFBefWvGzrRarZyoRfB/hILE9zSTBD8Egr+Sl5eHAwcOkIHAqOj11ltv3fICFxG1biNWLs7ovXNFdITQuogQKyJD/DfWw/qca+i0rsLseavx1E9WO064Q5twtGSWzbIN2V3QyDpgNMcI1mlfJiWhF0pcQaQiET1mR8FFEaRFY5cUdS0RNmWmUMWIVESgXWAfQmXui7+CmSHBaBuKAqAW1Zf74q8gNUyO2v45ovuSm1CMc2EWVPYIt0sh19qUyYgbwqpZl1HfOAQhiy2hvmTSzVibPoCbbQCQLqpMbjLTLoQBQIRgX+paIwTLxCiTRfW/8JNuFO/6Eg++vBCxEaGCZaZOOYdfvnk37xwrwsHHr+F//ddCNF5XIjpITJmjeGXTNfz1SLxgGU1oEwqrgnC0hN/uWlyDcIDqlJQUpKSkUM888ww90cKWOkQimMXMPiMaEbTE8fX5SmzLC4OhKQnol8PUL2zu8qOttte6RdsrSvBxkFt4WRf5sOcP390QcAy4H2gIZbtk++XveGqh9Y+z8QDi7ZZOwaXmQeiljPCjV6uhB9A6EoKqfGAKaG0Hrt+0QC4TJ2pZrIylpj27HxngzklWaFyWrcK9MeaRZVL8/ZidMAgAG7MBAN+ePipOmWKZ82/T9Isj4uFFsCKhrdiZHVCiVnt7u+htGxoaMGfOHPJSGsDoms+SQRgDFRWO1rCdnZ2IiYkhg0PwCZs3bybClguBKzw8HMHBwbjvvvtuGYGLiFp+xM2bN+nGxkYyEAIsCvkS7x0GGlqZ7xdUMZibOep6E6ZqQmGVbRazH6zqRG70USAa6LsEtIbORny0hhNb7MtoQvXIDL2GO+KuAABefwO49w5eGbkWHf1BKKyKsykTJynHHXEA4oB/fqPBt++YPdqu0CaU1EfblPnBqitYm8L0pe8SUGpMwsKMJDd9uYKMcCAjvBSvvwEsTB8t46wv96aW44twIGMh8G4B8MjGpaNik1yojBU/W1WMfxwB+i6VOrRLuP/1uDfrGr42Aa+/UWrTLuf9PwXzWuDrEqYMv11s/+3384NVp1CTCdSeLUUtIFjGfswAZrxqSwGVwa4vQcKm7jMSmDKffg6HvmhChTMUrc4Bvi5pxaeftzq0y1POnj2Lw4cP0wBshK2JQqmgGKutEZej8YihJZfhlhe0ACZ73dCZ92CUT2UWOIkBGFz+BXDX+LRh07Zd3OcHn9ht4xbJ/ucHiif4n6AlFFCdpbzgMPe5rikeKxbZ/bAQB0ybTWGdCLdhfdV7OH/+PM6fP2+zfNfrBSj4wgqLlnG/kGtaoKJlqC3vwbDSdtn1qiB81jLqpnFdew0ARC1T0YM2+7muvYZ7c2Zi5ZIMh7b+4he/QGjGQ8x92YVAPpG0tLQgPDxc5D2RsdQiBAb28bQMBgOs3Zds7ul0xGqkpHg+KZTRZjwpnUJELSJqEXxMXl4eKisrBc81AtDXx8SQZAWunJwczJo1C/fccw8RtQiE8WZVDtAwYrRyoaYT0TExiI/WOBUbAGBG/KgQ9vk3lZzoEOakzIwE2zJtXVpO1ApTNQGY5UTUGN2+daSMIkg7Ip5Eu+xLaXUTJ5646suPNwD/EDDaCRPZ/1ZeX4JdiDpsGX67WOHMWf9vtDBlWru1WMgTjpz1nz9mpVXi+s8fM35fYiMq3Y4Zvy/uxowtY98Xpv/O2/Z1iW1fXI2ZCK5O6oNBRkHmg6eDkKDFF61uVUGLT0RCNiITF9osq6+vB3pO+nQ/rIUSK1bxMx+y7Nl7hIultXRhOp577AEu7tZEWQT6sr/8NrOC3XOPPeBRX+RSAAoKMn2n+OtD3wmlQulxm72JoeUqoDo/9tSKRelug6+fL612vf78eezZs8dmmQZAwRc2U3poAFSXAdV2y65VAtdsStcBELfMcT91AOpQVvSloKilVFBcBsp4dTsoikKLNhbqEImgtdl4wY+JlZSU5CAKOhO1mpqakJKSQuJq+TmrV692vO4uVCIYQI9Rg/reaeg1heGee9YgebF3k8Hncsk4Dymnotkkx2wyFAQfkp+fj/379xOLLREC1/Hjx/HNN9/gwIEDAeueSEQtQsAwI2FEcDg8KobMuCvJpdjw4/uAk8WjAkprlxbzU5ucWuqwZfYeZoSa0qomzEgA0qe7DmL54w3AyRJembuSXIotbF/4ZVblwGVf2DJ7DzPbx0VrRPXlZDGzH268QsWX+eeZSvzwWxqX7bIdZ0bUS5+udV9mA9DQAnxdMjrGrtrF9r+hRXxf+GXYvgQHid2PFj3aJsyIh9u+rM4ZEQNbmqAZ8XZ0V8YNGYF+vRJBiyEycSGSF//MVtTq/QL19fVIjvCdZa69myGbBVAINoj6udJqHHprh0shKFIjYQKnTxfXDvpmGSI1Ez9L27P3iMfB+YFRAVem7/BA1OqAUjHDa0EL8CwovK9QKijIZXCwZHKW0dKfYa1I49XtSApr44ShFq3vYjUmBFfjizeEk6cc/Z9ehEYzLoQSiYQTtcTfH0lcrUBASNQqLL6Ku4KA4ta5ZIB8SGe/hQwCwefk5eUhLy+PS67iynorKysLs2cHhrQ6HkId3z0RAMLDw5GcnIzs7OyAELmIqEUIKGYkADu3s9+0ACrdv5QsYv4YKkXt52Ebj48mUe16OMGzdtmWaRLd//ztnvVltP9aL8toPSxTKbovMxLYMk0eltF6sR/xfWHLiG2Xt2V8CRsLi58pzhfug163Z5AIWgDQ2/w1+hNTEJYwOjky95wbt/09+MRuLgvg4vmpuFBWy1kxCVlv3SqMNVD8eGIvaGlCKNGCVv6rzl9c+RkCzxRXu9w2/+nNyJmXjgtltTbtmUirJk/Jzs5GdnY2urq6cP78ebS2tjpsQ8umY/78pTh14eSEtq2m0YKF0YzbYWJiIsxms0cuhSSuVmBg73oIAO98dBx3bSVjQyAEEnl5ebdsf1jBztdCV19fH0pKSlBSUoLw8HAsWrQI27dv99sxIaIWISDgB+cerzJHS5LtAnqPT5lbqS/+2n9/HjNfIzQ5ZgUu6xA95iDv3rbJmWh1uwhaBjMN6cqHoKs4jCtH1tisu3oZgGoOlHPmQJq0xuf7fvmNg3jusQdw6K0dNtkND721A2eKKlBYfJWz6AKYuFqBhrNA8f7WFyFBC4BoC63dbx7G1o2jCUWGG69AMpURQ+amj2YITElqRVsbI/rQ2g5QGsZiic0smP/0ZlisNHSGYahDJJMWe0os8fHxyM5mAs1HR0fjO9/5Dt5++21ufY92GEoFhbZeE44UtmKITken1gSrlZ6U9ra2tkKv1yMpKQlNTc5/2GAtysxmM1paWpCSkkJe8PwUISstg8HgZPZ3EsAYYtHoTwKhjvtbsjANpedIrF0CgeAcVuBi/1dUVHDWaL4Suvr6+lBZWYljx45h3bp1fjkORNQiEAiEAMbV5NhiBSxWGpEaatLaJJM6D+J8qwpaZ4oqcKa4GkdPduLB3BAsEoh9e7kpBNcKI3GpqhPrV/v217U9e49wohU/XhYbQ4sVs9i23iqB4t315ZybmFK+ZqyCFsuPl7VC18IIVve8xGRde+CBB5AkB5JGjH266g2cmwUAntucbRZBixUBIWzFx8e73YYV79t6Tdx3++yt40Hy4p8C+CP3naZH95mYmCgoagnFzerp6UFbWxvi4uJIXC0/REjUMhqNDsvk5kYob+4HakbPCUTlu9+B4SRgPMl8tgKYbXvuLp6fiuXzw1B67jg5GAQCQTRZWVnIymLe89h3AjHul26fuUajzfPO3yCiFoFAIPgpliG4nKRZh8S5+PFdEscbfnvlMlsXSGUQBcuIJYX8Fn76PPjEbm78M1QWLFrluM2lqxZcL9YBAMqrD3u9r3VbXoAyiBJsA1/QYoPEP/nwBm4bVwHV+ZkT/Yk9e4/gXGk1li5Md1juqsxEB8L3laAFAFZK4bCMHyPE4/uKgLCV/+oBXCmu8pvjfPHiRcTHx3Pi1sWLF7l1fDdLb4Ss9wsjAUR61a5vr70XyYs3gC9q6XQ6qFQqtLa2Ytq0aQ7B4lnByn4yQFwQ/RuhrIdRUVEwWqWgps3HnKaPcLOdgtzc6BhzsDt/zPtfujAdGG7zunxlZSW6urqQmZmJzs5OdHV1obOTSYiRmZnps9hBH3/8MTIzR7NPX706mudm5cqVJKMhgeAHCLlfeuq26M+CFkBELQKBQPBbLFZxEzZW0FIF6aFWDEBnVgEI5SasYkStzJg+9JnMAA20DnifYpxtL79N2RFFuNibiwGEQqlgtvFn1ydfYh5D7FvGIsSW+gvv2Hw/W1IDpYISPL5CQo4rcSctuh7qIB2qu1Kdxt4SyubY01yK3paLHvdPqC6hPtrDBrofL8baR18KWuP28jdiQZk7XYsZYb1oazsJ3cB1v7p2PvvsM2RnZ6O1tdUmnlZr1V/wo1VAWVuGjRWaWPYV6LxuU1ycEd+18zJjRa22tjYsWLCAW05RFGiadjoRMJlMqKqqQlxcHMmC6Gfk5+eL2k5uHh/XQMsQsOPJB/Daa695Xcfs2bNRWVmJU6dOISYmBtHR0Vi5cqXP23r//fejsrISV69eRWZmJidkdXZ2uhW0WHGdQCBMPM7cFp1Zc2VnZ+Puu+/22/4QUYtAIBACHHaCmhlbB4D5NaW4eQFk0lHLKHckhbVDpTCBpmkMDKqgGwz1WZuMiERGTC2KmxfYbGO10hMe72si+OC1Z3Hsm0p8/vl/YWGmXHCbBZlyrEhUo6Leiv/7zC8AABseeclmG/usiYB7wWcshAUPgKaBqPBQDDhJBiiUzRF42ytRS7iu8e2j9+0S18dAELQAxsrTaAZSo3qxcekggIv4rMWAa352LfEttLhJ9HxmgOXyftQ1KGEd8lwk99ZyVS5wv6IoChKJhAsWr1AoYDabRf2q3dPTQ7Ig+iFCAeLPXKjEPasWTcj+LVYa67a8gO8tCx9TPbNnz56QbG5C+xFjocW3GiUQCJML322RhbXmCgsLw7e+9S3/nguRQ0jwB2ZNTwJFAWEajegyEWHqcW2TUhkMZXAwOTgEYSjAbB7E9YZGNDQ2w2gywzrk20xiIQoKkRrxL3vTIyy42RcE3aDn10ZFRwSmhreBpin0mUIh9dE7pm5QjbDgAfQYHK/tyRC0MmP6cLUzfFz3sSI3C8e+qcQbf8wCeqYh525bd6Th06ehPPVHLJjTg5C8mcjJ4b1E9LdP2imtG1QjdVoimuqDAZjGfX/F14aQvPjWuSWMRdCSy2zjz7HiiVJBCZ4TQq6HQr+syvSdUCqUXJ1KBcVZSlqsNIbi5wC4GJDjLdN3QKmYAYByatEqJHh5ck91OE5S5n9cXBwnRjU3NyMxMRFtbW3Q6/VYsGCBgwuizaNjxIILADo6OlBTU4O4uDjyTPUThKy0vvi6GHv2/gsv/+dRWC3DUKqVkGvCca2jCbNifbTfVw8g/+nN3PezJTWouNiK8Ft8vMcibIWFhZETlkAYRwIpayQRtQiTStyUGCzNmYdpUxOJ6b2foAoNIYMggkGLBQa9EeFhGkRGhKGquhYWqxUW6xCsQ8MwjsXvjH3ZcxNTi49SQeFg+SIkaDrQomXesj2JNdOijYXOHIo+49gELbkMnMujXApUdcyyaRM/Dpin5CY1Y5hmYoLYW325IzOmD6FBDaBpIF4dj1bdlAk5T8LD5zssMxqNkEEFY3MDgoe1QM6oCEL3twHSMIREzUZfX9+EntNVHbNQ1QG4ErQMBiO6u7sdlnlDRLDJoa6bN29O+rXtTR/HKmipQyRM1tAhgRc1TTiUYcz5+u67zwIAlixRo6urG38/xLjS/WSTGirVTW59auIMpnDlkMN9Qi61bVfwUD+zH3oYgYBypG+mG5HoOauDJoRyYXlFORwbX1iItrUxsY5YCyutVgu1Wo26ujpMnz7daVwtwDYuidVqRUNDA9LS0kjAeD9ByErr+OmLKC6r4a6bVY8BiVI5Vo2TFskK0PIhAEO3/pizwpanEFGLQCBw70pkCAiTyebvrkdEuAYyuZwMhp8TrFCQQeBhNpuhkAcBYMRZo8mEuvrrkMukkMukUCrk0OpNY7LeEhtTC2DEImUQhRZtLKxWGsZB2mYiKwadeewWWvxg8FoDDaUCNm1iJ5feuP80aeVICpOApmmEyPUwWMS7SKqD9QAkEx7osqe5FLXdR22W1dfXgxppBn2zbPSBzJtoKyNno7+/36bc6dOnETvJ5/3g4CAGBgYclnlDVIjVoa6KiooJ7SMrJFlDYwE0iuqjNTTW5rq0twbyVtDib89eQ0YzjXW/5bum8a22wgEpY8fxWgFGZr/sejnvP83VyVpEaEKY9u0r0OFgCJMpMXiwEUpc9/t77/rfsH3T8cZZeKw1IZRDpketgYYmxLeWojqdDmq1Gn19fbjjjjsACGc8FLr/dHR0cFkQCZOLkJVWV1cX/vvTQshkFHfdAEBDJ/CTeePTDrl0RIAepG5pUUsTQnHjebvE2SQQCOMDEbUIk0Zu9jxERUVAGRwMmYycioTAQjEi8oWGhsBisSAyIhxKZTCMxlErF01o8JiFLbGw7kT2kzv7DITj/lCRUZDLaJvMi/bCnLdt0plDoTWr0GtUeyRoAUBRYyISNHIM0xT0gxNnjdjbchESO/euVApuk69JpRLI7cR+qVQ6oec4e+xMsVlgXdTisx4UbKs9Yqxh/KGPrDWkNTQGrKgl3K7RPlpDY2A065xO0kaFFjcTVyeCFh991XtOy6/b8gLOltQAAJblpOHY+8+Luk/wha3pU4OwIIMR569XSXGt0v/vvVs3Mu7Vl6oG3QaKZwWs8Ra2tFotEhIS0NjYiPb2dixdutTBWsuZoG61WtHU1IS4uDhirTWJrF69WtBKa/ffDtk83yI1zPHJmU6Oky/eF/hCoTvCw8Mn3IKZQCAEyP2EDAFhssjNnodghQIKhQLkHY4QiEhlMgQFubYyVCrk0BnMXtUvNqaWK2uuiRS0WNQhknFpk84ciqqOWV63i3WB9CeoafNtjiM1bT7Q3IDQ0FDExtq2NzQ0FOhlPiekbsTTP6Oxcmkm1izLGrf2vfv+EXS0f819t28TAOgbQwUnK+5w10e1ehaOvPtvWLOc6d+Nmzdw84aje2KoKhSq0LEF2v6o4A2X7RLqoz2+ErSW5aRh1RLnwZ1PFFbg6/OVNoLWjse/73b73W8eBmArbC2d2Y9vT2fEPH8MFC/EpumMwCrTT0Vdg9KtNetECFs6nQ40TWNwcBB1dXVIS0vjRC1X1qGsgFVXV4ekpCRirTWJCAlarJWWM651wGcxtUJ4z8VzpdXunx0UhfLy8oAc63379tk8KzwRtggEAkEIImr5OVOmTLlNXnKIqkUIJJiXLxlrVUK5mryOv+XJZAhXgdimSRkHNraREyRJM7nP/Mm5RCJxsFqSSBiBMyIhG8mzf4gXxj+pFdYun4uCgiPcdyFLKrZdACPSiY1ZJNTHrPgO1Dcxn6el348FiaOC3fRp0zF92vRx6eeqpZkwlZ/n2mVvPczvoxC+tNCyt7h665Uf4/PCy/j9799CVtYirFmeZZMp052Flv32AC+GTX9H4L7AjgSKt48RJsRECFstLS1ISEhAX18flEolEhMT0dTUZCNCCD5NaBomkwmXL18m1lqTxOrVq7F69WqH5Vuf+rPLcrPG6XeSC2W1zt+WJ/ncyM3NRW5urtP1r732msvy5tA5DuVZYYtAIBC8ficgQ0AgEAjjfKOVSibEBXHx/FQcemuHqG03bdvl9MXZk3rOFFXgwSd2k4NsL5IsmY239p+EOz/DivpunD7IZL4CALkmgvsvNHmJzbgLC+7aNWH9SElJwZ13bselr3YgMzNasE0y2gylSgmETUFlmxpag8mlUOCqj3JNBJSJM5C16FlEJmZPWD9X3rkdlyw3odNdg4w2u+wjbtiuG4ugxX635+U3DmLPXkZMXJ3ejClTMvDyy/8fvrqa4GCZFJrxkNP9Pbv9PuQ/vZlx+Q2iIJNRNvHt+K6lgYYpNgu6CzqbGGGuYMabHjdhS6fTQSKRoLGxEXq9HkuXLsXHH3/ssgzfiovNhKhSqaBSqYiwNUGsXr0aJ06ccFj+yeencKWmyWVZX1pqCdFPx0MqVUFCa0G7OR1y583Ep/vfcrr+T6/vxWv/+T733eIkMYUrpk9R4tFHH8Wdd97pdJtX3/4UALBkYRqW52QAAE6dr8Lp4moMQo3hQWGr18nIhkwgEG6huRYZAgKBQBg7YRq1i4msdEJEraUL0wGMCiTuJng92mGbSTU70dYaaFF1rFoym3MNux2wipgEWIdorNvyAo69/zzWLH9ddN1nihl3k7U/HwAgx7Pbh5GfbrtNWloa0tI2THi/mV/Vd2H9Qy+iZ6Pj+o+Kp+DlN6eOiC1MTDnjIA01P/C9guLEGFd9fPefw1i15HlEJk78ebXgrl1Yt+UF3HPHFDyX66qPo/G0xkPQYsmM6cPs2D4kp2RAk7QM0dEqZN2g8cFHBx3Ow8z4IcyZMwc63TXodIwTYVlbBree3U+8uh2tuilQy5isgJeqBgEw4uF17TUAdX5/HR66wbR3XwFzHOyD37uC73rpa2FLp9NBq9VCo9GgtLQU69evd7m9vVsimwkxISEBKSkp5KE6QQi5HRoMBrz5/hcuyzV0AkvSx69do+enauTPNSaoXT+bKBUsisTRZ73Zc3e/sCnRbrdh97Ewdw2efOwB5vrCQfyzeOS+SQLCEwiEcYCIWgQCgXCLsfvNwxg2dmDI6Ny1SKqMhUQZa5NxiM2YODBwA21trS73wU4o1yzPciv2yKWB/yusq2De9pwtqcG6LS9gxaJ00cdLDGlpaZPW/9zcXBx977eitnUm1tjHhwsRcFHNf3rzpB5nZ658bEB5Pr4UtOyvIcsQkDYzCN+ebQZQhuTZi5C8+H58B0DRVx861L95cx7y8vJQWFiIgUu/AgBQ4UG2509UPcKUA5ga3o6ixnmQSQP7mpybrkB5tdkh+P1kClvNzc3QaDTo7u5Ge3s7lixZ4hAwHnAeZ6ulpQVVVVWIi4sj1loTQH5+vqDb4ct//ditldaMmPFr179v3cBlQGU5U1zNxdHzhuWLMrnPBheCltjnkTOefHiDw/7kUttMhwQCgeBriKjlR4SFhVGNjY3kjk8gEMbMib2zYNFG4M6NHwAA9u/fj/3799ttZRAsm5e3AXl5eQCAX//610iOuInkiEbbjTaOuoa5e1E1ApzbT6DCCg5z0xVctjgh2IxsZ0tqxjQB8UdcxVFRKqhbOo6a/QTT14KWfT0WK5ORUZkohbG5we0+2OvVFTNTVmJqdBCuXfuGm2gumtqP7wZooHggm8t+6C/Clk7HiP3d3d2oq6vDHXfcIToLIktVVRU0Gg2ys7OJsDWOOMt2+Mnnp/DOR8fdlm/oBGKs4+N+uOPJBwSXb//lZsDUJrguPNz1lG5FbhZW5Lq3gI2RH8W8qcLvBjc73VucP/eYY9vPlVYLBoRnr0ECgUAYK0TU8iPCwsLIIBAIBN9MwrW9NpPhrCzv3bnqe6c5iloeiwKMpUugCx8LMoJ4k2ohRifaBOdYvYjn4i+Mt6A1XpTVdKO5S42unlkATJDJKMj0gRsontZ2AFDa3GP8Qdhqbm5GfHw8GhoaRmLS3YnTp08zbRYQtFjRil1H3BDHH2dxtMS4HbI0dAI/8KH74ekL1XjOzTY/uksGY7Ow/16LaewhDk4UDVxiLwAAIABJREFUVmDeVINTId1iUnhc55miCi5+p31AeP41SCAQCGOBiFoEAoFwG+CJqCXG6oPP1o1qbFne43T9+4WRnLsiwXcMDw+jt6/X7XZGo9HjutVqNcI04/NDCyvk2Fs/OaO9ox0Wi8Xn7ZBIJIgIj4BSqXS7rVxGccHWWeHDfZmJE7QqKipcXuNWK422XhPaek23zPmvNHVCLptm40LNTpKVQZSNuxMrptu7kLoStiI1YxO1+NZaN27cwM2bN7lt7K2v7MUu1g1RpVKRbIg+xpmgBQD3P/oHt26HXD0+zj771dlqLumD/b2iR8sIVkdf8r7+/FcPcK6FmhDKQbT1xT4AYGruw64nnnb7Za/BpZlqcnISCASvIaJWAFNfX4+BgYGAbf+di+eSg0i4pQhRKmE0mm7JvhUUm7FxkfNfaV27SEUGfP+tQ/7lGT40PIQrV67AZDa5dWfyFIlEAqqNQkpyCiLCI9xu/9xjD+BcabXLNPR8WKFh1RL3s8L6a/Xo6OwYl0m9TCZDe0c7MtIzoAx2LWztePIBlFxmYtpMhqBVV1eH2u6jAIDWVsd4d8ePH0djYyMM3RVcSGlp6xUgbjVvzGmbgP0AcK4nFaYbjDttoAWKLygbgDqEshGj2EmyxUpDE0I5TN6VCuHthYStsViWtra2IiEhAeXl5UhJScGiRYtw8+ZNt2IWH9YNUaVSQa0mE35fIeRyCIjLdjgRuEsgMVaEBK3JhrXkJhAIBK/f6cgQEAgEQuCjMwy7DP46Vlr7aLT0DiMh4vZzE7BaaZtJ8HizLCfNZcB0VtAaGBhAYmIiZDLfPspNZhN6e3pRV1eHlBRxwtaht3Zg07ZdboUt64h11pF3f+M2c2b9tXq0tbUhNDQUiYmJPh/njo4OGAwGVFVXuRW2Pvrob/j9U9/C//4z8K/T1aImpWMVtC5VDeLh9ezY3wBd+wwA4MXtcXi/IhP7CnSYm67Aqz/phpU6C5jPIlQFQDUDMtqM2u5hTLcTZewnjuXVZpcx4vwZ1k3QXozir2eTE6RF18My0IYuegGAUM4qxX5SrQ6ROKzzhubmZqjVamg0GhQXF2PVqlVITExEc3Mzt407MdpqteLixYvQaDRITU2FSqUCYWycOHFCMDD8J5+fwpM735309nkjaOmsUdBZo9Fqdu8LORZBq8WUjlZzOpJ92N9bNXg8uVYJhImHiFoEAoHgZ7z66qt45plnxL/UCkzofI1EQt2WghY7OeYmolomBlHy4p/aCjAX3vHJvpblpDnNwAfYClrJycmImxI3Ln2+LrmOrq4uUcJWUVERAHHClmXIM0ErJCQEWVlZkMvkPu9jREQEqqqrYDQY3QpbP/jBv6OiohiH3tqBdVtecJoEwJcWWuXVZqz9uRmAfKTuRZBJKViHaFisOm6bdb8VmkDJIZcB69zsY+tGNRcjLuACxW/Mxr4CnUthCwDWZJigUiWho0OPFEUTvqxNd7BYGw/YTIgNDQ1ITEzEpk2bsGfPHuY+ItK60mQy4fLly1CpVEhNTSUPxzHgTNDq6uoKSEFLZ41CqzkdOmu0qO0vV9Z4LGgJ7WP69OlOtz9TVOHZJFQgePytALGsJBAmHiJqEfwCmqZJzAgCwQuEJnJKBQWrrs9mWUWF+JfN/fv3O8TVevQuxaT0b6JcEuRS4cDQ/P0rFRSUpk4AQMKcLTbbHTlyBJlT2sfUBn8RtABg5oyZ3ITPnbCVm5uLoqIiFBUVuRW2PnnrObcZuPiC1pw5c8ZF0AIAmVSGjPQM0cJWVtYiAMCx958XFLZ8KWjlP73ZpbUeG3sHAPRV77mtj7VYsie4owKYHtj3QFcWW1YrjeNXQ/DohunQ67tR0SybsPuKTqeDVquFSqVCVVUV4uPjcf/99+PgwYMe1dPS0oLCwkIAIMKWF7iKoWUwGLD1qT+LrotNcGE00zCE+PYc8tRCq0Z/h833KVOm4PDhw4Lb3mwfEO0e7mofFEWhrKwMZWVljvft5gF88U2l5/dhu+DxBAKB4NU7HRkCAoFACDysVhrGwVG3OLkMCBlxNVIqKFi03ota3rLu37+x+b7nd5u8FnomMiscABgBtxnPlAoKjf1yHChVoSXkI265L2Ib+pOgxeJrYeuD1571G0GLewnyUNhisRe2fClonSiscGnJdqKwwqPtzxRVOBVxrKGxABoD8h4obb0CVpFzJmwZB2moQ4bx9mfXASRwx2KiqKqqwuLFi9He3o66ujrMnz8fSUlJaGryLHYTEba8w52g5UlgePY8EyR48vookUggkUjQ3d2N7u5um3U9hj785YNG5geZMWQeZvfBntP2+/jkq27cbDe4rYefbMPmPiwT176+vj5yUhMIBOH3OTIEBAKB4J8YzLSo+C5CmZKUiTNgbG7AB698Cz1GxhT+vjvUKCkpZspoIrDvS6mTF8c/oLN6PyNshIF7mXWFWRKPb74ZFbVMJhOiQ/Ve9XuiBS3+hMVe2LIXA5q0cnx/00YkJo6at1y6dAlZI+JdcEcFIjUzPOrDM9u+g9//6gdO10+GoMXijbA1TA87CFtvv/y43wla3IuQl8LW4Xd+hft++v9QXFbj06Dw7lwzPWVFbpZTUau4MQzW0BgAgRUontZ24Hq3xSYmj5Cwxc+GCICzsplIqqqqkJaWhtLSUoSGhuL+++/Hxx9/7LGw1dHRgaKiIlAUhZSUFPKAdINbQWvbH3ClVvwxYM8buVyKH347BGH9cqDfR401e7a5zhqF6dOnu3QF1Jf9Goe6sr1uUosp3ek+NBoNAKD19KM41JUtStACRpM4EAgEgs/f5cgQEAgEgv/BT7/tCr6FCD9Q/PuFkXDIOjgAIHElAGAQgF6qE35hlmhQPjDFZlmZNsbm+4f/NOCpR3jCS9hKm6xsFy5cwN0zPbdgshcAxjsTlP0+7YUt+9g7U8Ms2LDB1i3s8sn/AEaGyxSbBd0FHdQhEtGxQv73L77vdN1kClosngpb1iErnvn1M1i6cAUnai3Mcu3jNlmCFvcy5IWwZTQasWZpBqpr63wmaHl6/QPAhkdecrru2e33uXRjLK82o7yamVGr6EFoAuDe+O7fzwIAQmLnQB1iG5PHmbA1mRNpnU4HvV4PlUqFK1euQK1WY8mSJR6LWlarFS0tLdyPB0TYco6z+FmAd4IWwLhOH/umEse/OYaHEo+iBoNo7fddm598eAP27D0i7pyyRiN56lTccccdTrf5omzsbZrqZh+tp93XwVpgBUp2Q7lcTi4gAiEAIaIWgUAgTBL/sf1Lm+/7jmqw7ygzrVw76xDWvuS+DumNIty/d4XNxPnZ7fe5LXemuBqAsKh15WYY7r13tcvyTz0CrFoyGwAQHJyEnBX3c+uqq6uRFOJ5/A5ngtZ4vwwrFcITY5mMCcrNTSQMw0jSWBAWFuayPtY6xJmwZe+q5oqqqqpJFbRY+MJWfX09UlNTEaYJ80ndza3NaGufPEGLeyHiCVsmowk1tTWYN2eey3iPcil8LmixjGY2VCAyMRsRCYzVxf79+3Gx0oxLV81YkKlA9mwFsrKykJWVhd6Wi+hpZgKpM8K2a7ZuVGPL8h4AQMEXVhR84f/3zeNvpY/0T40PP3MUkN1lRZTLAJmUOaZM0P3xb3NVVRUyMjJAURQuXLiANWvWcBZbnt0jibDlitWrV2Pnzp0uBa2f/OIFXKlt8bjuFblZOPZNJbKSZRiQxQJwI4opVwMhTp6jhpOA8eQtMeasdbKY56z9PZF9TvoTRNQiEAITImoRCATCJHO9BThxAbjerEViFJCTmQRjc4O4F0pKAQtkACzcMleWGdw2rx5wmsFtWU6aqDoAJp6PRpOM+Ph4bllpaanHsbScCVrjndkxQtoOKQ0EyygogpggwAAAMzBsBkIBgPXSpIFarRp//etfbeq4eLUXN28OAgAatTcRLh0EaEBqcqxXQkkQJBvCIBJGrMFcix49vT1ISEjwStB68cUXkTvtMorKz0MmYx735j4zFt31FEqrTfjtb3/rUX0zZ8zEoGUQOq0Off19PhO1DAYDaJpGenq6x4JWYWEhhrXFOPP1f0AWLAfkFGAcxvAgjflLH4N6Si6WL18u/qVoRNi6VHYJZrMZQ8NDkEmdvypZhkbFFH6sGF+40C7ICIKuhbF+DE5Yi4SEtQCAM2eY8y9tCmDoseDMmQHcffdaJCRkwdh8nXfvcC5qaUIoyGQUgjsqYGxmLLUsWkNA3C/Z/klbW2CxThcUkJ0JW46Wn4wl5kRYkfDja504cQIbNmzAD3/4Q3z44Yce10WELYFnWn4+du7c6XR9Z2cnXn75ZTQ0NAMIGvP+rIqp6E5k3MatUe1AVAoQtVNcYf52hpNA/9e3x6TTLig8/wcgf8NisZCLikAIpPsLGQICgUCYPBpagL2fAjQN5MxOwqOZSV7XtfvNw4IuS8ty0rBiUbrDcnuLrjPF1ThbUoOzJTUIzXgIwZQewRL3LoR3LkrHf/5nF/e9pqYG0v5B7jsr9MhpQG51tHqhADQbYrnvngpa7ATdGzEhOdqEmJgYj8b5q6++slsSA72OqUNJAcsyFS4noz09Pai/xJjErNvygst90TQNqVTqUftOHvkToH8bv308AlBQuCsvYXTlMA0MHsCcOD2e3vo3JM5/Ar/+9a89mJTIMEwP+/w6GB4eBk2LP26nTp2CpOcdLM+tgiRSjhXrEkZPJnq0n9pr7+HAXzOQOP8J0eKWTCrD8LC4PvLd2vix2Dw5B/mWQ6PLKMj0naLryMpyjMMl03dCznOj5eoeyfRpNNMBHSheLqW4mFpihS11iARDw8DSaWWgKApXO5IBhIoWtfbsPYLlizK9bnNVVRXS09PR3t6OsrIyLFiwwKvA8ey9pLCwEAMDA0hJSYFKpbotn6HurLMA4OTJk/jggw9GAqkH+WS/VYbR+4klaisQdY93FYWsHrHoOnhbHC/7ZCyssDUWxkOAGhwcJC+oBEIg3VvIEBAIBMLkcbIEoCggPlqDnDEIWq5wlVWPT/6rB3CjuhiJKucZhiQSiYM7VmdTBT5uss+uGM77bEDGiKGRVCq1EWl6enpgMpkQZ6nF1ideBAC888FnHgta8ep2gAZaB6ZAqfDv+B1BQaOTKiGx0VtOnTqFedHvYfWqSiAkSngjKQUoKSTmqvHq3FCcPvIPPPFoIV77z0MBc818duAVRATvw/JvqwGpwASVGu2nJisUm2fdwOkj2/FK4Y89EvAmRJhxEjNOLgVk+o6xveDpOyAfudTsM4ux11egBooHgIr+QchkFk7IcidsseSkhSM5cQWuX/8GaoUeOnOoR/t/8IndXssiOp0O1dXVXOB4iqKwfv16HD161Cthq7m5Gd3d3dBqtcjOzr7thK2dO3e6tM4yGAw4efIk3n33XfKy4cdYrGN7ZhMBikAgEFGLQCAQJpGGkdAe8THjG6K5peU4rnwiLG4pE2fgzo0fAAAUwcGIjo6esP7r9XoYjUYAtm6TYoNky2QUEjQdSNS0gaZp9JtV8MTy4lbh1KlTsDQ8ivCl0YBYyy6lBHfeH4aUtAb86vH78f9e/9jv+3nkwCtYufAjaGZ6cL2M9JP6+B/YtKkQhw75h4DnyiLRYKZhis0CcFFUXfv370deXp7NMlNsFpc8wlkW1UAMFL+vQOcwhu6ELdbNN1IjwcVaLRalTwdNAzpT6IS3X6fToaamBunp6SgtLQWAMQlbJpMJ58+fh1arRUZGBnFHZK8hgwF/+ctfUFxcTAbDT+FnLyUQCISxQEQtAoFAmERYoyeKDMWYkEgo0DQFqeT27P/cqPcQsTSasVDyaOAoxM8NwRM/qMMTj27ya4utwsJCLJz5PjQzvbBGkVBYcX8YgFoUFhZ6FGdrPBDrYiujzbBSCtTV1aG2+ygAIGemFlf7E7hA8ZlhLdB3VeDo0aOgeutAjZQTQyAGij/6EuNq9H5hJPYV6ByELFdJGph1wNufXQcwj1s20bAWWxkZGbh06RIARtiqqanBqVOnPK7ParXi6tWr6Onpue3dEfV6Pa5du4Z//OMfaGhomJB9Go1G9PT0TFgfE4KrYSx/Dl+UT/4+TLFZ6DmrE3W/c7i/ySjRWYIJBALBFUTUIhAIhElkVQ7wdcn4TJpt4vT0tznfuL99pAzFuSsFClYrjRZtLOdCpDPfflZaJw7/CWtWV4q30LJHQmFmjgrzTl72C8HHaT8P/Ag7XkrwvgIJhRX3afD4T3+I5ctvTmjb+XHfOGHDjaC1r0AHbFzGfLmhAzBivShJRU37IOo7hxESKUdIRCpu3OgCbrDWjYx73qWqQax3kl+AdUeU6TthbGZiagVaoHg2ED7rusT0iXaZfZRdN9HZD4XQ6XRcVsSLFy/CarUiJycHMTExHmdFZO6FVht3xISEhNvOaquzsxP79+/HiRMnxn1fyRE3QdM0aJpG0+UGfHB5n8d1HLsWgy/O6qGveu+WPi6uAsLbB48nEAgEbyCiFoFAIEwiq3OAGy1AaVUT4qI1iI/2jQOQJ9mE6BHBSy4FF1g6UNAaaCgVwEiewgnLZOZX6N92HkNLLMES/NuWCPzl7VewfLn/WWu9+OKL+O2vYjy3RBPo546nIvHKK69MWHwtpYIX9w0UBgZDoTOHuhRTVi2Z7XTdmeJqlFczmUvLq81QqaYLxmZbHydcDyuw3crXiTthix/g3xusmvloayuDWq0ek0UUK2yxrogtLS1Ys2YN7r//fo+FLTbRgtFoxJkzZ5CYmIiWlpbbItaWXq/HhQsXeMHgx5/kiLEnWCgfmOIX4+ere4F97D5+3e6ELaGyBAKBIBYiagUwkZGRCA0NJQNBIAQ4Px5JQvgfH9ZDKksGAGy8U5y4ZZKGuXxR5V5Ww+Ju2fHjv5D76uV85rQk9PZrERHGHAf2c2+/Fn39WoQEKxCkUHDrr99sQniYBjOnJaGvX4vrN8XFxhmriLhr1y7seDLcJ31WxQUhSnrJL4/xkuQrkMbKfVJXwtxQXPnjn4EJErXkUkCt0CM9wQJF+BJ0dVxFyXXGmlJI2DpRWIE1y7OwZnmW0zpDMx7iPotNBAGMClqslZg1NAbKRMbCT65pAeD/1lrKxBkAgEv/cgwOHamRMFkdh1xbbI2VYbkGVs181NaWITU1dczCFhs8vr29HSdOnEBubi5++ctf4uOPP7aJs+VJhtDm5ma0t7dzsbbi4uJuOXFLr9ejvr4en332GUpKSkCYxOtSISxMyaWj154vMh0GEsHBweTEIBAmCCJqBTARERFkEAiEAObz4lk233sMQzh7WQtAvKglhhOFFUif4Xw9NW0+ACY4tcGJKBQepkFfvxbhIyIO+7mvXyu4Dbs8PEyDjs5OBAUpAurY9PL6df1mE2ZOS+KEK3YM2O3Y/vWNCF6eCh5j4bc/jQaCfRRILFiCefMVE2rFJBaTsRSQRvqmsiAKs2dN7GRDZw5FSsocAEB79zQAzjOMbnjkJY/q5gtcrrAXtADGxXFfgRzPbr8P+479LSACxR+/tmkkkYRZ8DpiJtaj/QwUYaukpAQZGRno6OjA559/jhUrVmD9+vUoLy/HuXPnvKrXarXi8uXLqK2tRWpq6i0jbhExK4AmmnZxsybL3XcyUCqV5AQgECbqXkOGgEAgECaHoyXJNt87OzsBdAEYTVsvauJicW1dseGRlzA3XYEFGU7qvAGs/w0zMZ7pJPGhZdCM8DANIsI0nMgDwEbEiQhznBLPnJaEpqamgBO1WHGud+Q/a3nFF+vYz7ExMdznXg9FLcvQ2Nr54it/xI4Xk3zW75nTFbiu969jcerUKdy11IeTAwmF3EWyCYsfZhykoZZROFLYirioYFyq64PVSuOpn95nk/HTFfmvHnCZEdSTmDxCIlj+05sRKW3Fnj17/P7azH96s81YsO6dK7PkMGmLAVAoapwHmZSCxRo4FlsAUFVVhYSEBCQmJuLMmTNoamrC4sWLMXXqVJw9e9ar7IgA45JoL26pVCrExQWWBa9er0dnZyc+++yzCYmbRfDRZJMEhCcQCON9nyFDQCAQCP4HP229LyivNqO82ux1+d5+LdJTGBGOFXv4IhZf5GJd8PhiEGvp5KAvSPw3XaErqyv+OmefxTDW2D4IkYym0PTJWwGF+Cj/Og6nT5/Gkn/zfbyViRK1WFHFajWirdfkEPct/9UDbus4U1ztcj2/DmcJHxYvyHTp0hjopM1Igl4fjGvXvmHGQQoY7Y5BIAhbLS0t0Ol0SE9PR11dHfr6+jB37lzce++9Y7LaAhhxq6ysDLW1tZg5cyaioqK4Nvuz9VZHRweOHz+OhoaG29oyS67xzEOj9JMmAGHu6+VdK+O1DyFhy1mMLQKBQPD49ZUMAYFAINzaLMtJw4IMBTbOuyj8IKDN+Nf1B/Ha3iNO3eGCghQOolSfnYue/Wd2vUqtER1jip2Uiwka68vMZeFhGmTPnY3efi1KyyvH/ZicKarAitwst2KFe8XE9798+2W4Xl/2cxKMBUaDkzvufPebh7F1o9pl+ZQk4KyTufzcdAXa2k6OXs/6Tub6CI3hll2qGoTBTN+SopZ1iAbAWMKtnidHYx9jfWRvBWmxMtlSZTIKkRrKbfZJT/C1sKXT6VBcXIy0tDTQNI1Tp06hsbERmZmZ2Lx5s1dWW/x4XAaDARUVFZDL5aipqUFcXBySkpIwZcoUvxC49Ho99Ho9Wltbcfr0aVy+fBk9PT23/bN87c8HAHgSW5ARm9y5uTOZWelx3Qe7H36mQ1fB4wkEAsETiKhFIBAIk8R/bP/S5vu+oxrsO8pYPx19ySK6nu//LgRGg/Ptj73/PFpajuPKJ8JZ7YKH+pH/9GaEKCgc5GXcYq2vPBGkfEHJ5WqRmZB8NzFlrc6EXCh9CWuZ9uATu33S9juXrQDo676x1qKBrlYLWrr96zrZsWMHPv/vD3Bvso9cEGkazS3D+PWz/hM3bMvyHhibG7jv9zx2FgBQUVGBnTt3AgDuneOstAFd9cyngwcPAgDqL7yN+gvv8LbJxq0KK1a19Zrw4dcmALGwWh2zoLIxxXKTmqFTzMTV+kG/FrYAoKamBmq1GgkJCairq0NDQwNSU1OxcuVKWCwWUeKWq+DyFosFbW1taGtrQ0VFBaKiohAXFweNRoPU1FRQFIUpUyYmQ19HRwcAoK6uDhcvXhw3IatFGzTmOlTWDgzIYsc2AaPFW05rQiivrQtZ99zx3Ad7bYnqt912t1vweAKBMD4QUYtAIBAmmestwIkLwPVmLdYuVCA0NMZmguue2T5v0+CgecJFram5D2Px/FRcKKsV/xAbiZsz5mMw0kdPY2J5CitqWa001CGSsb/MyxcDlmtAkA9ELSuN9kYTWgb87xopu2jGvQ/QgNQH/TTT+Pq8EVsC4N6QlZU1LtsKkZ2djUceecRm2R9eL8CP1llh0TKB7eWacPzXMZngsvkZQcjQtDhdBgBV2gQAcFymbUdG0pDNMrV6JlbmZgi2NVIjsRGktAYachkNmZQStOCUy5jJdErcEDq7GhAT043/n71zj4vivPf/Z9hdlgV2FxCQiyKCCIJX8F4SNcbE5mjMMWqTWpOctNbUJm2SX2PaphdzTnJybU3a1FxMak5o2lRNWqNJbLTRJASjXMQoCigIcgflsgsse2Hn98cwy87u7LK77LILfN+vly+Zy/M88zwzOzPPZ74XQ3ccFCExXrl/8PhC2OKzI/Li1sWLF1FdXY2UlJQhxS13siVaC1wAUFRUhEmTJiEsLAwqlQrx8fGW/oSFhXncN94Ki/+7oqICTU1NaGpqQklJScD/JkvLDQBWO90npLXMbl1fbJaDulx4zg1YF/p0QjgCbTi89kzey1xMEMT4hEStUUxHRwf0ev0o7sEsOonEuKemEXj7Q4BlgbU3ZiI+ZuTzjzHqQXcdfoIXHCz3ucBjS3raNMzOnI7ZmdOd7pdfVIGKS5cty0typuPYu78asv7jBWVOM8uNpEWappeFKhTDd7sImwvT9XchjR++9YG5w4R/HO/FK3//WcD9TuYs2Q707QfCJMMf+6t9WPYfPx1z95Lhilq5ubnIzc0VrNOHTMPKCa9C1825IykSk/HO1zJ89z+NFuGdXzczR4n1U4wO1wHAB7Xcc992nbmOwYZcg2BdXNxy/MIqkP4Xp8vx0rN3Y9WaTwCkQBEsFLQHXTxFXnYHxNC0KYmIyFiNqqqvMGFCGLT6Qbcrb+ELYQsQiltpaWm4cOECKisrkZKSgpycHNx22204d+4cTp486ZaY5Yje3l5UVlYC4MSx4OBgyGQyTJrEfewICwuz7Dtp0iQwDqxFNRoNNBruWdLd3Q2WZXH58mW0tbWhvb3dInAFOvmny7BskWsfkEKnrLAfTxHRZnUc8MzjXJ1fn6nAeGM41mHeICIiAp2dnfQiShBjABK1RjHt7e3o7u6mgSCIAEEREuJ2mRPFnOdYfIzKL4IWAEA9cWBSyAri0IxEbCnBpHp+ukvZ4Hbu2i8QtXLnpwMAGr7+PRj1REBtn9FLqZwqGk/IYDB4dB/t7+9Hf7/7qQutP0TwwtZwuPHGG3F8fxpWrKsZnhVTP4tzJzVYsvrRgPxthcXk4JN/volvfzdyeK6WOjP+tr8Ls1Z5N0C8KlR4TK64z8oG3HAUcgYmrX8nVnxGRJnUXmi9aUszIFGP+DG98PohvPD6ISjkXIy9udMiMH/OHTh37iASVK1o1MTCVUFKp2ehkDM4U9mJuAkhaOmMg1Yf5jPrEF8JWwAnbpWUlECpVEKpVKK/vx9XrlxBREQEUlJSsHnzZnR0dKC9vR0nT550q25nYpjBYIDBYEBFRYVdGWfB21mWRWlpKcLDw9HS0gKlUjkqn++/3/NPfLDnCZ/Epcs/XeaWhfJo5qH71gxOQikrIkEQXoJELYIgCC8RonBf1KoZ8MKJj/Zc0NqwKgR/XaWvAAAgAElEQVR5B42jcszEJlFfHrzbofslH2tIjOrKw9B160S3zbzjKSiVKXbrr3YpEXa9GgCwePFiLFq0yLLt1KlTw8o09tOfCq2BXn75ZTAMI8j46I2XecnEH6Lg059g6bc9nyyamw342yENnt37s4C8Tm688Ub88oN0rLqpwXOrtH4W1cVafFM/G9u8mPWQj1mzcFI96rpk6DaEAwgbshwfWFkhZyyufP5GGRqE8OAeLE6qw4XWKDRqYrGvYuZg0PlaANDisT+HY25GtmBdabkBIa1yAIDpQj8AGUrLDZD2TIa0pxV9sVkoLTdAJgFCWuUWd6zScgMu1yQjVF4rWMfDC1LN1/sAAJNUBpy6ysXNcgfO1bcPzR2O4255E18KWwAnbmm1WjQ2NiIhIQGdnZ1oa2tDUVERkpKSEBoaiu9973uor6+HXq8XCFzDseQaqizLsmhpaYFWq8Xly9zHB6VSiaCgoFEraAFA4dlLmLzwPoEoY421JVaoiKjNb7fNTvr1mYpxI2iJTkRtgscTBDG6qa2t9c+9hIaeIAjCf/BGJyMRySKkv0vYtjoOUE8UpPBuajeC7Sgfwf4zkEjEXcpkqggUnGlDQqQEiVEuuOmpJwLdNW6132mOQ2cQZ9n17LP3ID5+pWVbUlISvreYm2woEpOx+nHZkK6ON29+CieLK3HkOSNyb98u2JbG/MWqLu8KPjseTMKiBa2QRMvcLm9uN+HPe5px+9Z9Af1b+d+XPsBzv74LP3uwxv1+mlloq/rw6ckM/GmPd/vJT1BDwxj8x5zFaLimwyenmkfdvYi3LluzJA7h4TNhln2FmsZWvF8QA02vVrDvuQo9zlXoBWUbmox4vykZAB8fh8W5Cj0u1yigkCej/aTWsm+N1TK/7v0y4Tpr+EDwb350BcB8rg2De8KM0QS0a8ycZZxN3C2ZlDsGbwes9rWwxdPYyH0dUSqVCAsLQ11dHRISElBRUYGoqCiEh4dj5syZmDt3Lurq6lBXV4eJEyeioKBgyLqHErEMBoPFc6CnpwdardZyLAkJCWPumf3Htw+Lrm/XDF47Uaogh9t5y0PCajIqpTEhiLFCTU2NX37MJGoRBEH4kWU5wOfFvm8nIWElEh4a2p2wzxyGGuRYlnvK3xFsf/m3d2DGxBYrcYYTengXQDFeeP0QAODip08hKSnJsr70s11oLd83UFcm/l0tLPf+8VY0dphRVG3Cj1YpRuBsMIK4MGIxYpz10642ZuSe68+/8iGe+/VdeODuS1BPU7joisjA3KLHm7ubsGrLe5iavjTgfy9LVm3H+u9+Dx/8XzwksTLX+skC9YXd+OWz1/DAz//gs2ObNk0Yj0qnd24JxFtutGvMUCQmu5kcwnd09YUhPBwIC5uA4HC5U4soRxN0Z/1WyBm3LaSsA8EDEA0G7yq2bfMul7aZEL01yR4pYQsYtN4CYAn4Hh8fDwCIi4vDuXPnIJPJIJNxonBqaqogNlZISIgg46B1fQaDAQzDQC6Xo7GxEa2treju7oZWq0V3dze6u7uRlpY2qq2xCIIgiNEJiVoEQRB+ZHkOUNsInCmvR1y0alhuiI64efNTAjGGd42wDgwPDIpPAj3ABTcVV2JhvfD6IUgklTCbJw1KKkOIPpyrHgOWHRlxqKmpEc3Ng9m3WltbIe8OR0x4t6AfYuMkhm0mr4stEy2CoC94/H/ew7PPPouZE97Bmo1qIFTiQPRRAXozLhc14Y0/X8MdP9znE0GrV8/CZGJdTvXuCjfeeCNu/PdV/PpnG7F09gV8e70aUIhY+rEAgmJgbmtC/pF2/D0/C+98WOqTcdcZWCilDA4XNCFuQghKL3eKiieeUFZW5vK++/btw6ZNmzzvh56FTAJ8cqoZsZGhaO2QW/pnizMxy7rfvAUUL4zJpPB4bJwFgvcUR4KWbYy04TKSwpb9fa1J8D9PeHi4RYDi7/Msy9rdl3nByhG8iyFBEARB+AsStQi/0dx6DZMS42kgiHHPvWu5/w9+UYUPv4xBXLQK627wnrh1srgSJ4srLcu8a8RQliQA0NbWBoD7Sq/X69HZFwFAKMzkF1Vg5679DuvgRaDOzk7o9TWW9d/UT8BEJ22vzZahqNqEhMigETkPvfUfo6JNmFH2Wk8YYsK7MSVjAx7bNrRrkrXgVVb0EfRBg/e4+t40zECLT/vw85//HAUFN+LXT+1COFOKtasVmJYWB5g7wAQtQU9fCAo//wfe+VCH1esfxvNv+zaGljeC4YvxPy/uR0FBAX69k+9nDKalJQOIQa8uDLW1xTjz9Teo65mNlet+hz/d6zsrNKNJGK/JZGLddo2z5ZN3d3B1G41ICKmATBWJvKMSSzyecHk3VHItGIaBWi7HtAQT4uMT8Mm7O9Dc3AKV7DqUUs/Ol0IOtHb0Wvph66YnlrFT7F7CC1/W26QSxu1YWK7i6NiGQkzQ8qYQy+NPYUuMocQqd2FZ1k44CyRMiin0skEQBDFGIVGL8BvNrW00CMS45pMiYeDyksv9OF3eD0DjVVFrOJSW/hXXrsValoMj0nGhuROZcYPijK1o5ohrdYVoaB8MAN3V1YX2NufWS/NThI8prbba474cLxja6iUpvAps5PLBY8YCwHAYSel3YqeLnocvvH4I6GpBrDIZiJpsWe9J6nqGYXD9+nUkJyW7XGbp0qVYOhAI/cUXXwTO2G7/P+RtdV/kMZlM6OzsRFBQkFuulUMFw2fAQBIkQVdXF8JCw7zUz1X42W/+5dF10trWiiAmyK1Ad9aiCGcB6V6b7xZEAYiyWmN1rSTeCAOAHokWimAGQXIG316mRHh4NHp6rqG0rA7miGDUBsWg9pseAOED/wYn8aXlBqyOc+1YHIndYqKRo315YUjMpc8Xwdn5YzPZZHAd8pq2cWP0laDFwwtbJVUdAPSQSRnkLkjH0pyMUfscu+GGG/zWtl6W6PweMX8GchdmYfLC+wAjCIIgiDEKiVoEQRB+4khxqmCZs4q6BgD4oDbb5Xre+7jXZ8eo0J1Cf3emxeIoJiYG/W2exbcK0l9Ff3e4pa6QkBBUWFkv8a59W9bZTvAH+c33nsG5Cr0gEK9L5X70niCwtSNSU1ORMv8Wy/JHHxmBq1xg4MaL76KqUjxI8JSMDUhKv9OyzHY1wxRhwm23DNaVnZ2NM/vfc2vMlEolNBoNzp47izmz5rg95j/7mXcssUwmEy6UX4DRaLQcl7dQR6jR2NSIy1WcG1NCfILf+tnS1oIrV64AAMKV4YJMlb7isW1rh9wnv6gCwGAQdT7uVacuDBfbIrBs9Rqnrnmr44BlizI9PkZbQctazOLdEHmByJmgxZf1JtaC1nCyifpa0OIxy1TokXBWWopgBgXlOuQsTsSO7RvooegD8k+X0SAQBEGMcUjUIgiCCEDyDmoD5liyZ0QhcdbghOvYsQig9XdequsY0Jrvcd+tM5l5Y8yqCt9CVeFbluVgm+2OgnkbEzrs1n3zzQns3ZiDyWoDvjV7ClSydrePZ1bWLJw9dxZdXV0eC1vDhRe0ens58TQtLQ2R6sghy4XKGcikQ1stxUyIAZvBory8fFjC1nARCFrh4chMz+QstnzMUPHoAGDnrv04WVwJnZ6FQs7gk1PNMLNBCGI4l9gnHvKdIGIraFmLVUIhaEDcMrGCTHCWeiSBKWjJpJy4NBKCliP++PZhPP/6IcH4jEQ2uLGccU7sGvQ3vIAd6sK4O8qyCAAL5qRh8bx0t64vT8p4s32CIAhfQqIWQRBEALJlneuWML4WwHqvl+Fa5QHLcpi+0id18VkUV889DqOmQ7R8Xf9S/Pn9LhSdrbRMtJWhQfj+3f/hUjlX3CQdoo5zeVdGHYecqTqwLJAQGeZU0PriVDluzp0tuk0ikWDOrDl+E7bEBK0JkRMc7n/p0iVcb7+O1beuRvGlbksQbusMa2LERscCGfCbsGUnaGVkOrXSOn36NGbNnuVQKHAlO587SQdsJ+tcvCozdHoWpn4WYRn3+GRcnAlaCjknBN2QJUVzSxWatdHQ6sMcxhOTShnoDGavH5utoOVpbK3Ba17chVEmgVvClyMBz9TPDqu8NxnLolYg4oqAzfPpV+WC5xx/bWp6uX/uWPb98e3DWDwv3eUyxwvK0K750OHvf3bmdLfbHy/84Q9/sGQcJQhi5CBRiyAIwk+8vO2oYDnviAp5R7hYWuunlLhe0bpsnwpbHY1n0NE4GLBI4qO6+CyKXx78wKFF1He3/w2VtZzVirbXDGVoEB66bw12bN+AL995FbpunWi55Xf8AN9dv9Jnk3871BOB7hq7mGBiPPvqhw5FLcB/wpYngtYrr7yCl19+GQDwYt5TlnO04YFd+OSdXzltz1/ClruC1iuvvIIHH3wQ+afL8IrVZM0606NYRj1v4kqSh+HiTNCyJj15MtKTJ+PcuYM4dXU2pBLG4gppawUlVp7PkAhwll+2wemdHZsvBC3r+qxFH2M/IJW6d45sXTNdYVa6HHMzgkfkNhXSOnZd8/pis0asLXeevzt37beI2Y6yiFpbmVlfR/y1ebK40qVn2WPb1toJadblrN34xe4tRtPgfc1kGryGXRXkxdonCILwBSRqEQRB+JkrjcDxQuBKgwYr58kRFhYzIu3KJIAugMelscOMg0V6JEQGYd18ud32waxzHGxXMyBRi1fW1QwkBGY/TxZX4ubNT+HYu45Fn5EWtoYraN28+SmLVZy214zz5Zfx7XueCjhhaziC1t0PviAIfM5nehwpYcun9wYXBS0AaLimQ2K0Ap26cNE6woN7kBnbidP1iVCFMqIiVHhwD5TyHjRpY6GUMk5dx3wlaAGwWGjNSpcjR10JmcR7lkymsFjsPRYy5H5LssPx7ZivR+ZEj+mEgCUj0ooiMRl5B2VuldmyTonNS9vBXj1rWXddp0JHnxqrN94DqOPwzr5i/PV97gMQZ/0JRMq56/3+O+0TyWzatAkA0NFYgvaGkoHkE+L8+9VwGDUdgvYvtU9CEBOEWzduEbQvkzKQSgBTPxATxkImk2DL7WFO29dqr2Dlj1zPrGkysSNimUgQxNiFRC2CIAg/UtMIvP0hwLLA2hszER8zclkPucl34L5IfnNdiaAgI5o6HR+j0QT0uvAyzHa1BPR1EEjC1nAFrfVbn0bZxUuCcxSIwtZwBS3LpNZHwhZf70gFMHeEo+O3ju/FkSKYnCqCGcRFhmDO9EQYNaeRoGpFoyZWcM9RBHP9umvVTFRXfwX19WqUt6Y4zJLoLIaW0QT74PUDFmO242dt/SLG7LBKrFtswGcVKlyqb0VCpARrs2Vuj92hEgMaO1iszZYhRXUee4/Np4cewV2DDTWWjzBVHZNR1ZEEALh/xmYAwNpVcSjKPy1aNj//ut26hx9eOVDvlQFLZ8eillHTYd++lmv/vwbaT0m4jukTxdo3Ij+/T7AmJCRE0H67pgSAzKXkFMNN8EAQBAGQqEUQBOFXThQDDAMkxKhGVNAaDcyeoEVtLZAY5bnDY1G1CYVVRuxIkSFxYFLsSGDgvmyLTwQKdu3H9CnNmJyYLLq9rbsEeVZuJc7qQi1gncmOxxNh68zZM1AoXM9GqdUO7SbDMAxMJm6QXBG0Tp8+LRC0Cs9eglTKQBU66C4zHGGrqroKjU2NYFnvTnzMZs4aaDiClhjDFbasLY78HfNoqOPm43tZJupWQhTf/8nRwUB0LsobTln6J+qGqFqAmdKDKG9NcTouJhOLrBlpyJ3vOFA1/ztckjMdKxZnQGZzC+GF8NfzDjsVDBVRSxHe+RUaO665PXZ1PdPQH2wCw1SgqdOMFBdv76ymFYgBMUaRSRng+tUhreSyslx3n+StpFwhShXk0L3fts59+/a5VOftt98uun7F0qH7QIIWQQQe/G+/qqoKVVVVWLBgAbZt2xbQx0yiVoDT09NDg0AQY5iaRu7/uOjAFLRkKsdZ7i40KwH0eVYXbzmlnuiwnYTIIGxbae92uGxRpmg8DyZpDmDzsl58pR8Mw+CFN/6MD1Y/JIj3Y4vzuCh8e46sNbqt9vE8eP/J4kqs3/o0PtjzhMN9rIWt3t5erz8nGIaBVCrFtGnThhS0AGDzZu7LPi9oWYsa3hC2Ll26hL6+Pq9f21KpdFiClrO4VsMRtgbd8brBMAwaNbEOg5f7ElfjQDkaA52eRXNHH4oqOtDTcx3qmElo1BgEdfJxqvh9mq/PEK3T1kLLmfALDIpaufPTh8wM+dbfPnK4TSVrB8uyiI9wX1ycHHYZl2QqNJtZxEe44RYZ4FalxDCfqSLfaBo7/JepsbHDjMYO/whL5HJIEP6nrKwMZWVluHDhAsrKxOMsfvXVV2AYBj/84Q8Dth8kagU43d2OfdKjoqKGzCgVSNTV1SE4OJhOKjH2XlJlMo/LMgNzpUDNQcXFxXDUvz6P61LIJ9u81HbjsYGPQKJCWlcLFzMLjr/+TsnYAGOCMPthUvFLqOsKxqZN2ywTdU8ZKoCzt4L1F569hOd3H3CaXYoXtlrbWmE0Gr1+3iMjI6EMd5yBkxe00tLSANgLWpaXDCfC1tN/PDCk4BAbHQtFiMInohbDMIiKikIQ456g5aq7jCfCFm/1lD09AtOnzAQA/P3YeWgRBk2veVTdF3V6FjIJUHq5E1xKCIMgBp74PmF2+zhyOWy8+C6qKsWzqm1ZF4W8g1qsnnscX77zquXewZN8y/8gKf1OyzHYWsQFTZ4JoARZEaeRtRgAPHt3uSldg5vSuThaTOIcEIQtxVdMaOpkERHhr/b7oYPZb+3b3vsIgvAtvBXW/v37XX+e63SoqqoK6H6RqDWKiYyMHFXHW11dTaIWMSYJHoaotSwH+LwYaLquwTwaSgDA4hW7nW4/XiD+JYmfpFqza8EPBMueBu3uKX8HjY3/xvl/iluIxGbchNee+5MgQLqvkUgkiI8b+dThtoLW87sPiApalhcNB8KWzEWvUmW40qnA5it4QQsACoouWtbbClpcEGdxqyZ3hS1OdGWg6Rv8YKXVh1liQ402uLFiXdpHzC1RTNBShXJjyXa1OHGj4lx/jZoOLiOqTQIJo6ZjoH5GcB3KJADkDKQ9bd4fjK4WKOST3cqESIwPWNafbbMgeymCGJu4YoU1ViBRi/ArfNwWghivLM8BahuBmkYNzpTXY17GpHE7Fs5ShPOTz149i/yiCrtyYmVlUkAqEY/349mktNnhJqVyKgDO3WmkRC1/YCtoufyyISJs9Qaw64m1oGWN9TUkzLbHOLTgckfYMpo4S7DSy51ovG5AEDirJZ2Bq3dJznSnsaSsyS+qsLsWrX8TD963xvXxePvwyLyU2gidCrlwXBVyLmj+Rx8dwFtv5eH2nGAkRHqe8VAm4c7LQzZj0Vj4ivfFg65mKORJeOi+tZZrv/ibSpSWXXK7rlZtKKISs5Geng5iZGlvOIOORu9lVsyZKkUvy/gtE/HtOcH4sprxeyZkckUkiOHBC1iAe1ZYrhASEoKpU6cGdP9J1CL8isnUT4NAjHvuXcv9f/CLNrz+Dy6+1robxmfQeEfClkLOQCFn0K5x3QXLaILD+FmeTUq5WDeFVZy734JU2bg6N54KWpYXDikDhTzwJy+OBC3btPN87Kv181pxpDILrR29DvvnjrCl6WWhkAOtHVz2Sev9cuenY+cjG13qx85d+1F0ttJKeLPZ7mI9gPO4U759RxAXCouKyhAXl4HDZyrww5vkw27H2tU3/3QZDhT6pj8L5qTZuRVPXnify+XPN8YgdcH38b116+jB6SdSFwDtDSXoaCxBVeFbLpdbkjOdey6JvPYmRAahqsN+gurOZHY4+Kt9R1lOCYIYGt6N0NdWWHK5HNnZ2Vi1alVAjweJWgRBEH7ikyJhlq+Sy/04Xd4PQDNuRa1Ap6jahOIr3KxEqYxBRmzniLVdWVmJ6dOn+6Xfly5dwqZ7HsSZk/8S3W4bNF0VythllbMVhcQ4fPgwwqKmupQ1yxds3PJj/PSh7aLbrCejfPyXO7PbIJtwE26PBg4XNKG5o8/OmosXpNwRtpwFoQeAsIx7huyLo1hU7tTx2La12PnIRrfE5JEgOTkZLS3liFN7Lw7P87sP4I8DFml3+ujyKzx7CZMX3od2jRk95e+4VIa3yjIqc/HodhKzAoGoxGxEJWYjdcEPcLXifQAHBb87MXgLS6OJhWLyNADOM2qWlpZCp+PspwwGg9N9CwoKXD72do0ZisRkh667fFbYkydPoqmpyaU6JRKJJTutu1lqVaEMZUAkfMp4csHzBnK5HFlZWUhNTUVOTg5SU1NHxXGTqEX4HbPZ7DTzFEGMVY4UCx8UbW1tlhfdD2qzXa7HWwHKiaFhGCAoiJtID8ftyRMqKyux/cl9Q2Z+8za8oFXZMdHlMjoDC6WNqOXqxGXN/c/h8J8fH3Fha+OWH+PjQi0WFF1E7kLnbfOxr85em4v5Awkimzv6BLGveOtCa1FpOFkRbfn3q+GW2FAAkDL/+2AYBufPn8f58+fBXj2Lv59LhU7PIjpUWHbuDDmyMzkLp+985zsAgI7GErQ3DLpVvVsQZdfmY9vWOj0mW5dHd/cf8roaCOp+77334ub06ygrqRmx66O8NQ7z5mW7Xc6kvQSjxn0Xw7KmWFzrCcOi5Xfhtttvp5tvgJKUfid6yu+0iMTWLu+OMBr7oUhMBnv1LAAgS9WFLNV5AMCX75QA6on44rQJJ6q4m4sqlIHOMBiLzfa3z149iy/fucmSTViRmIzSfxmwOk68fT4Zi1j7X/2lBFJVBPbs68f566kWl2U+Flz2TAWe/14bTMyAhWRXC9iuc8j/8Ls29Xc7HYPndx/gxmvANZ0gvE1ZWRn2799PQpYLqNVq3H777RYxazRCohbhd0jUIgh7SKgKTHKmShEfwd2vVLJ2r9f/71fDYTh/AlPmLxDd/ttNZSj97AnMvenpEenv5cuX8cyz/w9/+HkUAPEsi9+Z34Il4XWAeiJkqkis/FG3nUhjbXXET8imZIjf9488ZwTankJ7w2OISswekX4+88yj+MmGdvxkA5AU3+K0j+8WcJn1+NhXXOa+gX4ahKKW9aTN28KWUdMhsLaIW7MCEokECQkr8cYbGwAkISlS/JzpOkz46qseAMAjj6zk1jVcsbHesBe1hnJZ3Llrv0CkWrYoc0hxMnrOvUMLQ1bB1bVezALZq2ddcn8qb41DeWs87l3+E7fbqP/mL2g4576oVd7KKRIMQ1nhxhp7D3Ri7wEZolQL7X+blmtSZrmPSKUMlNJB93vbrMRRqoUi1p16rF4u3j5f3nn7A/exYK5904A7f8l5HW7+ebjVfW4yFPIkG2vObvcmo9LAucbVajVdoGOAsrIy7Ny5kwbCAbw1Fv9vtApZgvsInVaCIIjAY8s617O9vfdxL4xGik/naxIXP4rExY/6tA2jpgN9EjWMkNu5cbAsC11DDXSowcWEi15pr6Wlxen2y5cvIzc3HbqGfMsx2B0z5FyGuW5eEJG5JMYY4jsc9hEAivoOgIm+7rOx7u3ttfw9MU5iadcYv9LuuIR95MQePvYVb41lbUlh64LkK2FruGRluW8Nt3PXfqdJHazZ+KPnLeIeIIyRxbvfWW93DGMZH36MVFl3YGbSHKCr2RLvjkmaAwD4zY/eAwDU9S/F8hVrLNt5VBk3Wf62zcIp0zegurEXR04PnoxrPddxrUePv/zlL26PV0fjGbQ36CFlGciNnDuXOojF7t27sXDhQrqxjjN2PrLRpXh2YRn3QCYV/j54Vz3eLdgTXHV7Dcu4R+BGLpUykEm5e5w/LGlHCrVaja6uLrpQR/vvjAQt0Wv7lltugVqtxq233jrm+kei1ijg7Nmzo+ZY58yZQyeMIFzk5W1HBct5R1TIO8LF0lo/xY3sSrdlk2WXr1+QdrmWScbVyf5QmM39MBqNNusGv4TXfXY/rsV9F/FxN3k0ueBdP5xh7AeMJjWmT0kCnxqrvaEY6ri5AusR1uN89KzTsoqQK3jyz6HInZ+OULlvvuRzfWTR3NyLSVMG5BPG3jrGkbEM7w7H1TO4Xiw4eyAKW56IWgAnum9eOmCpGLUCqampKCsrw/lP/oq9hVyGpLkz5MhO7EDmpGhkZWWhvbEEHQ0lCJ65fMBSxD2sx+d4QRlWLM2CUpkCJNjve67i/wAAf36/C9999yGHdZ46U2FnJSI31KOqPgjVDQxCQkIG1vYC6MXevXs9HOkgAApESDiRNiIU2LNnj+ied66Nga6hh266Ywz+2cBn8h2KKJX4PSRKxeCbC5WCZ1KonBFkkxW7X359psKl+z6/r1j7ytAgtGvMePpP/8Dnpy5Y+sLfR8X69/WZilF3rkjUGt3wAdTHO7w1VnZ29pgUsezuj3TKCYIg/MuVRuB4IVDTqMH2O1TQ9MpH/Bhmpcux5YZGzE7jRLWyWgn+3+6gIcu89LDMEtvj74Ux2Hug07XJ8IDlxC8/TEPJeefJxH//ixhkMmfAdjUjeOZyPPySEecq9I4FIV0rXnwsEbMnc5Y4F5qV2Psx67TMrHQ5tqwyW8p8UxeKvKNBljJiYpVt/8tqJQOTV8fMTOrCiz8eDCByoTMBjz7TZrefRqNFQ0ODzToNFFbLX5wqR97BQkvsJm/Du6FsWafE+gHB58qFE5hgnOCVCUBnZxdqa2tt1nXCOnLXyeJKnCyuFJ1gebuPPB0dnbhy5Ypgv44O1xMCqEIdn4tAtdgS5fpVhE5h7CbYoXIGIa1l0DUM/J4UyUhIWImEhJV4/fUvMH0iJ8b2thuR3y7Dqg2PIjErC32Fb6KpuQo4f0LU7ckVeLHwP3/4nGWMrK9/axcomRQoPX8J8dn32glXvHuVo9+N2WyGQqFAcnKyz4bXczGYGK288Pohr9yvC89ewr++HBSLolRBgmtf7H5ZePYSCs9eGla7vOvvyeJKS2ZV20QUYrtFelAAACAASURBVElCApXOzk66KMcg+/fv90o9GzduHJX9H03B3b0JiVoEQRB+pKYRePtD7u81N2QiPmbksx6ada146eEUaC62Q9fAWV+kSIHnH8zEjleMDkWgZzbWQ3Nx8KVwfXwFsCHXobC1ZZ0S35lVDV3D4Pb/vuMqfoMkh8LW738Rg6k9BZyhkESNvotn8MzGCPxi/ySHItWLjyUiLegCdAOa0FQALz08D6t/YnLopvnSwzJoLp6xlEkLAv7rtll41MFHZrH+uzZmBugaWi3rpqIGv//FUjthS9d+AcCdgnW5ubm49MnuEbsu+MlXSGsZMMXFifrVsx4LFgCQlJQE/QjGdPWkjyGtZZBJkxwKT0NN6EaNsKVQWzI+WsfYMfYDprBYAHUuVcNbgxVf6UeElw6NtxgZah9n550g/MWCOWlYPC99WHXYWmb16lmHiRceum/NsI/Z2hqLb/PLwgp8dnLwISmTYtQIWgQh+txQKrFp0yasXr2aBmOUQaIWQRCEHzlRzLk2xUer/CJoAcC9d6VCc9He3TEzohGz0sXFo6wJNTBqhC5EJkaO7yxow94D4jGVNi9tFwhaAGDUdOL57ykEgWdtj0Fn44lj1HRi/hQ1zlUE2+0/M6kLmREGGDXC9ZqLZ3CXAzfNLeuUov2fHlaH7JnigtvcjGAYNfbi3WzVFchkU0TFsy2rzKJlMiMaYRuHStd+EQkJ9n5Vl/x8varVKkyePFmw7ty56QjxoK7IyAhMnTpVsG7q1Kn41M+JisSOy3wtAtZpAaQSRjDBc/vlazQIW6FqSx8FopaJhSksBq6KWiMhEKxYnCE60Rfjj28fpgcP4TfmzkzDB3ue8Fn9N29+ChWXLluWH7pvDXZs3+CTtnYAlqyPMqlzIZkgAp3IyEg8+eSTiI+Pp8EYhZCoRRAE4UdqGrn/46JVAXdsRk0n5makiIpa962Lhq5BPC6OTCZxK3C9JTW4bfvt5wGIf83+zkoGez+1Xz9v3iQYNSVe639WagpKzttvM1z9AphiL8TpunW467ZQUfFs9uReiyWYK8jl8oC7JoKCgiCVSu3WER68gAWAsLVv3z5s2rTJp/0sKytDVlYW4iMY6K55t25PAlbv2L4B67c+PWxXLILwhNz53DONF4OGC+/u164xo6f8HeTOTxeIWju2b8DxgjKsuf+5YbfFC1cmE4usGWk49u6v8Ni2tXjprUMkaBGjmpiYGOzevZsGYjS/U9EQEARB+A8+APVYMtiXyoLGfDZGzuIqPCCOxT6Vu/hkBOCCmdvGW+HL05d2P/xWvChs6XQ6hIaGoqWlBU1NTS61Hx8fD4PBAJlM5jTGk7M4YWg/jqrCqygrK8PiORJ8U6dA6UU95s6QY4a6EVWFbyKkNwshvWehA5ehcCjXQVd4bNtajzOwfbDnCVFhS6dnA+RXTYwHPt8thVHT6fDDzpB0tUDSWQvZ5Aws/wUX61DMQvHzUxeQPVOB32+uR1+Q5x/Q2KtnIWX1eKdhNfIOVg48Wxh6bhCjnu3bt9MgjPb3KRoCgiAI/3HvGuD/DgNN1zWYN0JtmkysZdIso6dAwPLp7iUu7+ssTbv1V/qh0rlPXnif0+1VhW+hqvAtwbpgD/snVlcg4M3jmhZnwvz0SHT1heGTU83iL2IeClsyVaRg+cy/t1r+fnZHEmSqSIdZBq2zF5765F7LekVisuXvss9MiIsbPEZrSssNALK5hVoNcObMwJZovP+FFoAMoVEyqIIj0PL5GXz2Ob9djr7aKADDz9a68xEuiG/+6TL8fs8/UXj20pBi2ZKc6Tj27q8AAIvnpZO1FuFXjJpOaBubhleJNBZKF0SxrFQptI1NMDHtnrclUdutciWTI0EEMllZWZg5cyYNxCiHpjMEQRB+JDkBWJYNfF6swcf5F3BbbqbP29QZWCitJswU2HVs0N5Qgo5Ge9fL2GAuO+OsdDlKP3sCSuVUu30iE7IRlZhNg+hlZkzqR3h4NMKHMP9xVdiyhhOsZE5q7Xa4Je+gFnkHZUPdKbDyW/Zrly1yfI/KL6oAL1idq9Bj7c2b7Ca9vXoWj20b3rgumJNm+bug6CKSTEeRlAUY+1n0xzuenJSW1+J4QRlWLM3Cju0bRkV8rdOnT+Pq1av0YxqDeGyh5WE93movUAgNDaWLiBg2mZmZNAhjABK1CIIg/Mzy+dy/g1/o8ds9F5CdMQnrbvBdjC2jiUvNzbsMSBvPA4l0HkY7HY0lohZGnPWNDHMzgtFa/hlaRcqmLgCJWj6gsEqNNROBhmu6oV/IXBC2ZAN/D2VxBwA7d+3HC68fcrjdlTrEWLE0y6Hb39N/PIDS85cgk3DZ0p54yHmA6vzTnmUFsM4cZ+wH1me3os9iReIspl42Pj91wSW3RZlMFhDX0Ndff43a2lpIJBIwDH2ACFSmBAHNbAYAJQ0GQYwiZs2aRYMwBiBRiyAIwk98UpQiWC653I/6a/2oz9fgrrtmu15R7dC7yKSAIpixTJhthS25KhVy1eDx1NbWIVJS7rRO1aRVgmW9phpAv1tlKs59jpQhBDXbMpr6o073t+2LJ2WG6n/opGTIVVPcHjPbdlwZM2L00tzRhzc/uuL6S9kQwlbxNxV4fvcBl+oq/qYSioH4OmIx13bu2s9dy3LXhZKh3FMBWNqUSl3bf7gYTSyYlDlAQ82YvIZYloXJZEJ/fz9kMhklZghg4phy9JtV6EUGDQZBjBLoY8HYgEQtgiAIP3GkOFWw3NbWBoBLD7b6cXesBIaOT8OLV9YTZl7YAgC5KgXqSbdY9m+/UjCkQGO9PwB01X8KI3vJrTLNXxYgZYhjty0ztECVMuwyrvTfG2VcGTNinL2YiQhbUSrupbvw7CW34kDxApNCztglFOCtuPjsaURgw7IsDAYDJBIJpFIpTcQCFEm/Bsru0zDIJ0EvS6ABIYgRZN++fTQI4/XdiYaAIAhi7OEoG57thNloAnQhMaOqb00dwUNadxGELzH1s759OZMykElZl7IeuopCzkAm4WLqWder6WWhkA8KYKOVT6u/hRdffNHpPh88/uMhxwiGkTles9l5UPujR8WF+P7+fpjNZkilUkgkFKU7UAnW10Ni0kAfnIh+CbkkOr2fmtgx27dVq1bRCSaIEYBELYIgiABkyzrXX4JLyw04V6F3a8JsLWwxqthRNTbNnbIhrbuI4cNb9vTFZsF5nKJBGHWcJQNdlCpoTPaxLzYLRpPW6QRtuJZPC+ak4YM9Twyrjqf/eAC73uSssQZdAhkopQxMJlYgbvHjoJAzAnFLp2fxzz07kLswy+PjyD9dhrsffIF+UF6EZVkYjUYkJSVBqSTBJMDPFgrraRSc3S/5dxGCIAhPIVGLIAjCT7y8TfglPu+ICnlHuADx66eUuFFTtluiFj+5VcgdW3QR4xNe2PB4+tbVDFXo5HE9SbGNg+Uu1oIWH/fKE/KLKiy/b1vBylrcsj5XOj0LUz8LqYSxlN358j+QO/+Cx8ex85GN+Nsrj/lc2JLJZLha/CTU8cugTlgu2Ha1+Mkxe71RjK3AhmWd3wsvt0/G5fZJFnfS3/3udx6107POtf2OXF4CYDCO0Isvvui2K+stAF57jvt7y39+y+Msotb3n8UzSJwlCMJzSNQiCILwM1cageOFwJUGDbavUyEncxINCuE2kQnZSF1gv76P6QBwDqXlBjxw601QKqeKlgWGL2oBg5aA4wU+4YKpf9DyaTjCFp/Z7+bNT2HapCaPj2vaJOBk8eAyb41lHUNLKmUQpRLG2zKauODrACCTSTBtUhOamz07jtJyA/KLKnDs3V/hofvWeDz5dYWLBc+ibipQ53Sv7WPq2iP3w9EPw4ysMGnb1nBjs4WGenazN/YPWovPiqgEEE8XA+EXhhKeidEBiVoEQRB+pKYRePtD7u+1yzIRH63yy3Gcr+pGUEOhZfnS5WqkznBe5uSpQsGyTFeNKbKzAJa4XGYouvpUuGRVRtfXh3lTewA4jgNW39CICw3CMmly5+3YlqlvaERqsntlTD01QIR74yzTVSPZKl+ATBXp+uDYZL2MSsxGVGK23W7HC8oAnMO5Cj3m3vS00yplDt4KFIncYLBXz4pPzNRxgHoipJ1XLWKJwzZc7CO3X/eI/QZc7aPtuFtnEtX2mr0ibAHAyeJKPLPhOrSNTTAxDi5gRTLYkMELVSqVor/tGABAmRCPvIPhdkU0vSxkUhaK4EFxi7fisj5+ALjrtlDck3gE3VLORdmkyoVEIrxImI4T4i+YrB7fXxyP5b/Qg/ANQ8XlIohAxWgVRysmJoYGhPAbx48fx4wZM2ggRjkkahEEQfiRE8Xcl9r4aJXfBK1+TQia5FIAzQCAtrbrSAyvcVqmrG4q2lqbLcvV1bXIiL+G5FlxbpVZPsPocH+JIhb1bRPsyqQtdd6fi00TLH0BgLILFUi7yfH+nR1BuCgXlulprwSSnZRpDxK0o9X2YIK00qmo1WOKQlOHzKZMM5JTB1/oH37JiLkZUS6dt7yDg3GdwjLuGdQ5rNzM+PhW1vvZxrrirXRk0sEsmQC4oOID7SjkEwAAbJ14/DVTWDRMYVEoLQ+HyWSwE3L47Hvu9LG03DBivwFuLLljCml13kfrcR+coPlG2OoLUsHEtDvcnnP7K5gwYYJled++fdj32UXL8rdn9g5rXK5V9eL3VfOs1lzBgQMHBPt8+t4vgfbj9uPFyNEX5Jt72tdnKix/5xdVoLnZtd9MabkBqwduUfmny7x+XKtWrXIY4N0XyGQyEMRoRkYzUcLPnD9/Hq2trYiNjaXBGMXQrYQgCMKP1DRy//tL0AKAu9YILav27P0LciYZIVNFoKxKPP1a2tRspFl5sV1vPMdZUKmToeu1F6pmp8WKlomPNNiJHwAntHxnzbeQNnWGpczVugZcbzwHAHj3s2AArKUM7/rV1x2HpTcOfnErPvMN5k21t/axLhMii8XSRbZleiBl9YIXb+s4Q4rYm+3KTGS4MXvv417RMhXNyVi6aKpdGWvOVejdio/GC1E6PYv9r+7AiqVZAXNtr9/6NArPXrIs82JaQ5MRDU1Gl+rwdbB5awHwo+M9A2uTRfflxL9BQUsVypWzziTqC2ErkMjKCozrq/DsJazf+jR0ehYniytxshhYNXHoctzv6xBC5YzXXCFTUlKQmsqZW46koEWMDWT6egBJA3/XAa1PAhIAimVA6HLXK7o+EDdO0+F0t8iQLnT0qQfba3wSkHve3rF/u+66ZTKx6LWK42n7IWU0Q1kORy9tbW04ceIENm3aRIMxiiFRaxQwZ84cGgSCGKNMTQBqmvzTNm+JExsTLVg/b2o34iMNqOxJR8l5nV25uelxdmVuy+ZepC90JgBosyuTPSNeUObLr77GbdkdkKki8G5BFAAtZFKhqBUWFiooU1F52VKmtCYYgN5KlGDQrjHblQkPC8W0qB4oE+Lx3qu9AiHDNBA7SKxMvNyAS5L5Fqsca1ctsWObNkmK8F4DLnROg9HICTbWL+s6PYvK2iDctGCwzA0zzdA2GgRj5k48K5kEAvexQBK0AC42lLWoNeonnxIAcsbuPFlnEvW3sLVp0ybs27fPZ/UHiqgFwHJtyaQQuEwORZQqyKuxvaqrqy2iVkpKCqqrq+nBRrg+EdPXYUKDVXD4NgDDMcDTZAOY5XBzovEIghqs0jE2ARhGjPaqSuft8dgmpZBJGS4WoYmFHmqP2+/q6qKLiBg2+/fvx4QJE7By5UoajNF6L6UhIPyFwWCkQSDGPctygJrDwJmKeszLGNkA8VIpA5mUhVQqfBRIWT2q60148oi4xdC8jHi7MorEZFzoTMCjz7SJlmGYIEEZJigIIf1d+Ou5bIFwZKlPzoiWUSbE45G9EyzWTDKrOMkyqXg7VySzsHcvC6NRLxAk+P6LlblkzkTev1hLvdbikU5vX2ZKshKF36Rix26jpYy1GKITGYPgiAn4sGgB9h4YFLSGG6QdAKLn3OvQ/dAl8UZEJBjKYso60Pgvf3w7nnhog8N9606/PWLXuK21mKs8dN8a7Ni+IWCOh3ByH5Mwgvg8/oC30EpJSfG4DlM/BSsmxia2ghb/XOTX6xnPLdVJ1CKsycrKwv79nmUNfu2111BfX497772XBnI0vgvQEBD+wmAw0CAQ457kBGBZNvB5MfBx/gXclps5ou1bC0k8B0oTUa8JgVQqtEJxxurHZRCz0HLG5ryFaNdwgpa1cARwAo9YrI2bfx4OgBOnrLO4AZxllFiZR3f1Wf7mXcac9R8AdrxidLiPbR0AsPcTYO/BIEtfrK20HGUD5Mp0Wsq4ImjFK1uhlGuh6c9Cc0efw/1mxHTiqVuKIMm9x+XzUXRej0efaYPRBMxKl+NPvxmM9dWf/47DckzSHAQlcRbFN26u97vAYE2gWYvNzpyOk8WVY8IV0V169axAZJVJhRaQ7rJgThqMJuCzkxVuldP2mvHL7bd71f3wgQcesAhbnlpquWNtRoxe8osqBpJ3ACFmjcDN3SftnS5DflEFpk0Cwk2tI95fMUELEGY/JAhvMVxr4sOHD+PLL7/ELbfcggULFmDq1Kk0qKMEErUIgiD8zPL53L+8I8D3n+HcAt76hQ+ttgydkHSWgmEYSAHcducXDh8OUgAhNts+2vclPrLxcBoqvKZYGZhMEIR3tvngeuCdf+OAjZYi2L/Hvh13y0gBHPzrZzj4Vy+X6bIv89G+L+zGIMpkAsMwWLhwoSUA9+SF94mO4aLJDWBxHQAQKg9xKmplxnaiL0iFvlPHXb4s5i9aYfl7bkYweuuvQNdQM6BATHZcsKkdaDqOCYtWYMs61/1Y8k+XoaCIC2q+dP4M5C7kXkZ37trvlcs8v6gCJ4srLQIKLzTq9KwlnhowIKAOWPzpDNz6J//woSX2i0zKCCwChxJubAmVMwKrr9EcY8ubMUeMA+6/nozFgjlp+GDPEwC45Aez0uVAp2tl//HG41ixNAtL58/A3Q++MOx+VFdXY8eOHRRTh3CJk8WVWHP/c9xz/utkqDXX0N7ahhQfxai+Y+vzA7HnAKxbDXVXEdpb633WnvARb+tyyN0Pud8/CVpEYNLV1YX9+/d7bPHlbyIiIpCamorMzExkZWVZ3OPHOiRqEQRB+IlPioSuKpcb+wH0cxPtxGTXK6p1r12FRA9VdDSdgADAYDCgo6MDX331lWXdQ/etEbUi0fSFQRnCiVrNHY4tXUeLG1NB0UVBP3lR64XXD2FWuhxzM4Idlm0pvT5k/UoAt0zx/PjOHnnfMhGTSUREFwaIiRIGxOuLFX4lLi03oLxKb+fKOBxhS2OMQpchCpPDLotu93VcLfdmBy1QyCcPjKPQvZZ3V/VkLBbPSxcsv3B/N373+6HLbVmntMSe4683b8C7HVI8LcId8g5q8a04I1bE+64N66QoeQe1SJQY8V+zfd83MUFrrASFJwKbjRs3jlpByht0dnaiuLgYxcXFAAZFruzsbNxyyy1jtt8kahEEQfiJI8XCrydtbW0ArgHg3flcRetWu0FBQWDA0AkIAIKCgsCyrolQF9siAEQMLPU63M9oAnQhMQA4V5PO6NdcexGqAvb+9+Bykx6AE+2zuaYAIb2HkRzb7vVx+dNvYtBbf8Xh9q7ISCSmJIpv7O8HTL715Wqub0NrQxumpgvdeZgk4ex066apuHFzvWgdnog5GmMUyjoXcuen04ycAL++2a5mKOQDmd0kQhdbmWTQ/Wg4Ip9CzgBdLa699Pa0eb2Pq1atsgSIT0lJQVVVFd3YCIfw4o7JxMLYz/0O/n0eWDnTd23yGXIBQDYC3zwcCVq22Q8Jwhds2rQJFy5cQFlZGQ0GhCJXXl4eQkJCsHbt2jFnxUWiVoChVqsp6CFBED7FbDYD9MF0TMOoYtGfmonqCiWayj73WTsTwtbgq4v/xLdmaNCf/w5CWqchdMoKr9RtcX0UIXbKasxb4UDS0esBH8dsLD15Hq0NbeiT2GTtsjnm0EnCeByhA7HivJEVMT5idP+I+VhzwxW2FHIGbFczohKWYHLOrQ730zSegPSk92MKVVVV4ejRo0hJSRk3bh7EMK57yWCiEqmUs2DUj0C7vKA8XdHs03YcCVrWyURskbMaDCsFI0HYsHPnTuzcuZOELRv6+vrQ19eHvLw8AJwV19q1axESEjLqrbhI1AowVCqVW6LW2bNnR03fwsLC6AQThIu4E5uotNxgyQZIEJbJhWw6jn31D5+2ERU1HVeuqPCtGZoR6VNc5t0ICwvF9csNATHGqQu+j46ODrRf/sCl/Y393ARP22v2SNhSydqRFXEaDe1mTA7rDPhrkEmaYwkObx0onk/y4C1hCwCiEpciKee3jnfI+S3wwXLvXwOpqaiurkZqaipZaREeMTV25NpKVTahuhXei6llpVM5ErSs73diyNEFIJEuBMKr7Ny5E/v27RvXrohD0dnZaRG49u/fP6rdFEnUGuX09PSQWEQQo5SXtx0VLOcdUSHvCJfaev2UEjdqyiZRywfk5HCWQHxcAsL/xGXehdjYWFy//GRAHE/qgh+gqqrKdVHLxELbax62sKWa6Hh7wMTTcoJ1f70pbPmDqqoqpKSk4NixY7j55psprhbhNikjKGpNjQU0Oi9WaLa6v/UP/u2qoEUQvmTTpk3YtGkTysrKxpTVli+EOms3xT179iAiIgKrVq1CZGSky4lQzGaz38aERC2CIAg/c6UROF4IXGnQYPs6FXIyJ9Gg+JGcnBy89tpreOONNwAAW7duxQMPPOBw361bt6K4uBglJSUoLi7G1q1bsWfPHhpIQhSjCU6FrUBm3759XsuAOJSwFaVyT9RKjbyKqsI3LcsN7WYkRvneRdNaxDp69Chd4ERgv2+0AqW1vonhZe1eSIIWEUhkZWUhKytrzPTH+jnMf8jyttDV2dlpqfPQoUN4+OGHLUlRHOFqjFhfQKIWQRCEH6lpBN7+kPt77bJMxEeraFD8BC9mAcADDzxgsdAqKSnBa6+9Zids8eLV1q1bAcAiaOXk5JCoRTjFmbA1ngIp2wpbCvngxFinZwWB5YciNbIOVYVvCdbZewPK6eIjxj2+DEpve58jCMK38AIX/z9vlebNYPmdnZ04evQotm3bFrDjQKIWQRCEH6lpBBgGmJcxiQQtP/Paa69hwYIFduuLi4uRnZ0tELa2bt2KkpIS5OTkWKy0cnJyUFJSgj179ljWE+Mb89WzUMgHU0jKrFzqHAlb4w1rqyyFnHEYTNoR7RozmKQ5dkH6xeiLDawv9QXF5fQjIUaU0lru/5EStgiCGFnErNKGa82l0+kC3rWeRC2CIAg/cmJA92BoKPwOL0JZx9LixSsxyyt+f+ty2dnZNJCEBfbqWSjkN1uWZRIuSDrvZudtYcvX8bQCMSbJkpzpkKkaLeMtBpM0h5vQ/2swK2b+aWFfdmzfgB3bN2DGjBkjduxfl1QAsnj6oRAjxsqZQHXr2OhLXFwcmpub6aQSxBA4suYCXBO6QkJCMHXq1IDuI4laBEEQfmRqAlDTROMQKPDugwAscbWKi4uRk5ODH/7whxZxi7fGys7OtrgbWsfe4l0SAQo0T9i8eNnEj7IVtobD9OnTsWbNGq8dqz/jYzjjj28fxo7tGwAAT/z4P7Hy/ucAyBClWii6P591cUnOFMu6gqKLgn3yT5fZrSOIschIBqb37b1UCpPJBKPR6FF5uVwOvV4vqM9oNAbsfY8gvIW1NRcvdPEfxWzdFuVyOVQqlcvB4v12P6DTShAE4T+W5QA1h4EzFfWIi1aRC6IfeeCBBywxtQDgjTfeEMTMso2pZR1zC4DAmosXvcYTjHoiTGGxggxYhKPJmGNhy9pFUaFUAInJDuu5kP+g3brUyMGyy7Zzpl8KOSOIT/XtRXFIjFagqiofx8sT7erQ6Vno9Cy2rFPinsQj6JYOzoI/3f2Ga31k9QgxawBM8MkY5p8uQ+7CLKxYmoWe8nfcLv/1mQrBckHRRex68xAi6PIkxjDVraNX1LIWoSQSCbq7u7n7p4eiVkhIiEDUUqvVAID+/n709vbSxUKMK2yTwPDWXGq1Grfeemvgv1fRKSQIgvAfyQnAvWuAtw8BH+dfwG25FCzenzzwwAMWEcvaKssR1q6HthZZo81Cy/Zrnduo42AKi4HR5Luv3GFhYYE1aNfPIyoqEVWevIA5ELZkEm77kpzpePDlWszNiBrGAWoBAKZ+FrqBuZtCzuCTU82IV7agScsJWrZxrPjlvINaYN1qj1sv/dQgsI7yJnc/+AL+9spjyF3ofpys9VufRuHZS3brSZAlRj1D6DtjxUorOjoaZrMZV69e9biOrq4u4SNMrYbBYEBDQwNdR8S4Z7RljCRRiyAIws8kJwA7twF5R1T41R4NAA3e+sUkGhg/4UnmwrHiYujrmEzDJeBErfbziMR5z1/CRISt/939IZbOn4Fj7/4KO3d5nqI7v6gCvKhlNMEiNpr6WSiCGTRpJ8JkYqEzsE5jecXFLff4GFbHATsf2YjjBWV44fVDXh/+ux98AQvmpGHxvHSXy/zx7cN0kyPGLmM44YRUKrVYVoWFhaG7u9tjKy0AUCqV0Gq1gmWj0Yj+flK3CWLU3R9oCAiCIPzDT18X+qe3tbUBuAYAUDhxObKjlsaSGD7DCQKuSEwGo1SgtNyA1XE0lu5N1OyFrTX3P4fDf34cOx/Z6HG9O3ftx8niSrv1gwKXaxZ1yxZlYsVSz7/WHi8ow5r7n/PZ+BWevSRqdeUNbN0xvMk333yDczWF9AMYp5hMLIz98Kllq1h7gYZM6k4fTAgPD4dOp4NUKkVLS8uwRC2DwQC1Wo2uri6EhoZCKpWis7MTOp2OLlCCGG3vUjQEBEEQgcfqx2Vu7K2lASME5B3UIjm+z60yvJm5J+LWuwVRKC034FyFHquXB+CAhMSIr+9rJqGHwgAAIABJREFUG9zO/+2PlzEHwpYyNGhY9UapXC9v64LIs/FHzzstt//VHU5Fr89PXRAsH/7z407337lrv0+suggiEODj1fGMhNDkjcyqvkAmhVv3OL1eD6VSCalUiu7ubly7dg0Gg8Hj9vV6PSIjI6HVahEeHg6j0YiGhgYKFE8Qo5AgGgKCIAiCGFvIpEB5ld6tMvv27fM4fkLeQS3OVeghkwKhVgHJA4a+Nu5fpFX/FLGcmOVnQYuHE7YGx46PscVPgofzzzRgDeJsH08Zyopr2aJMt+objnUaQQQaZrPZr+3r9GyACloMlKFBlnuTq3R2dkKv16OlpcUrY6vRaBAZGQmj0YiWlhbodLphCWUEQfjpHYqGgCAIIvA48pzrJvW/zFOh5DyZy49ntL1mq8kCPLLw2bRpk8cxtRxZBMUrWzFx4nSUXu707wCFxHAiVtOJQastXWtAiFmClzIRi61/vOHYEurmzU9ZXAydWUDlny7Dxgeeh07PYknOdBx791cOj8HVOq3dCm2tq/hMi2Jima0rovX1+tB9a7Bj+wYAXOwvgKEfNzGmWJIzHbnz0/HC64fw+W4pKk4acfW879p75Adrcfzrckyb1IR7lzThxN8DYyYok3Aukfy9zlVMJhOCgoJgMBggkUiGfRwGgwEymQx9fX3o7PT8OXX06FGy8CIIf74/0RAQBEH4h5e3HRUs5x1RIe8Il/lQ11Djcj1ZqdkoOU/jOV6xdS3hv367a33j7SDxydHXMTmiGbPTFwGAf4Ut3lKL/zuQX8xshK0VS7Og1VZDq71it+/9d6pxshiQySRIT24GIC5A5S7Msrg55c53HFRdq6221DkrXY75sxQO97UVu7asU2Lz0nYAQERYAqIS5oGJiMfLL7+MMxcMKC3XY26GHPMyg7F48SIsXLgIDANcfv8nAIAPSoRp2YwmThRT+NHyz5eJEygY9fgkd346dj6yES+8fgg6rQ5GjW/vi088tAFG0340NzdB29gUMDNBYz/cFrR4vCVoAZxIxgeLN5vNYBjP7jfHjh3D+vXrUVpaCqVSSRc6QYz0uxMNAUEQhH+50ggcLwT0BuB/fqBCQoyKBoVwCbFYKZ58/ebJysoaVsB4azp6QwEA3d3X0Hzd6JU6e3p6AisDYtRMdPTJvF6trbDVWv4ZqgrfsttvcmIyABnuui0U5//5K5yHvQVW6oLvI3XBD+zWf7p7iWjbfJ1zM4JxMm+z6D4z73gKCQkr7dbzYnzCgpVIzPweAKCq6lWo5MG4cU74wDKQk5OGxMSbAQDnJWpojFHolw1OJmXSwBC1fE1OTg4KvmmkGxkxLrB2Tx+pAPmuwLsxeipoEQThf0jUIgiC8CM1jcDbH3J//8cNkxAfTYIW4RrWgpZ1BilPBa3huB+2a8x2x9HVq8DF1lRcaGlGt8E7QlTAiVoTZqK9qso3L2hSBlGqwJxksVfPAgkr3QpE74yyzoWITgROf/a/wPYNkEqYgJr0+oqc7GwStcY5JvlkXE/8DiQSCcJa/gagbuDeslOw3+WOzZg2bdrgiutPCivqPQHoTqB/iHBQvcol0KmWDtkeFMuA0OVDtucqnrrFEwRBuPTORENAEAThP2oaAYYB5mWQoEW4jq2gZTtZmJUux7zMEBTlu1evp8LWlnWcu0XeQS16rdwetfowOlmES3R3X4PZHDhClsFgQHt7++CkXOZdizyTyUQnnUB571IAnDtqZM5jQNZDovtNm2CzYsJvRZclWQeAwsMO29OpBtvTRG8Csl507UAdtIeYAwAOOy3KP6N0elbwfODRMJPpQiAIYliQqDXKmTx5stdftHxFT08Puru76aQRhBUnirn/yeidcBUxQcs2g9TcjGDkZLknau3btw+bNm3y6Jg2L22HTBWJsioFnSDCbaZIP8bn9QxuXfsoAD5IvH9gGAYMw0Cv16O5udmn7RDEuJhsShwnjiAIgvDKfYaGYHQzefLo+brR3NxMohZB2LB8PvB5MdB0XYN5NBzjDncnto4ELU9dDq3Jysry2P2Qj6WUlRpFJ9UKSe49aH+1fvy8VLJ6mBg5dDod2tvbIZFIkDNVg4tdCSi9qMfcGXLMUDciKCgIXV1dllg2SRFGqENU6NJxoqiYW+1IUWuejy3rlFg/pcSyrrw1DuWt8di9e7fb9VUVvomqwregSEzG6scHP0L2lL+D53cfGNH7B0EQBEH4ii+//NJ/7x80/ARBEP4jOR74HEDzNQ2armnIBZFwiC8FLYATtYYjbBHeJ9AtG6yPL++gFlg3EHy+thz46Nfc30FpeP8LLQAZQqNkCI1MQ23hcRwrPD5QMpsrf1KLx2YL+6sIDgzRJjqM+yBXXl7udtmua9d8dlzkwhj4sCwbsL9jb2UQJAiC8DckahEEQfiR5ATg3jXA24eAj/MvYF7GJGRnTKKBIXBnViGudgWjrmcRmjv6XBa0FHIG0p42oKvFrfbKysq8lvmQ8A78ZFimioQiXAG2a9AdjlHHQaaKBMAJLorEZNE6uH3sXfr4/dmrZy31QT3Rrk5+u7PjW7Yoc4ieHAIAnKvQY/XyW0T3eGybsB5VKAOpNHBErTtmnsHVz/6LLkrCq9yS8pXl76qOq7h0Su52Hd9c0uBsSxJ2PrIBrIvttetU6OhT49KpN1xqo7DKhAWp3LTxfA0DVeJirFiahZMl5XQSCYLwOyRqEQRB+JnkBGDnNiDviAp/+gcA1OOtX5CwNZ5JULWiTiNHUBAQNyEEzR19gw/ugfgk1oKWKnRw8s+JWq0CAcQVSNAKXJLS70RS+p1263fu2g/gEPIOavHac39zWofRxqjnhnXi+9+8+SkAlS7VqQplkH+6DCuWZmHF0izRffJPl+GVtw9DIWeg07PY+chGp3Xmny7zWlZFd1g6fwYe6QeMJhbNzSd80saSnOnInZ9OFzQhSmpkHa4U73W73D8/qscHVSvw3/9vk8vxOaMUGkQpNC63Fw3gykAM0H/VZiOuMQIrc2eh6JvLdOIIgvA7JGoRBEH4iZ++vkqw3NbWBoBzVZmwaIX4xFTTCaOmQ7Cu9F8GrxxPREQEkpOTERERgZqaGtTU1NBJ8hNqeTCuXdMiOjocVXUNABxnEVTIA8eixdc0X3gP2trQgDmeqsI30dHR4bP6VaHMgHAFyKQMZFbeQsZ+IL+owrLM7+cMmRR46a1DgnWhcsZSn9Em4cDOXfst23l69SxC5Qy+PlMBqZTB3Q++MGS7ioE6FHIGkxfeF5DXVu7CLOQu5IS5Bx4/4Zs25qcPKeoRxHhDxdYByKSBIAjCY0jUIgiCCBBiYmJwbSD+yo2bnQWXts14qh922xEREZg7d65lmRe3SktL6cT4gYttEQC+heo6Ggtrmi9wlkMRkasD4niqCt/y7UualMFbf/sIOj0LmQQC8dJkYmHsB6JUnCvqK28fdliPQs4IrJ9eeuuQxXKLX6/TD8b+kUk5i0DewsoasWMh/MNoyX5NiPwmQ2UAjDQQBEEQ3nhfoiEYBS/xPkwp7W3Cw8MRHh5OJ40gAgyTiXU6CY2IiBBdFxERgc7OThrAAIYXGcYajqwVAaC/MjCOMcIoVB3/P3tvHh5Fme79f6vXdHfSS/adhAQSEtawI44oCi4oiqDHcXDQM47HUd+jnqPzzjgL1znjNT9lRt9zdFSOjuCgZxxhnEEYURwFRmQNmyEbELKSnaS7k/S+/P6oVHVVd1UvSSfdIc/nurhIVz17V1c9z7fu+36kyx/ifa48b49KPf7CEkCLSjJZ4N9hTf6kVIBVFq8+hbj1n1BbCAQCmWMwyMnqkkAgjDPktjMB6OrqmlDtJaIWgTB6Pnsp/De4HxxJpnceC4LTjYgWveyinYhacQsTo4j5fq8lglsqAivzbcC2kccAk0spduFlCbEzGTctFwmlwM9O3Mw71vdm27UxOSRWWAQCIUz8Ny1h4j4SCATCuM1byBAQCARCbPivx74IOLbq6VyU5CthvdIUQUnJY9ZGElcrfuGKWhORZQtmCP790yfuCmpFFAlclzyX28u63KmUFGtx1Gf2sGkYt7uFc6Zh8byS4WOUqCXcXL/PQgKZfAIKRKEsO4XINCQgMyUBQ0NXcbFjYpkOMnG+GBfMjWuTxqSeLVv3YMvWPbzfMLF8I4wWdW4B0BCburluy8w9VKWkeJZbBAKBMNYQUYtAIBBiTGM7cOAkYHdoY7brYVNTE+tuyEDiacUnVrsXLrcXSWrJhO4HNzA3lxeeWh+9xZ6SwmussEXxBCx/5DKwY/rCk/cItm3SXGMOL5IiFbVSErCgxICuri509tkwYNeQHyuB4McNi+mA6C6nB6okFZBTIJ7Y1AWvqRNU/hzxhZzXDpzrCavupOwsuCjl6BaOXjvQzH8e+d9D/S23QmGm8siFQSAQRndvIkNAIBAIsaOpHdj+Cf33D+6J7e4/jIhVUFBALLTiEJ67octPhBCwEJI5L2DO9FycuzA2cRkHBgZw2y1LkaU8FVG+wyeqx00wOnamPvwJEcdl5pW3/zombYykPbHE6QIGLJ6IhNOhoavo7OxCZ2ctcrUFqO2Z4L+3YGLDCJBrDQAG477fep0WBp02aJrGFr6bbWE+/2VMv8kMo8lMbtrBfmNON274ERC48Qv3np8HlTI/qBhP5w8d9mPH7gHs2B2N8CByAAN47jG/oyMUtAgEAiEaEFGLQCAQYkhTO0BRwLzS3PhpExG04nORHaa7YZ/ZA1t6OeRZfVjsOYWSuW+NSXsGja1wtr+J62aEt3h9atMavLZ9Lx54ckvcj/XJcxdZl7RrEaHrSKWk3SyZBanTFZkb4sUOKTqu2jDomDvhx4cWAKK9s+DghOi7QacNEKn8YUQtvU6LilllAccK83PRbzLjTFUNm4c5zhXMwklzuqqGFciEzje2tAWIbKG4afkSwT5FWs5IOHS8BjcuK8dQ3R/GpHx/4fzwiWpsfmYDNj+zYcz6RAQtAoEQa4ioRSAQCLGE4v1HIEQdfe+/hJUuZfGNbID2jWuT8OCyvqCx3fQAkB663IVzpuHjt18AADz/o/U4fKJ6Qghb1ypcQYuJ55RuUCM7RYGzl4zQqjnCVoQbTAw6JrbLoUpJ8WKvTUb8xZ2bli8RFHwYQctfmOKeK8zPZfMxQtlXh4+JpmHKY9LMm1WGilll7Gf/89w2RGoZ5t+f/nGyLNuydQ/UQeKoOd1gYwoy8fyYWH3B4vsBtKB18txF3rEHntyCf9m4JqI4heEIYJtf3YnDlfUhBS0mxtZEjv9IIBDiHyJqEQgEQoyhKKDjqhnzxqk+r9cLl8sl0A4irY03Ho8nKuMutDsf7e4ENi6L6PUnEq+Fze9//bScE8wjlp4RtBiWLyrHwjnTAhZfhNHz1KY1IdNwF81qJYXmlhakq+jdU6fmUsgpuI4X8F5NApmHREhMEONasWZhrKX8BS0AMJrMaGxp4wlWBp0WpzlpmTT64XIY0Ytb3pmqmgCrseOVZ6BQKtkymLLDFbWY8sbDKou9N0oBK+fza5wNLIRg3A2ZjQT8P4cLIyRt2fpJREItdzODUM+dUIJWklqCAYsnoH4mthjb1s5K0XmI1xv/v5fU1FRyIyQQYggRtQgEAiGGFGQBhwB09prR0WtGVqp2zOt0uVxwepxk8OPlQSyT8URGp1s43YCFv0sfrwy/LdTP1jmwHQoAyZANuSEbovPOzOzD7Mw+Xtrff0ov7ii9bxfN9z5sgNeWBNg6MX/+FMyfnw8A8FR9Dq/HDGluYUD7Ks/bsWN3Dy/WipjIsmReybiLWqF243K5vZjINpN/fP25EcUBa2pqwnvvvYe6pnbcfes83H//evKjHEMOn6jG6odemvD94ApWQvSbzCgEoFEpMWS1o7GlLUB40uu0cNrt7Of6iw1s2Yz1FbeOTz7dj0Rt4DOyuzuyAG71lxrY2GFjHf/L66VdeFVKn8hktXvHdNfL8RBORyNoAcCNy8px4zLf/aqhoQKXL19mP3/xxReiL3yEjq9cuRIAsH//fgCARCIhNxsCYTLNpckQEAgEQuwoyAa+vwbYvgf49HANHVvLC1TMGLsYWxPhredkQi6Xw2azsZ+dLi8GLB6eUCW2w5QQP33iLp6rCddlpQ/AQb/0WaW+tM89BhyurMfRU8D7nwNAId4/BABt0KopyGSzMGAph/PNtiCLncgWayNZgNFtCV6P2GJKDKeLtpAIp2z/NgezoOAGeebusBhtRhrYvqCgAKWlmSgpycD99/8L+UGOMZNlV01GKEpPSxN1XzTotDhWeYb9DAAl04pA33louDG1GEGLyVuYn4v6iw0YstkjaltJcRH7t1A9Y/G85brgjaWAHu+C1uHKemx+dWfIOtRZC3mfv/rqK56YtbiUDnrPHKMoCjfffDNuueUWXr6Ojg7s3r0bly9fBkVR8Hg8bHpinU4gXDsQUYtAIBBGgERCwe2OTlkF2cDmYeuWVU/T//9+xti13a3Kg8UuYSd0D63hOz7u/uIkTHYZOwEXWqwzec5W1eBcVfWYtHOyTDjdbjc+/vhjAMCBI9Ws64dQDBSxxQQ3zsoLT8WPpc1r2/di2YIZAQv517bvhdXuRXGBAnNLFRGVuWP3AMwWL5K14tcHs5jauDZJePIz1APZUDcAwJbua9vZOgeq6u1By2bGflaJkm07tzx/uOXv2D0Q8a6CI4Eb5D5VZkaa3BjW72nbWztBiA7f2/R9DDjlGHTSAeeFfgeTlXmzymDQadHY0gbLsCDFuDNyxSX/mFr+9JvMKJlWhCGbPWxBSj9sncV1c5w3HNtLyJVyLBirmG0BzwVZoBVvNFApqRFbaB09dQFHT10YdRsqL/A3Xjha82d8+OkZTC8u5MUgcw22w2K8wt7//C24vF4vKzxKJBLeZyJ8EQgTByJqEQgEwgiIhmn7v269ReBoLQDg4+aKsMs5W+eIfFKtzGEX//etu5N3LtF2BK1XPXj7KO1yZnHxrUu4eZj/X/n97yFNVGPH7gHexJcbD6Tyf3/Iq+erI9uw4wsJqurpRQ3XQsbl8uLeW+biift9b2sPfn0E1RcrUdmqY/MkayW8Cb1QnnPtzWy7/C1lrHYv/unWyPIMWDz43h3zAvL879cNqKqzik7oH14bmOe9ry6iqt6Omx9+E1p18F0KxQQtZtxefmMXnv9R/AhazC5cDzy5BU9tWoPnf7QeL7+xiz1utXsxt1SBTbd64TT3h1UmHbcriXediS0aN65NEi/b1AuviRahqPws3+K2LBvP/ronqHsQ4x76u1+kwdLWGFCeP0z54bY9WqgldkxRdpGbdYx4f/t77N/dTj2AB6IuasXzgpuxvOIGYC/Mz2VdC4Uso/xdAc9U1eCm5UsCXB2NnHRc4UtoV0MGxlpMLAZYqB0f4x2x58JYBGgXE6xCCVpjyamLQ6hpOQ/V4WrBGGRpOjnS9b4XKBkGBTINigDhSkjI8rfu8hfCCAQCEbUIBAKBIEA0F75L50/HC0/cw4tf8fIbu/Da9r1wugLdEV2UErcvHMK0+XI8/7oTThc9YZbJ6LezQnmK1a1YNEsOmXwatu0yCrbDP880SQ1+vUGPn+zMRVW9HVaHF0nDopbVITwRv6usFQ/e7MIz21LoPBzxQczlYt2U05j3zCw8+6oNThc/nonYhH/dlNOY9WSZaP+F+I+7W9BQfQX/vmdu2BP6X29oY/tvtnihVVM8oS7chQtAWz+FCkAshNXuxZMisa/kMgpv7djLLlKee4wWMbnBw5m34lt37BV12wvWNqe5P+gui4Ekh50yaNlSHf0/5/yCxYWRjR23bKY8f3j1J4/L/UMtsaMgoRvMTy49NQ3aJC0yUtPIVqsxor/uKN54pR15BflRKzOWopZ/IHh/GJGIEZ8YQUvMza+xpQ0Oh7gbIZPf32rLaDKzVl5iFl3xhjzKqy+x58J4ikuxFLTCocfkRI/JF0v066oB3nhlpShY0cvpol1El8ygLX39hSt/4cvr9aK7uxt79uxBZWUlDAbDpAkcX1RUhKIinzsvE9OMMDlgfgdFRUWYOnUqmpubY9YWImoRCATCNc7fP/hZwLHnf7QeFrsXW7buQVJS4vA6lwIooKNfgXmFQ5hBnUHFzIU4fd7KCk6M2JSSbBhO7svjNPfj/oU9eH93ApwC0c7TsjLoOoZrO9mvQBaM2PKIHrf+WM6KR8ykUp2oRWpmHpt//Yb78em2vwHowMZbDHi+nhZkuK53/nnUiTp0dCpQaKjCxrUV2LF7gI1nwghaQnlgB8r07aiYmS/Yf6E8TrMRJUvKgb1SAIH9F8vD9B+ghTmVUmTh4g4U1GSy0S1qXS5a0Aq2hTuzc9Zzj90Zcqv3YMKWf72EsSNNQS/YNGoNCvKnoCA3DzKZHBq1mgxOjHC6nHA5XWiqvYh/XZ2Oj473wWh1T9j+MKLWvFllAdZPhfm5rHsh91iouFUlxUW40ukL+s5YezG7JBYOH+OWwbgThstNy5cExPhi6hlLuBt9RNMl0Gr38l7OEEGLPzZyaeBzkjteKiU9XjabEf39QxiwazBg16DP7GFdHJkXTeVTNKzgBYAVvRiRS6VSoaCgAEVFRSgtLZ2U97lVq1aRm/0kpampCU1NTTF700JELQKBQIhDPnsp/N0JPziSLGrZxVjWCLH5mQ3YsnUPtn30FaZmJbDHB10GfHoauL2iH+VFMpw+7wuizfDFV4d4ZXUaFTjTqME8NOGfbq8QbM/n+77gfd53xoDb5vVjao7vGPdt8+8+OITZ2baAPI/c1IXZeRYA8oA8ff0X8fk+Xx4pgL3DeeRu6/Dikt8X/zxdHZ0402QY7v9Uwf5faWvBsW/+wX62W8w40xK8/xmKKhz7xuf+cKW1CZ1DGizSGqFSZ8NqcQZMuMOZtI8GZnIOAF/vfsB3wtQFr6kTlC4T/3THDOzYPYA0+Wf4+g9vwmvq5JVB5c/B9Wv/SLfH4YVseJ0utJhwubxwujEmLjEEmm/PnkOi1Aa1SoP5s+ciLSUVCQkJUCoUkErpaR8x1oodDqcDKpUKjxuSsf1Aw4QWtk5X1aBiVhluWr6EdR1kLLS4whFzrGJWmWA5Xx0+xgpXjOjE5GP+NprM6DeZUTGrjD3GBIw/HUEsLEaMYxhJGZHCFXvkMox650OxeFaxELQYF794tdCix8nLGx/uc0+lpOD2ADPSG0BRQJ7OgV1VC3iB/ZmNW7jWXQBQ3TzEC7FQkDWA2g4pDPpW5GWfZ9Pdv6ALLor/tqp1qFi0zZ2ddaLncpIlyDbwLcdkXjv+VJkRd2O/bAEdHPZIZa3geYvdi6JcLfLSlFGr0+1283aTDoeioiIUF/O/j4MHD47p2Njt9lHlX716tZCgFNPv+9ChQzGdWhBRixAzOrt7ySAQJjX/9dgXAcdWPZ2Lu5Zrx8wdy5+fPnEXOuo/gtqZhEGnAQCQm52FtnYA6IdsqAcqpSpARPnL4SoUG3yPkIz0NCQonQCGROvSac7h8AkFL0+ncRBTg7RPKM+ZxkEsyxF5qMkH0Hb5BPqtvgDhOp0WQBecA0YAiWHlMVqTAIjHeUrS96L6bBMvT1dXCuYVivd/UWkXvjnxd16ebLUSTnMf1t8yFTt2OyP+/qIpDgVcc1IdMGhlP87Os8B6xRroZjecTy6jIJNS2Pnm8zxXVyEOHKnGmkdeIjeBsRC1zp0DAOTn5CI1JRW6JC1kchnkMloEJopW7KAASKVSSKVSyGVyfG+5C69/cTmu29zY0iZqCWU0mfHV4WOsMOQvZjH0m8xAS1vIus5U1fDK8rfsOlNVwxOkjH4B3yPpD1PHSMqIFK7Yo1KM/AfI3z1R4Pk3HENrvMSlWIhoo4ErcDEwoQU8Hs9wvCzh788ZhnVxU8cgmjpqhp+HPos8df9VTDdc5bfFmYxq4yLescHBXnR01GJwMHB9RFFAtkGCtQuUaPA7d7kvES/vzKavL+X43OAXzpmGJfNKeMfEYnr6xxJ8+Y1dvjFrbsblmo5RN9pms0UkaBUVFX1UXFy8gSsONTU14dChQ2NqbeRyuTA0NDTi/KtXr/aOd5snCkTUIsQMImoRCMOT7HbgwEnA7tTi9z8Z32C1p76tR76rGyvXzEZa0Rp24bX/y4OA5zJkQ91QKQsCJtVp6VI8eHMOMqfdxboh7tv/JeD8X9G69KoB/Ptz/8FZVVN495XHgraPzsMXP9595ZGgeSpyLmDePX/iL5b+cn/QPHesnI3MGT7Xuprq87Bf+M+I8uz7dB9g3x5Rns7aneio2xXfEwWuf2cQ5FJ6Qh1K0AIQVpp4RS4FoKTgaTkXWUZTF2RDbp5IPFYkJiZhSl4+EpRKyGS0oEV28YoPpFIplBLaMiElJQXzpvTgTPNA3La3MQwxyugX4D3S85GkDac9o61jTO4bfhuOjBTui4xH73Dj3u/4LIi9LedA6TIBHW21I9cacOOmy5Co0tk0G9cm4cFlfUHr8Lf+FszDseaFLkPQYvzLNxODbgKy7cPz+NOZeRHlkWsNWPk4f+fDh1c5cP9Kytem/DkBeUTHYThPs1GOFqMM1xfYsW7eCVD5cwL6JJdLse8/TT6rK4H63v/Khfc/V/GEsJ99mIZ9/6nAQHsHm04r78PStM/QOlSMkw1ODA72CopZDOsqvMhICbRoumhJxvPvpwDwRk3QemrTGlSeOoWU5GQUFhZGfedWrvh18OBBHDrUMaJyGGsnm80WtiDkb5XFWDiNtZWRy+WC3W6P2IoMoAW41atXb+C2++DBg2hubiZiFhG1CAQCIfbsq5yKGdmXsf0T+vMP7imLeh2HK+uDnj957iLyywG7w4GBAd9E0WZ3MN59olisVlzt800+hyzWkHl6OyLfja23o2XM8wwNmnh50pO1aI0wz9CgKWT/BfMASOiuRrK2ICbXoTrERFgepqjFpeHkO2g4+XvBc+UVG5AA/KYPAAAgAElEQVSz5NmJO3GSUZDJ6AUk5Hlh5/OaOiEb8vBE4rHCoNVBLpNBqVBALieCVrwhoSRQyBVIUCqxoFAX16IWYfRwN/SIKqYuWK9wrD4Y69rBJt+1xhFyGEJbgieHl4dXX2CeUJuAOM3GiPMMP5X492RLr28cpDq/zTlo3NbugLFg65HqkJECZKQANnA3EOH3SSaXwNlaBxvXWtm/PpsMAH/DEafTjWe2peDXG6wBfc7TXELebOBkgxPIkKHysgteLzBF70R6igpTpqQgXSYswF60JOPfX3NDohqZW+tTm9aIClYvvlgPk6kH1h4Ljv2jCQYNkJ2dDY1GA4VCIVom1wpLiNHs0MyIWP6ue2LPt1WrVnkBcVe98XCXi9SCjIu/VRbAiICHyANdaG5GhiD+cTgccDgcQdMoFIqgN5l4YDTmlgTCtUpTO21WPq90bCy0jp66gANHqgUtY9Y9+iL5AuIElyY9ZnGmnHES0mfVj46KngsmkoVD0cJ/RtHCH4ie3//G0lG1/ZbHjwged7vdaDz1LhpPbRvXscxMT4dapYZUKiU/rjiFklCQSiTQa/lByj84kjy8mN5HBulaWWzJyBp0MsLdZbmq3o6f7MzFlkf0gqLdwiI573+AsegNJWjRQt1IrADFBKaGhgYsWrQI+/fvh8PhgE6ng9lshkqlYteaCoUCh09U40hlLY6dqcfJcxfDqpO7C3Kf2YPvzMvAklJ+WAiXywW32x3wd8jnfFFRZVFR0Xx/IQgYf8smm802orhZYtZkxMUwjPssGYL4Jy8vD5mZmWQgCIRrcmXD+29MWPPIS/jpE3fhhsX0G7mX39gV0SSEMPa4NGmw2mNjreEkOxGO/mcs8qZYJpMFbAc/nhBRK36RUPR1oZDzX0ju2D2Ave/+GPt3ElHrWsDj8UzKfqvUcgDOSf3dM6KWXErH86qqt+O5dxPx8HXpmKZpDQgeH9bC3WvHxcQb8fx/90AyrHtp1SObQR4+UY3li8pZcYoLPUfsQZpOjjRdP/YdvoDZhRp2d8dp06Zh+aLyACsvblmXGxvR2NgoWr/F5kVaEjAwIDz38XqF5yaMeAUAxcXFKCoqCkjDBHofT6smxr0wUqusWLpFXksQUYtAIBBiviAGztS3jZm1FgC8+s4evLVj76Qe51nFMuDQtTtxBib2roJiE1gCYbIxkWPOEcafPqsWC7+zIeB4e/uXEecJaRGbvCJAROi7cgZoHkEeiMdHu9SXh9WrVwXksaEv6uOQnFMRcZ/E2odz3wYutmUUtGqfsPVCkx7fqzBhXUU3XJKEsMQtmdeOBLcJmz+fhW8aegCMPk7bA09uCZmmx+REj4kWJ2taLMChHgAnUZavZtM8uP42ZCYrUVRUJCh08a6vhgY0NDQEPP65H65evYrTp09TFEWhtLTUO2PGDCxbtky0TO7Of+MtYnH/983pqaBzm9WrV8fcLfJahIhaBAKBEEMKsnw6y6eHa3D78rKYtMNuvgxT237fHFQiHFFKLvPt5BRuHi7c9ACQqXeOSx4AmD1dGnb/ozlmkTDaSWqkMTUGLD4rgpl3/0owzS8e/xAAsPtkHp5Zs3DMrsFgLuoOx+je+DscTgwODo5Z24OVPdq2EwgEQjD6rDpB9+r23V9GnCeUqOU1rEDRwtV+QsVPIOYmJ5YHeAfq3G8RsJUfU2Z/nkD73gkhUI1sHAwi7QPOiOYTax/wrfCCe1jYsjpogePP1QX4c3UB7i1vwszMPkzPFrfu+fh0Omq6M1Dbox8+4oFKSY3bTodC1LRY2L9feOXPvHNpOjkWzZ2OqYW+2GJM7K6ioiJByyouv/3tbylGGOrv76daW1u9R48ehUajwfTp0yGRSNDe3o733ntv3AZgpC6RAFBcXFxZVFQ0X8iqjAhZ0YOIWgQCgRBDCrKB768BDp4CmtrN+NvXNdCo07Biftq4tsNuboDd7JtdGkT0H5mUYt3Vws3Dxdz2Be9zlmF88kTa/2iOmX+7grWN2QI8EkrSLkOXMIiU7FXYd7wz7HxPbVoDpxtYNn8GACA7e6Vguqr69wAAd9z+feQsEX8Da7F70WemRbKBgcaI+yHmggBgRLEp/PMHK3+0jGXbCQQCIa7pOwigYlJ01SVJAACsWrUq8kW3jEKSjIKL4/LPiFuRMGYbD0SJHpMTfztUDRyqZo9xY2mxl40vphavM263G3K5HA6HA/39/ZBKpdTQ0JC3vLycFZMKCgrwy1/+0gv4XA2B0Vtq+T+vR/L8ZgLUBxOxyM6F0YeIWgQCgRBjCrKBTdnDD8OntQDsWDGfjMtIeHfbUazbrJxUfdaraCuhqYmXACSGnS/ULkSbX92JLVv3AACWzp8etkuUpvQhbFybJLrI+cXntaiqf4h3zOLNIBcvgUAgEOKakcTBClh8j1KQigdBiwl1MBbWYlKpFFKplA1K39/fj97eXqqhoQF/+ctfUFBQ4J06dSo9Z161CitWrGDzrlixglUMv/zySzau5L59+6hIrKsYuK6E/m6EjHgFBLoSMhARa/wgohaBQCDEiM9OFeGzU/5m2HSAzY+bw3/rebbOQQZzMpM0Ax5TDf5wOPz5EuN2yBWugnH01AWkzvm+4AS2z+zBUN0feMd27I7MKiopfWbQ86MNtjykXEiuEwKBMO6MZCE9EkbiXl1bW4u8vLyI8jidga7ceXMeAprPi+ZpaGgIyBPKLTtZZQrIo9CVAEHcD6PZp1DtE4gLNSFoPbE97LSHT1TjgSe34I+vPxc0TpZQnmjCiFwMXV1dVFdXF9xuNw4dogN43HLLLV632w23281a0a1c6bM+54pdXPbvDx12IlyrPG5sLyJijT9E1CIQCIQ4JFJRYLyYyIHIr1WOV8sBzAk7vcvlZeOiAcCmRc24fyEdePaS5g4AwNWrvejtvYptH9PX4ewp/Vi1JBspcjrjtGQ6wK9ca8DNv+YLs889difS5J9hdp5FsP4/felFauG9PDFNrzeEXHSMhtTUVNFzJEA9gUCY6PzqV7+CRqOBXC5njxkM5cjLaENrV+C9OFllwjvvvAO9Xs/Lkyi9Dv394vfbAwcO4Pjx49BoNLzj+gQtAOF5S0NDg2D79PrpENsh0ZBgjrhPAPDOO+9ArVbz2mcwlKOgwI4rAmG/ipNb8fkI+/R//+//DdonZr7kP2+KdTysA0eqceh4DTY/syFoOkbIClfQijTtaOGKXVy3w6NHjwKgBeWbbrqJN/gFBQUoKChgP0fqRsp1dQSIeBVPEFFrgtPZ2Ymuri4yEATCNcaDFcLb7kjyAi1aztY5UFUfud+/1e6F1e6FLb0cwGnBNLb0cvQdHSBfyDUEE6gWANRKCnIphcPNGty27id4ZNk6AMD69esBKPCdOSnDKVNQMPs+3HfffThy5AgGz/4bfdjcj2QtHdhePuwSsfmZDWg4aRINOPyT725AzpINPFFLKg0eHL+7uwujcfpISEgQPTdelhQEQrQZrQUj4dogWWVCQ78TRqMRcrkcej0dULy/X4ZNtxXgwOluHP621y8PrfAweRhxZtCdinlTaUHn/f3NgnX1WQCLxcITxPQqHb63SoZD53oCBKciQysa+vNgNBp5gpPBMA0/3wSR9vH7xLSP6VNj+1BAXcXJdD0WiwUWi4Wtq79fhkfWLRLM498nbvv0Kh1+vkkn2D5un7jtY/okVhd37hWr2FiHjtdgy9Y9Qa20/a2vuVbdcpkv/qfL7XtJ9txjd4YUysYTqVQaEGOLsewiXHsQUYsQU1xuFxkEAkGA9cvFXAqFxKeKEYlaDGfOtGHdlNDpVEoqpKWWXKtHdYPw7/rbi2ZMU0d/rOTDTzKnC5Cq0qHKMcB6pSkg3Z++jK1Fzvbdvbh/gcC4Jqrw4aeWcWuH0+/rOdqqRq7ZjGWO5KD5ysuDv4GVS0fTquAT+8uXL2PGKMJucd+k+zPaQO5XvbPIDYtAIAgylpagNqkWwBCSVWYszD6Phv489Fl16Onp4QlON1akoyBTg0Pnenj5Vxcdwcn2cvRZdQGCU2G2Bj/fVIYDp7sB+O6RC7OrcakvT1DQKczWoDBbg8b2IZy4YARAP9eKk+mdgYUEJ6Z9N1akY/u+JgAmAAjok1hdB053wyYdBDA03D5fHv+6uO0ryBLuU7D2fV11lc3D7ZPT6Qw6FofO9aDXaAXAt9oyW7xI1o6fqMUNUP/DB1Kwbm6nwBzOgJWPC7uyblybhAfLa+E18fNR+XOw8tF6AHeSHzwhZhBRixBTXC7yhpwwebl1fgNuW3CZd+ypV4pQkj8+gc7lUsAK4HyLDknZUgy0dwSILUy8Lq65vNXuxdk6B+6fpYfTbOTnySnE6fPCE6I/7Jfh/3soMM+3rWqIuSC8/5UL95YEHv/gSDIYt4AkNW3l02f2QKJKx7cXrwaIZ3KtHufadaB7zGfH7gE8+FJBgBAm1+pF45WJ978AO/5b2LLtfJsa37tJFpBHnlcKp3MwCsLQyHAMdgI6oKurHsAK0XShRK14hhvsNaD/jshi0rlcXjjd9EQeHX3Q6fThtUGXCZcmFVa7N6auJwQCYfwYL2u6ZJUZyapAwYmx2mJEFoPBBXCm3guzq9Fn1eJk+0xW0PEXxABgwNWCJFkvK+jQllR8wcm/rtZeGVLRxOYpTm4NEI+4dW26rQDnLvQiSzmIJFkv2yemfVzxiKmLbl86Oux1yFLW8/JwxS2n08kTnGDT4ILzOmQp65Ek6xVtH1fcun5WCk6b1yJLSdfFzdNv0/LGghG4mLFo6x7CidpedFy1YsDiYV8uhfs8eGrTmhFfG69t3wuXywuzxSdqec3dgi//hmcl7F/+LzKtg1a0m5Ow94wTXi/w5D0ZcIqWQyAQUYtAIBAmDY3twMGTgM2pxfMPpkWcP6G7GsnagoBJS8gHgIyCXEan/+XbHmxe3Q2bVEef89jwkz+ko6rNzopazP9WuxdV9Xb8ZGcuttxrh3XQCpnXDnXZEjz9/8RjcZxv0eGCOw1liWfYPLXeeXhhq/ik//3PVZg9rQxl+nY4zUbIvHZcuCJlY45xJ4NyGW2FtOPrbGy8HijL9MBpNkKVqEKNuwynz/eI1vPcu4nY8ohP2FLlFOC5dxNFLeCq6u348dY+/Pbfpwbk4b7VFur/dG0NK2xpZ8xjx0wuG59djZhxYrhhSTHSZY3INgSvu7q6ekILW2L09vZGlN7ppif6kvw5QMcBKJWK8DLqMuDSJMNqHyCiFoEwSeAGuB4P/AWnnp4enjDT3y9DP9ZimvobVqRKVpmxuuiIqAUWAFy0XIdEaS8rAgmJR/51tfRkoAU+EYgrbnEtxPzdHy9aUgPq4rbP6XQG1NVhL0WHvZStS6h94dQlJm5x8/nXxVht9Vm1aHbNRne3E06nkyeK5abT/wDgWHUPvjjZE7ao9dSmNSF3Kw7Gq+/s4c0N5TIKMHagZbAIdruNPz9wJiLT4BYUtTyt59GXrsXFqxokJXlBUcDfT0uQbdAgJ9tGfuwEImoRCATCZGb7JwBFAf98d9nobugyCkBkrg4qBR3TobZHj/vfvx73ltMCzZ+rZw9PZui4D1y0agpmCy1s3fPbPHyvohk13Rn45rXQuy89++sezMtNwoI8D52nIXQA8Odfd2JWSS4W5CXhQqMDtT16AIFCWJJagj6zB1X1djxfn4KZ+SbMLcpFY4sTJ5p7gtZRVW/HrT+W4+Gb6V2Ttv23XFScYkWenhKs+j/d+P4/0TtV0hZa9pD9n1WSi7mlUzl5hr8/6fgIHTIpBeewG4LTDcDUjQULZcg2SCIWteR5pegz09+FZYJuInDlyhWkjCI/s+04gUAgxAOMoNPsmoW65iRYLBaUlpZi/vz5nFR3w9T4V5gadwcIYowwYzQa8eijjwaU3/LVwwF17WlcBIVHBovFAo1Gg7vvvpuXxz14CVdOvMh+XphdjeNXC3H+UgpyU+nYXqtXr0Z+fj4vX1/VbzHYc55t36xZUvz0bR0WlWhYwYlpo8ViwdDQdbQYU/U8276c4iFsesmLBdPUbF0ajQa33HILry6lpwPG6lfZur4dSEN1tRuLSjSsldj8+fM5uyvSdUk7/4DBnvNIVplxsNmCL47ahutSsG3kjsd11wH/9kPg1kffjuh7DXe3YgYmxpX/y065FIDHg4tXc9jdArkB03/4r8LlSfJmot/WA7skHykpwG9+8xv23BM/J787QmwhohYh5rhcLshk5FIkTE4OVtKCVkZGNt76O/2m6675ipACQ9QeAn6WQX+uLuB9Fgpk6i+e+fKE52ZR16NHs9kQUZ6qejsuNamgUgYPyqVVU7A66MCl51t0ON8CyGUqJKklPJN/MT78WjXsAhieQCNRpUe8U2VVvV3QAszl9iJUbKlo43R5caxvGmzNCqD5DLDrCQBAahEdwIrp26wSJf7xj104su8NZvoPlyYdruY0CO0OZciuQNFC4TqTsgKtvSiKgkQydtd8sLKDuSaGg0qlGtPyCQQCQYgHb1fCekX8fOmUATz9hg1rFuuwKjUVpaWlvPMNA6kwNfLzcIWZu5fq0dzcjNWrV/NFkYF/DtgIxClx4d09/VizWAegJ6AuoJQnagFAW1sr9h6XITNZjruX6uH1egXauJgVtRhOX7Lg9CULKorVWFSiEWxjQwK/jZ19Tuw9bkJmspwWnABcf/31AWO2f1jUEqvLaDTiu9/9Li9N3xUNKnc/IVjX0hkaZOjlsFgsAW187rFObNm6BwMWT9CXWk6Ou+ijd7hx73dCz5uEYlzdtJSO5WCxewGpjGySQrimIEoCgUAgxBKKFrW6rpohUdNCQofRMyJRixsENBpMRBcpmYxCkoziuWI6XcCAxROWsOVye6FSSqBVIyJXzmjAbedYYLV7eTsVAcANi8WtAw9X1oMRrKrq7bjz5vt4Mb+cbloUe+6xwLzJORVIzqkIu20KhQKJiYmi52dkjG6X32Blj9bSKlTbiSUXYSKi12lh0GnZz40tbWRQoswfX38OyxdF7tIdqcXO3uMm5KbuDxBVxHh321HIk2fir0eN4BjwhF1XRXFkO8J09jnx1t96AAS20ZBdAUB4J93Tl+hA9JG0kRGcIm3j6UsWlJdL0dDQIPi882fp/On4+wc/AwA0NDTg0qVLAWnEnr/+362TO7czdcF6ZSjia0arpthNdQ5X1mOmCnB07kdDfx5aW1thNPJjfZaXl6PbFFhObW0djl+kd8X86KOPAs7fd9995IdNiM38nwwBgUAgxB7KPYgsPQWvF5hfGPmt2T+ellzKf7s36R5uMoonTHEFI24MC2Zrbd/k0ZduLIUtuczn+sltg9OFMQkkLibm3bisHDcuE15UvfjaLpw9fxFyKbBgznS88NT6sPq17tEXsWQeP7o/I4Ax0ILZcB6tAarkVCQkJIiWq8opYNNGNM7D6YOVLZPJ2PLP1Ue2I68qpwAJhhBtT06FKqcg4rYTCLFAr9OiMD+XJ2gBQGF+Lhpb2oi4FSFOp7iLPSNovfzGrqD3S/Xw84Bx8WbunzWdSSgbvneJ3//EwwLIvHYkuE2gdJmAjru9LF1+Z59TtFyVf73N4d0veYRxv03OqeDlC9UnoTaGmyegjc3hf89sPoE8RUVFgqKW2PM3EsEyHBiL+6+O1kNT+hAAwD6zCCqHDA11dcjMzAwQqC50ydHQQ8dTY/LMKlFC681Gb+9FAMKi1o9e/BuJGUmIzbyfDAGBQCDEjhXzgUOn6L+llku4fXnkcbWcbr6gxUxgrA6fiXosdtUTFXM4Ex4m8PyYPOAEhC1GMEpUDA07+mkgl/LFq/EQthhrrKykbnQgHSolxcamirYbor+gpVJScLm97ESVXTxoAy3EmO/qbPVF5C3aJFg+0265jO5XXe1ZGLvrcLGDvuiCbWDw3ocNAIpw+0oVCmaIX6T0bpc04bh7ymVMuiQAybh+rXjZEokEH3xNl3+2rj/k74XZNfSJ/+jB3NJk3CxVYfoc8Qzftqjw6XD7d+weYN+WEwijZSyCkFfMEn8GFebnAiBWW5HgQGLINK9t38v+TQ01AwMNIfOkAHjxRYSVjmZDwLmPv3Hg1VcHAVwa/keTmQDAcnD404MB+f78aQteffUb0bo0LuFr6MGnvgnSPuE2vvrqqwF1cfOI1eXfRv+4ieG2kZvv0z8CGzZsCJkvBcCFrw8iP/9/2GNvv/22SN9eDTEmwLuvHoQObTh7vBa27j4UpYLdJXvPaSfa+z24s0IuauEvk1EB84DT563QeBxIiuBarqq3h8xDBC1CrCBTKwKBQBgFSoUCQ0OWUZXx/TXAwVNAU7sZ7/zlGNJSy7D2em3Y+d1ZM8G4iTGCFncCM1676oUr5sxIM8Joc2DQrgGgCXCJi+pDTkZBpfTt4KNSUkhSDmFGOr1oON9VDAvU8I+hNZbCFjPpK0z4Bmn6JGSnJuBUo5YV+KI5Fi6Xl3cd+FwbqYh3yww51sMxQWZkNCAjowTF+TnYd7wTMhmFZK3I9afNxN8ODGHqFBvuCuJC4i9k+W9eEDDGCjruG5PvrZeCt51bvkpJBf29MLuGMrHRklNsWB9kt/XTNVZ++Qoy6ScEIiQqjzeMaBUqTf2lBigUSvKlhYEd6ojzcOPweb3RuUfv3LkTO3fujDifUKD4UNTU1AQEfB+rNtbU1MSsjc8880zY+X7/+9+jpqaGd+zo0aNh5+eKXzUco6/U1FSkpaXhj//w/Z2sMmPBzD7YTK24dOmS4LxCLpdibqECDdWR9V8ulwLu4HOOeJlvEiYXRNQiEAiEGFOQDWzKpv9e9XQuAHNEohZ3oS8kaI1VjKZIYcQcD/qQpx8ERQHHW2bzduMbDxyDXaAyAK8X0CcMwuIQXnSMtcVWenoSvF5A6moEMGdM+sp1QU1SS5CkGEK2rgtK7QJ829DHE/xG4vYoFMeNooCurnokaPkWCgvnTAtwS2RYtmBG0Hqee+xOyGXUiCwOw3HDfe6xO1kXn0hZMLso6PmV15UFLZtrpUEgxJJwRC0AKCkuItZa44T/RhPRErkIo0fIykqMY8eO4dixY1FvQ29vL3p7ewOOL1myBBk6Cnv27AEcJgBa9lm3ZesebFrcCo+tG2I2gdcvLEV6lxRHT13Ac4/dicOV9SjO7YBmoAl//Vy8PU8+fCfe2kGeaYTxh4haBAKBMMaolHJY7YGxKT47VYTPTvkviGsBADPv/hUOHqvBP47XhSz/bJ0j7gUtwOdWN2VKMoxdg4jF3Nxq9wLKqWg1dsPrBToG0nnCDBPritlBcSyELWYcarqKkKQcgtmm4RwfThOlt53+rp1JCUPQqwahUZzH3OIynL1kHJX7J3cnTG6/EhVDGOgyAtCw5X/89gs4efIkNm3aFLAw2z7G3/sHb/5izMoeadu3bduGxYsXAyDC1mRnrFywCRMPavBy8PMhRK6xcEklu+RNPLgimnr4HwDUHLXhlrl61F3uQ6ohCaWleTAajVAqlVi7di0AYPfu3bhhyQyszy3HmkdewuZnNmDzqzvR2dkBvVKG0tJSVkgrLy9HeXk5qqurUV1djReeWh+RqLWkNJGYdRGiAhG1CAQCIQ7Jzl6J765biUd/+lDItBNB0ALAtm1/pR7ZWoegmDMWcON2We1eyKVAuzmdrtvPBY8J3p7EGU+usCXqRhcGTF1MeYAGA3YNr27GYo1uk89lMhILKpfLC6dbeFzzdE54vcDAQA9OtRjh9fDTLJwzDR+//YJo2YdPVOPuR1+m43K5vJg7cxr2/eFnoukPHKnGmkd8vn8nT56ERqOBRCKZtL9tj8cDm82GU6dOsaIWYXJDRC3CSOGKXBqNBrm5uQHC12TG4/GE8cx0TZrx6OnpAdADQIcrfQBgweLFi/HKK6+waZgdDF9+YxfrFq1WUkjorkZqcTpmSPMxZcoUPPXUU+QCI8QNRNQiEAiEOCbcOCvxLmhx26lSUKyoJLYrX7TRqilWvOIKRlz8Y48lqSUBwhYTN2okyKW+djhdvgDr3O9MyBrMavfC5faG9Z0GG0+r3YvjrTkAcgAAUgkwYOPXxbgHbn51Z9AFOLtbY4gX+P47O3k8HuTk5IS0JriWXWw8Hg+ampqIGxEh7ug3mQN2PRSiu7uHDFYcIpFIIJVKJ/VLg5GgUCgmdf/r6urIRUCY8BBRi0AgEOKYcN7gcwOtR2rVM97QApGwqDSmDzu/nRD9ERMC/YWt0cT+soIWtbgCG3dcuG6OjFjEfLfc82KEEgi5wfL908tl/B3/tmzdA7lcCpk8sD65XArncAMrv21AVsX36fId/GC0zz12JzY/syFgbMOxIriWLQ2YhSeBEG80trTBMCv4Drz9JjOGbHYyWFHi8IlqMgiEmLNz6xNITNRArjVg+2fAf/3HD+F0g/cCy6VJR5GhFUWGVvRZq3Dycxs9J9Dqse2v3bjhOzdg3R3LyWASYgIRtQgEAiEKKBPGZieoSN1SVEoKSYohlKZfAkVRONo8G9Iov7R1uSamhQmzCx8zpi63FzIpHXw8WPyqJLWEZ50UDkxsLqZcJr/Z4oVWTfFcIhm4wpWMfToLu0EKXSdilnpiYhf3GLetDJ/9twrO1jr0dlrQZ9WCypuD+vp6nKlx4GydHR5rF/75wWJMV9uGW0qhOLkVVP4cfHAkmTd+kxm9TguDTisaWJu7cCAQANpScvHixTh+/Pi41ms0mUNaa5EA8dHlSGUtGQRCzNG5TwMmQJlYgL98Kcf7v0uB08WxynZ54dKkAWgFACSrzOhv+JieP+QU4M1t9TBkTse6O8hYEmI0xydDQCAQCKMnQRnb7c25QkZSwhAkElqgyNN3s65+o8Xl8gZY40xEfJZsVER5QlnAcd0Jk9QSzEgzwmR3DMfNomNnWe3eoC57/m6JWjUl6AbpLxRxRZEktQSJiiFoE4bgkeYDsIW04mIELQunHMf5g8AzIC4AACAASURBVHAbpuCe578CAHz00UdoaGiEVqnAd+YkAkhBQwPw0q5PAAD79+9Hd+1/QXulCQndHVBPuZHcGABUcCxfhAQB7sKBQABoS0lAjowY1H2mqgZ6nRaF+bk8cauxpY0IWgTCNcqnJ+k5rK05GcCAYJqzdQ4AFYEnmgGpKp0MIiGmEFGLQCAQ4phwY2pxGbBrkKd1oKorOaqCVjR2/psMyIefrLn6LmjttJvO8ZbZkEtpF8RIoC27EJawBfgEu1tLatFqUqCwsAgfHrJBJqUicp1kyvn4YA9u/F747a02LkK5/gSAIXIhDMNYvvSbzGNaz80P/gp//+BnOHS8FplKMu7XAn3y2Uh2fjvu9RpNZpypqiFfAIEwSche+CQA+sXWc4/Rx9RKip2D3rA4uFvyj59eETINgTCWEFFrgpOZmYnMzEwyEAQCgWXArsGu8wuiVl7ADoEci6V4jt8VD3i9vqDnzhHuih6psAUA57uSoVUOoqHhMIA549bfc+f+iqSyNPLFcwglDvzw/mSsnOqMQk3V+Hr3AyjUW2C1lpCBn0B89pLY969CTU0hXnq7kQzSBOXffng37rvvPtz58Is4evoCGRBCXPL8j9YHPX/jsvKAjV8IhHiCiFoEAoFACIrV4RO0tGpKMP7UgMUTlboYkYwb/H6iwMTJcrpoIfCLiyXISuoedj+k+zRSgglbvO/K7oVKSYHyJqPVmDjiuhl3uHvmRfa9zi+UYWb2AFquEFOhiMb7SlNE6et7skTPdXa4odOTMb1Wvv9CHfDs/Qa88qd+MlATkEPHapGWW435s6fjq6P1Aectdm/ITUAIhLHm5Td2wen2bYYjl1F4a8deAMC6R19kd0YOxbEz9WQwCTGBiFoEAoFwLS2OhkWNUMcigbuzokxGoSS1AdqEQXzbOR12l4oXpHykBO4+SIWMAxVvcN0LzRYvVEqgA7T7p39fwt2lkmslxxW2mLhbQuMzYPGgqkMHmYwajoMW/jiqOW1SzFwBqjX8rb4NCSYsLJJB5rXDll7Bi89FiB71PVmo78kOOP76668DAN5/7w+oP3ueDNQE4pOa+QCAFPUArisItOaZnqfAmmWJ2HtkkAzWBKPyVCWu9l2lnxFeM5yUVvAZ63J5g25YQiCMJa9t38vbEIc7Rzl57iJOnrtIBokQ1xBRK87Q6XRUa2srWQkQCBMUlSoBVqtt3OudWVqMxcNv0tR+YonF7h0OPAwsnT8dyxeIv3HbumNvyIm1TjUEiqIwN/sijrfMjs64Keg6S9IuQ5cwiNruIgAaXtD0eIdr0Qbwg7f7i0rh7Kbom1RyynGDszOiME4XIJPS6UYTB+3GTZfhthqBf6cDwz7y8FKkFmXgbJ0DVfV0rLCNa5Pw9MMrOLmUsKVXYMfuATYuByG6UJTw7/PTTz8FAFy8SBYfE5WrliR8UjMfJWntKEnr4J1bs0yD6Xly7D0yhAutDjJYEwS1ZBA1pw8CAB6/LR2336gSvm+HcW8nEMaK1hPbeZ9ffG0XXt+2BzIZbYH+17efx/JFwd0PD5+oxitv/5UIYISYQG6fcYZOpyODQCAQIsJq92LfH34WNA0jai1fUILNz2wImi5ZG1zUMtsToVUOwGRLCpqOdnmjwg52n63thl5FWyIkKYdY17mxhrGi8reemkiC2mhh+spYVz332J2iaat272H/vtSWhVXX8Xc5ZALNkqCxYwWFjRs3IisrC3l5eQEiV19PL7HUmmDcfvvt7N/f+c530NDQgK5v/iUg3fQ8BZ69X4ELrQ789aQbbrdbVOSMhJSUFAC++H9cwj0WjbSRHHe5XHC54t+U12AwQK/Xw+Px4HStDelJFpSUlEBm/pqe96MNKZaDgIX5eRNrLcL44+9+eLiyfvilGP3579/U4EhlbUA+Js/mZzZg+aJyLF9UjrxFm8iAEsYdImoRCATCNUJ7+5doOPkOvC3n+Evg/DnYuDYZO3YP4Na5B/D17o8D8k4pXY/8knsFy5XLaOsfq90LuRSo657KWVjwLY5USoqNh+V0hS8MadUUdEoF8nQONPfLx13QItB8W0O7PgUTPl/fvpf+nl1ebP7Xe0K+vSUQCMHhilqDg6FdDKfnKVDsoS0iAfFdct/8xXqsWbMmZHmhFqGjK8cn0txRkYC33norZDmbX93JvojhxnFk3LE3rlCHVc7Lb+zCa9v3ip4Ptz2ff/45Pv/8c6xatQoLFy6EXq/HnDn0Bhy5ubnIzcmGQadFY0tbQF6JhP5upFIpAOCJn+9EfX09Or7+2jdCRMgixHr+ePJ1uDTp+PAI/bLS5fTN3eRyKV7f8RlUssDdblweCk6PBFu27sHS+dPx9w9+hqc2rQn6uyMQxgIiahEIBMIYwH2nbLU7x7QuuXT4D1MnHXBY6mfxeaUJQDIAwGnuFwxK7MwWD0KsUlDs2zsmVpSvb4FB5F0u39u+cLE6vKjt0aO2x7drY7SCzweDEbRe/sFVzE63wmvq9C008ufgpzu0OH3eio1rk/Dgsr6A/Mz5L99MhNNMj2FNZxKefdVGHxuOSVVjLQ44Js8rxcrHB3l55VoDVj4+iJeflGO2thFeUycUM1dg5eOD+N5qK743/yrvGLddTN6Na5PwYHktm+7W/2OF0+lm62b6SOXPYdsKAF++mQjH+Q/wj9c+YPvH1MNdODPWbDIZhQee3EJ+7ARCjJko8ZjCEcb8YWIJymT080Wrjk3bJRIJZEH8A9UJoTfHELNCIxBize0L7bjUB7x0VyuofFqw/e3rXwIAFs5OwKxpUsiGAJkqg54PqAaQojYjSSOBTKvH748VIDOT7LpLiB1E1JoAdHV1oaurKy7akpGREdXyBgYGoddpycOeEFeM5K0pc/k6nS6foMUcHONrm1nMeE1dY1a+XOYLBi8UC0ou87WDWXg43QgZN4qBseqK1e6Hs6dpYb3SxxcErzShvKgCp4c9uYTEQOY8VywsyykAIKePDVqHjw0EHIO533eMV7Ycs/MssF6xAlIdqOF0sHXCOujiHwto1/CxQV9emVwNp9Ptq5vp45Umtq0A3QebnyDKrSdakHs9gRBduG5CI5qLWTxQKai4EcbUSoq1EGb6xxW2xpsZBYPomCmFWt2M/uYmnDpg5p03mswwmsxhldXdfRBu91WocgrIhUuIKy4b8wHkY1XuLVi1ahUeeQT45n84v7c0+r+8+ZuRP/+XAIB/vFYGqbEZCd1DUE+5kQwiIWYQUYsQEdEW1zq7e5GVmQ6Hw8GaaMcaiUQSN20hxIZwFt0SCQWJRAKb3QGvFzCZzPB6vXA6nX5ijRs2x8T3b0tSS3g78XHhuoewDxcZBZkMYe3wx3UBtJId88jvi0AgjCvOYetalRKj2ik32s8c7rMhloHU3/3Ugy1bOwDQwfv1VBsMUvH0zMtaIaGr5Ob3h/+SY2gtufYIBAIhGhBRixBTvjl+Cvl5WUgxGCCTyxEPUym3231tD3oYVkhR+R4ofknUCPJSYTY0WEqKEqmdYo5SIsNDiR5Ly8pGatZUNNScQb/RiMGhIdjsdpgHBnkLdpfbc00IWuwDQ0aFDCI/0sVLqN0A5bKxWWwxLnXelnOBbpuTDSFLP1MXVMo88rAiEOLtfjzUA5VSFdUymbiJ8WKxxXV9jyWLCgawaVEzXJp0UNp07PqgC9CPbIw2rk0iFy8hroj0RVPd1aXIJ8NGiLdnIhkCQizp7O7FH3ftxfq7bkViooYEyySMGLlcBrnMz00qxOUkJGqJ6F+8vzydnWhrbYGxrw/9RhNsNjv6+424erUPXq8XLrcHLrcHduf4CqQ5S55F9emdE/L7Y3YeFLIGk8to4YthPGJtTcqJrakzQNjzmjqhUsb39FWv08JoMrP/cynMzwUA9JvMMOi07P/MMW56bjlMWqPJzJYhFASaQIjZBH6oGyplQVTK0qop9r7LdfWLeR9lFEbjVhktkjRurF3iANAGoA0fWToAfXbQPAaB+xEArJtymly8hLjC44lsTlWachTAKjJwhPh6JpIhIMSazu5evL9zN+bNmsEuNiYD+knU17FGoZBDLleMX4Vd3XA6HXA4XTCZzejq6kFVTT1sdse4C1nAte2yJyRoMe4ooay3rHYvLzaXXAbIpFTQPO39HrT3e7Bg6uR9PLb3e5CYmAqtvE80jcvlhdClHgvXJea5wRWfmGNCQlRjSxubtjA/lxWvmEUos4sZVxALN14OgTAhFwPDcRDjUdiKBwZcOdhXuwBL52YhRW3GjBkSmEwm0fTB7hc7z8zEjBkzMDNhJxlYQlxhSDCh3xaZxbrMawcA2NLLYSHhIwixfI6RISDEA0bTAA4cPkEGYgQkKORQKkcv6KhUCVAlJJABjZCOrh7Y7I64ac/Mu39Fu9JxoPLn4BePfwgAaHUvw4q7f8BLQ+kykJS7lP1stXtjIk74W2kFE7QA/jkuYq6MTNwYpn/cPhqyKahzJehv9KAYEnT1WJEhVcFr7gagQqLGjKL5vvqaLlrhNvt2u0rOppCQKUHTRWvExwCwZbd3RvdYXYMNgDrgOAN9Xs47b2z0YNA6iHllEtQcsAV8R1aHeBB/obEdSxjhiRuomfs3I1pxF5uF+bmov9gAhVIZdPHJiFl6nRaF+bnEUosQV9jSy9F3dCB6CwL/DUEcXiTFWNRyueJjkSyVSqFSqZA1dSlmz56Nf9z3IubMoXeIE4vBKnZv+d3vfoeamhp0HyGiFiF++Li5Yvhit+LjL3fj57/5Hc636ABsxKwSJeaWKpDQXU2nOXoAwAH6N6qZD5cmDe992IAfP72CDCQhZhBRi0CY6BNbhxM2h3PU5ZgGhshgTlBUSgqbX92Jzc9sQHb2SiB7Je/8gSPVqKqn36a9+2cTvrsuMA2TjhEmxjOuCiNAcYWoUIKWVi3cNm46ZiI2byr9+zhzWY6zdQ5U1dtZKy6mjuRsCjkLJChaQAvEB/82CEebL15NYqIJRQt87WntsvNELUM2hexMCVq77Ky3TLjHALBlt++N7rHj5/iiFLcPvvNJvPP0GHgASHBsj423wOSKjsz4Mnz4qQVOpztgbMcSrsVrYX4uvjp8LOB8v8kMp8OO9LQ09njJtCKeBVZhfi70Oi1bHlcsMxCrWsIkgRuc3emi76fj8TsWwzkBQpxKpVLR+xKx8CRMFDIzV/DvBWn1QMsFAEBVvR23rlgluLuh002/LPzx0ytww+IyAMBr2/eSASWMO0TUIhAIhAnMU5vWsBOLl9/YJZjGYvdi6fzpOHrqAo6eugBN6UNYOn86li8ogZpjUeN0A889dif7mTk3VhMUsd0UwxG0hAQ3brqXn5SjTN8Gp9kIDC+MCqcA98/S44K7DM/+uiesRRulTQcwMOmvM+53NatEiY23eHzjO8yDvypAjTE77LGNBmeqati//QUt//OMpZXQQpNrheV/nlhoEa51uL9VIWFrslNquARV3l64LB7s31+Fpk5N0PRMTD4hursPwjN0AqqcAnLhEeKGzc9s4H1+8bVdqK69yM4N/c+Lse7RF8lgEmICEbUIBAJhArJwzjR8/PYLEeXRlD7E/v3CE/fgxmXlYeV7/kfrse7RF3Hy3MWotT/agpbL5eUJWtMkNXAKrCmcZiOmeQ/gtz8qw7+9IYHTFT8uLqPFPMR3JYwmVodP0NryyCCsV5oCxtd6pQmFaMLLT5bh+dedcLpi58pKIBDCx1+ETlJL0Gf2sOcmO9u+SceWrQsAdAPohsbThvQQUR+6u3ugUCoDjpfc/D7ztMPQWjK2hPggb9GmQJFgeK4lkwmfJxDiCSJqEQgEQhxy9OhRLF26VPR8pIIW41rI8OLv/hK2qMXUF01hiytoicVgClfQAnyiy8a1SSjTX4bTTAc8311pR1JSGoqKlkMr70Oe5hK08j6UJF9Fxcx8nD5vZfNOdEyDfFfCSKF0mQACXZm5guH/e1oOc20TAKCuW49+agn93XDGdpqkBg+vX4htu4xE1CIQJgiMwM/cY7k7Ik52HrldgpXDbuxyrQFrNnYBCvH7Wr/JLChoAcBnLznJgBIIBEKUIaIWYcLwX499ETLNv269ZVR5bp3fgNsWXA6afl/lVHx2qmhUeUhfvmDLEoNbR3F2P4qz+kLWE2meSx3JuNRuGFWeW+c3hGyXf55wCCZqMS6HAHDzg7/C4GAzP4gnV5DQpONcpwGnz/MDkx89dQH6WQ9DJqffzMslHsgkw7GtXL4YIXNnFOLvH/wMAPDso3fjgSe3jPq3zI2dxQhVWUldMNmSYHHSQc0jEbSYBRkAzEprYl3i9px2QCKhkJiYCgAwO5NRbVyEpWmfwWk24p9WZOP0eTrvO58N4JeLDJP7JqvLAL1lvQ8qfw67sN24NgnWK/T9ofKyC20WPTIywBvbcv0JaOV9uH9hD7btoq3GuAtlAoEQv3B3PfTfEXEy097ugPVKE/vZY+kA9Nmi6Q1BYmq11PcAANISSRxTAoFAiBZE1CJMOBrbgXf/ClAUkJWmxXdv1UKXGDzmyYGTwIFK+u9lc7S4cQGgVJjDznPvylzMmd4Wsl0HTgJN7eG3i5vn3pW5KC0wh2wXN8+/bcxFgsIcVl8a2wG7M7x2cfNkp4U3XkweUEBFaXjtum3BZRw4SY9XViq/XTyBKquPFdsar/jGONI8FTP47dpXCb6oxc3TDjRdCZ2HKwI2tgN2R2C7/PNEk6OnLuCzl5z0hHuKUIpW3H+LFLf+ONAtbd9/muBsrQs4TuXTuzrJtQasfPwCG4R++aLyqLdfJqOQre1Grq4L+VQXarqKMGDXRCRocZk9TQvrlT5UXnYBoKDVToFCkQGj0Yju7m709fXhgoqCVt4HubYGCjv9GDxZ6cJvfnuVLYfe3dCNenMdFHYHTh2x4jcui+j5rVvdSEo0oumiFRI0QWGXhX1s514XjtfT28O3XHSJHqur68NvfuvlHav/VsG2u+rMIBT2wYBjkkErFE43r0wGJg+AkOfrv1Xgo6YruOcGA041upGRAQwMDMDlcoGiKKhUKrQOFaNcfwLWK03YuLYCO3YPwOmm3RcIBMLEFLYmOyZHMj67uASFhYWYl5yL55+fg/fff198ntbSBofDDoUi0FpLM/1JaLVauOpeIANLIBAIRNQiTEaa2oHtnwASCS1qzZ+RC/MQ/UZMTKg5UAkcPEWnpyigvKgM3f1AuqFGVHTZ9gldF0XRokayLhfd/VqkG2pE27b9E/p/iQRYc30ZzEO0iCSWh+kLAGSna4frCN4ubp75ZbkwD+XCPBReXwDgB/eEbhc3T1aqlh0vpcIcNM8v36L/r5gRXrua2ul6AOCO63OhUWlhHsoN3f89kfWFyZOVqkVxPt2uUH1h+h9uX7h5wu1LtDFkV8BruAF9Vi0aT2yGy9aFgf6mYWXiGF7gbFpjdwyLgHuAube+DVVSLhoaGnD58mUUJ7eiiPNGeqxiNAUIaRTg9QJuD1+8UimpEVn5DHnykZeXBwCorq5GVVWVQCojmCVH5Smg8pS/lZ6VTXPyMP1P7PzW/+EtaSI69tEe7rE+0WP19fQ/7rHaM/Q/BqFjEnQIlMnPgzDO154BagH85RBtCXfPPbNZQYvZ1t7sTCYPKgLhGhC2krVMPB1iZQkAcrkcs2bNQlnZbCxbtjaoqAVAUNACgNtvvx1nzpyBiQwpgUAgEFGLMDlhxCmAFimyUmlByzyUKypqHeLkmVeayx43DeUiXVEjKII0d/DroYUALUyDucLtqvSl52J3aMPuC0N3fxnyMo4J5tm+RziPzaEVFE/8+8JtV7C+MHmy0rS8PGL94fY/3L6I9V/oe7nUkQzgMtt/7vfI9EXs+2fyhNsX7phVcOoJ2hfumIXZ/2iRrJXA23IOyUueRdHC+wAA37TcRp8sCJ3/ug0/AADs378fjY2N4/6bdrm8aDenA6BFLYtTzXNPjJTapkTUNC6G1+tFdfV5nD9/Puy8BkN41nQ5OTkYGBiA2SwuWNpsNlit1jEbN5VKhYSEhKiVF2l7b7rpJiiVep6gRSAQ4kB8kQEqBTVqMWoku5e6XF443Zz71Ajj6TndtJu6yz0610emnNG0BQCSVWYkq8zk4iIQCIQ4hYhacQhjXTAWFBQUUAUFBRMyQELqjOuwwALcWrQeDz29BR/ceQI2znnTYC6Wldp5eUyDuWgYTENt30xsXJuEiimnA8QQbp50nQYWyUzUGeW4ZJ7pc+ti8ji1SNdJA/JcNC5CndGJ2iZg72b+27nu/rKAPBbJTHxWI0efPR23LxlCRakroN3+fTl5cSrqjDr02dPxv/9h4LXLPESLL/7tOnaFbtedtxfhO+l80UeoLzm5Ofhgvw7NRmB2Wg9P1AFo8UyIXd9kodeWidf/f/buPT6K8tAf/2f2kmRz2SQLBEgChISQQICQBBDR2uIlth4pFsW2R1HaHuvB6jnFitbanh+v/qS24NGeejtoq1ZsvYAXRHsqtlUrolwCBEhCCOGSG5CEXDaXTbKbne8fm5nM7M7uziabG3zerxcvze7O88w8M7s789nneeaRLNV6BfLX0jzkzTLjXy9TnzRrhU3S0L1jLXmYn3YB+dnquSxO1cdifqxvHZ/s9yzz0L9aMD7CrWtbTtcBZWcn4ycrfQMOf0EgAFgmL8LSjHafxwMFm1ouv/xyLF68GPfff/+A3yuNnVMwPro6+GdNwfoReS9bIgX5QkMa6iIFWy6XqAq1Qr0QSc5YjnGp3YiMjMTVV1+Nuro6VFVVoampCYIgoL29He3tnv3U0dGBmpoatLR4eh7ZbP57Gc2aNQu/+MUv4Ha7YbfbUV1djfb2dnR3d8Nut+Of//zngAOiAbWhItRKS0tDeno6xo0bB4PBALPZjJSUFEyYMAFmsxnFxcV49NFHA1/8OZ2wWgMfq2azGWlpabjiiis8F719wV59fT2/uIlGCWUQJYoiRHFgp3zKIeB6y/Gef0vr81tPOU6v7wEtoZbj77tETzlnuyw43WXE6b9uwxt/3Ya33ykLevdDLW63G//xi7V9f+WjkIcrERFDrYvV1KlTh6yv9+5Su/jrP300xlvoN7BZfX89tHekYkl2j89jpztmAtA+afFdJgaWlDScsGsPuerusSLJCiRZ1cvsas7HCXsbgKO6luk0zFHUcUrXtrx3KBsn7OOkUzVd2yKtV6MjDt4TQGutlyUlDX8v96zXvAkfa9YxZwowZ0qb/Njm/7sGX9Yn+12v6vOL8cBNbarH/mfvPThhb8Plk+IAHAi6jCUlDQseWgUAWJx4CoA6BDxdH4u39uTBam1EwXQjCqab8HZxLrZ86rn4njLd6RO2aW3L22e+7pkDqOkoJo+PDLr9Ub2t+MqG78PR6cSq5XGYPN53W+qbZ6uWsaSk4esPmbHu7mWI9nOS7QKw8dlt+PJg+YDeIXlf+QGqi9aP6nex8s5anv+Kmq8Jlc1mQ2ZmJsaNGwdBECAI/svo6urC2rVr8e677wYtd/lyz73XDQYDEhISkJCQID+XlJSE++67b0TasaenB83NzQFfk5+fj29/+9t44403tI+XvDw89dRTAdtKfg/Y7ejo6EBHRwfKyspw7NgxfmkTjbC5WZGYnx0BU0cDTB31aOqdhKSk1JDLWbVcfffUqPoSuEzjBrQu0vKScw5bSAGb97pI2wYAXcjWd5FjNsrleN9IpbQ+AcAkXeUcKHFgy/Y2dBx7BTHZdyCm73FBENDT0wOj0airnKZOEz7e3n/O8b+/4bFLRBQODLWIxgiXEDms9ZmtCWOmbSYnGCCKvUhOFFAwfWx8rG3avEMznL1kvnyC3FkrlMnhByoqKgqXXXaZrlBr3rx5Y7q9Fy9eHDDU0hNoEdHoND87AisUPdFLWiaivKoxaLDv7bYlTeofgKYB/6y0hFSOal0UNy8pO+/WXc6mzTt8esr3lzMRvfEzdZXz/RXxOPqu77oAwFfsdfjo9KSQP/s6jr0CAPjf//1fuN1u3cv9c88xlB+vHdLjgEPBieiSva5gExCRFk+o5RoT65qcaMDd10Rypw0BS/TQTRRvMgmwWQWfYSaDmfskVMGG3F0skpKSeDATXSKqqooBZKO7uxttbW0DLqehPRaNHbFhKafs/CSkhqmc6+ZN01VOT0+333I+O50Rcv0x2XcMcs/E8OAkIhqKawo2AY25i+xI9iig4G67IRJbPr34t9PRLUKIVw+hqKw8gYgBlrf/ZC8s6W4kJxouife0ycSvQSK6uMTEpMLR4ZmjMVj4s7vohN/nPjvpCX56enoGFUaFo5yG9tiQy/n1cx9gxTT/5Xz1q19FXV1d0HKkeRiJiGh04tk8jSlm0wAugI0maM31RHQxcHSLQPxE1WMRLa/qWra6aD2mFvx/qscEASg61TusoVYwcREdiIvqQFt3DNq6+Uv3QBw4cICNQHQJkHpXAcC5c+eCvv5vuw5rPv7Pyv6eTFlZWUHL2n+0Kmg5cXFxAy6n7PzEkMrx1zZSoAV4wio95fzpnU94YBERjWIMtWjMMJvUd/UR4icB7Y6xv2FRk+A9iTtRKA5XR8OW0ozaL58AABiccar3iRA/ES9s6/BZLm+WGQklJTCbzTC0l8Hs2IPm5nbMTOtFVG8nzNZEuJwOfPWy2SO6fbMmVkIQgNauWByrTw9r2Xa7vtu0v/XWW7j55pvH7DFSUzPynzEr7tqAKNdZvmGli/09x9DQsxXnzn3i05uEaKCk0CYuLg5lZWVBX7/nUKXPY8pgLDExEadPnw5azse7S30eKzs/US4nLi4Ora2taG1tDVjOR/+s8H2vVGbI5QBQlWMymWA2+w6T37qzFPHxvuujNG7cuKDbVnKiIegckERENLIYatGY4B1otXW6Pb1T2k+P+W0TopLAUCsEDAFVd0V8/8WH8OmeUmz9DP13UxRelJ93NgPOBhGv7dkBwNPT0dUrwukCeosVegAAIABJREFUXtsD4GXP7Zc8k9Z7Lob2VgNPfizC3tmOdXcvw9IlOQCAXXtLRuY9IgCiCDR3xo5Ym+/fvx8rVqwYkxOqHz161O8k8eEU7A5g+4orEOmsw9y0GNhstr59K3jta0Hz/5V/G41GGAyGgMsG+/vChQtobGwc3hOuvqGubrcbvb29+Nu+Wry/d4fPXd6IBkoZ2iQnJ8PhCPzDX/mZFhw/c8HncWVvpqSkJDQ1NQUt571Pjqsek+a/CnV9/rLrpOox70ArKytLVznvfXJc9d7SKkfPdj279bB8Dspgi4hodGKoRaOeVqDldI397bJEm+HoHPvDIruMwzvRNkNATziwa28JrlyUg6VLcuTQKZD1a1dicv6dfXcUFPDvq27EI/fdElK9T7zw7ohs756qeZgcdx7n24dusnNRFFFZWen3+crKSixevBhz5szBokWLYDAYMHfuXCxcuHBUHBOiKKKrqwt79uzBsWPHIIoinE4njhw5goqKisDv4a6uQdcfGRkJk8kEqznwRWK3ORn7awHU9oRUfpPdc5exVcvj4IYbN1xzPb5ZeOOItPWvn9yI0+fOAAAOHevBkfJu1d06I3r8zdHTv829xnR0iRxKS+ElhUjJycmIiwselj679bBGGepgLBzlZGVlBS1HCpC8eQdRAylH2WNMbzkna/vLcbo8554MtobHmjVrkJHRH6z+7Gc/Q0+P5/MzIyMDa9asUb3+ueeeU31/P/7443jggQfkvzMyMlBYWKgqc+fOndi5c2fA9SgsLJRfq+RdnrIu0sf7BkFEg8VQi0a1izXQIhqs7967CfetvhEP3qMvmNq1t0S+6AYAszG0+lbctQH7iitGbHvPtk0csrITEhJ0v7a2thbvvPMOAM+QRG8/+clP8G//9m9Dtq5NTU3485//jM7OTnz++ec4fvz4iB+LXV3N6Ox0ABAxNeUUAAMsKWnY8ru2sNazankcVn9dhNPejGnTukdse+dNdeCKdE94d9et03HVbTVw9gLSPQd6IpJ1luTmBxmFXVxcHJKTgx+D//PaoSEtRwqRRkMw1tAeeqC15YOjsEYLcoDFYGt4rFmzBqdOncJzzz0nPyb1ApYCLWWIpfWYkvT8zp07VWUqAy5/y1RWVvqUGaw+IhoZDLVo1AoWaP1ptw2ADVH12kOiupI8vVdczk4Anl/UgXyf1ymXdyXPKXKdEQsAz8XYq/9wAV2+b5POmtOqvytMczxfvJYklJ5rQ0HBVIhVxfLzQvwk1WTe0lxFAHDwYA1uW5KmrqD1PMRWz+SlwtTcvrO1CACek6jDFXbMywy+TMk/XP7rAOR1lNbPbE0E0HeXn6hJsKTo+IhQrJdnee06VNvi6eTgd718jgXlegGwpARfpvRcHIAuv+ul6QwC1uHdXiZRfWHts4xyn2i18SA99fL7eOrl91WPLczNxOK8LM3XBvq70+tXM7NJgNnoGeo4kmGWXpZIYcC//ElD4cLhpZdeQl5eHgoKCoZkO19//XW89tprYV33qKioQS3vcLSgufkkFqSbkGLzzG1zuDoa0g06wnl3S6e9GY7a03AmN0MUR+ai0mlvgcPh+Q6ITp3OL2saVfQEUeVnWnCy1j7oct7fdRrV5+19w9cV51R9c8TpDcZeeu8wbFaD3x8u4+LidAVjL7xzWHNdpIAtlEALgM9cWgy2hl5GRoZPWNTb2wsAmmFSZWUldu7ciTVr1mj2mCosLNTslRUskHrggQfknlre67dz504GWkSjDEMtGpX09NDast0TPNmsaViYm+lz4d30hbqXwJHybhwp79aoa2p/XSXtBW2d/b+ev/qhBYDWRYv3Y55yDZYkPPJmEqzvCzCZFgEAXC5R48SnP9Q4WhWPrz/kfYE+BZbIqZ7tsEvr01/Gg78fp3FRr7WMw28dnrbzrKOjW+wLBNpV2/7qh3r2Vv96XbOmHYBZsw71erUFXC9f7ar9vmW7WccyXQHXS5tnvcy2OTrbyyxfuGutl9mUirjoqZg1oQUdLeexr6IcRksSDJahG0a3r7hCdwjlHWxJ2xbOEGK4DDTUSkpKgtVq1T1hvB6zZs0a0hP+cMvPzx/U8gvSTZhhs8h/W2flYctvnfJn+VAZ7PxmAw/FeCFLo09DeywmT56MzMxM7W/Eri55qLFWbyZlObm5uUHDn5LKRnz0ZVXA74vc3Nyg6/3cm3tRdc7z+WsyCnC61O+vxMRE5OQEH2L/m5e+hMnof12mTp2KCRMmBCzj+JlGOdCSL5QYbA2rnTt3+h32B2iHUcpltL4zlT209AgUWBUWFqoCL63eXEQ0/Bhq0eAviOZYkJOhPpS2fdQ14Pmi9ARaZhPkk5eFuZl4+4VHsGtvCb577yaf8jqOvYKPd5dg5ZqNaCz+o2adymXjorV/LZTKufH7v/FZ/v0XH8LSJTmIyb5D/v8pi1arAq11dy/D+rUrce1tj+KLosBDhu5dfSPWr12p+Zy/5bc+9yCWLsnBirs24MPPynVf7L/29Dpcucj3hFG5rdK6e1v/5FZs2rxDvnDV+oX1ld+u05zzSVn+5QUz8bc//Tyk7fXn/Rc9aZTWfrq8YCYe+dG3sOGZd0IqU+m+1TfC2Qv86pn3VOVeuaC/d9Su/eX4oui43B5lDQlwdMfDbOvfD9bo/uNXq2eVMnS6b/WNfntMSctrBVQDKVt5geJdtp7y/PFe1vv1962+0e82AJ6wTqt+5TIDCeMKCwsxdepUXXf30hs6RUdHD9nn7fXXXz/IQEZt2rRpYQvhzNYElLYkY8tvnfIPCMrP8tFmoKFYRESE9HvBoEifzf56EftjdBmwEHSxaOvQ7rkbtEfyGfWfjR0xmDNvDq666qqAi124sCvg840dsbh96dKg673n2CcBn7/qqqtw1VVXoaenR54PSUvV7/4WsJysrCwsWLAg4GueefUTnKy1B/wOWLFiRdBtOnzqU+2LJQZbwxpqVVZWorCwUB42KP09WijXhUMRiRhq0Rg1Z2or8vJScdetnnslO+0tcNrVkwOv/noizFbPcLsX3myVJ9MNR6DlfaEkXYx7BzM2qwH3rb5RLjfQyc6Vi3Lw2tPrVMEW4Oll5egR5XVYuiQHlxfMVAUilxfMlEMba7Qg//9rT6/D9Xf4BitXLsgKGqjsUdzdTg/lOizOy5JDLUukIP/z16ZagZbUZlI3fr8B2xWz8YfXPvA9SVfU4W8S86VLcuTyC6/I9rtt1mhBNZwgEGVAp7XM+v/8Fq5clIN9h8pQXnEiYFkulwhnL+Q7BXqXL4VaUojp0zYBwjjlpNKL87L8zoslBTbS81MWrfZ5zdsvPOI3VApUtrMXePL3O+Tnx+fe6bfsjZt3qP7WIr1G8/jMn+mz7IP33IJl39uALw4cx9p/W4YH77kFSxbMwk13bdRch/G5d2rWryzH1TuwC4vs7GxkZ2ePmc9gKdgaLcrOG3C4zRPKSD1opeN8qLS3t+PcuXMjsr1GY3hOncxGTzbmrxexP/PTo3AHT0Uuel9/KFjvYt856yIjI2G1WoO8dyJ1fSYGM27ckQCfCRORMdWK1NTUQbfD6tWrB7UuerdJFEW8tuPX/i+YTAIskf0TXDPYGjqVlZV47rnn5GBrKEOjxx9/XP5/PZPHA8Df//53eUgkoD1kkogYatEotWp5HO66NR5Oeyyc9iZc2HPA72sdtac9B5jYjduWZOHfrrfg8LlJeOntVhw46hhUoKVFuhOcd2+PJQs8PRB27y9TvV4ZDrR1utFy9BVcuShHPkEBgNiIDrS6YxAX7fk1ff2TW7F+7UqfUErqobPx2W2qibivXOQbgOm1r7hCXseszBlyL6b1T27VLM9fLyfNN71X9/4pi1bLw+mUPbK07nSnFaoEq2N87p1yqKbclhV3bVCFN8r9JoVHu/aW6B5KV733Zd2Bl65tMAkwmQBHN+B0iXj/xYd8lleGieuf3AoA+Opls7F0SQ7+9qefIyb7Dr9lax3DyuP0S0Ww6e/4lnox+fPUy++r5sqS9u3Hu0vkUO7j3SVYuiQH966+EZsUwdTlBTP73899ZVx726OqHmnK8vz1Bry8YCZ2vPSI/LpP95TKbbTjpUcQk32HfKxcuSgH8+dkah7jyvK923rHS4+E3KOPwiciIgVlNYly+3t/lg8Ft1tUXVQMp+joaHQ2heEErK/3hzPEzSiv7cafd+xBbGwsrFYrpE8TvTeNoNHvQGntgJYTRVFHL05RVznBtLefDsO6ICzrMpTlBDu3kM6NpGDL3w9dSv7ODUhNCpikeaz8BUiFhYVBhwz6C6sGcufCkfruGSouF+/ARQy16BIwNysSz/zXBDjtLbCXHYTT3qL/g1KIhKv2NBwAplsTsOlH01F6dhKef6NZ9cv0YO9y+MQL7+LKRTlYsmCWaqiUFEIEGhqlrFeqc9GUWohiIwRBQFl9BoAYbNq8A+vXrsT6tStVF//Shf2XGr2rAgUbej3yo2/JgcAmjd4w0nC7wbq8YKa8Lf7udCcFQxuf3TagCcSlQGvjs9v8LqsMtLSGkwYihT/elMfCQGmdpEoBjzQMEwA2bd6BjmOv6C5X60LU+3jdvb/M5/gGIA/F2/jsNs2y2zrd8nopQ6oNz7wj//+ne0qxdEkOvnrZbNXxpdw2yRdFx+XgQnncaQ319D5+vdtIOvFfd/eykN8zynKkIDYc7zUaxPtjcTYOHa2A2agd2l5UJ04mUxjLEjCQ4t7eeUDXZwmNDVo/GOnpodw/T+XwCxZqXUykH2T8UfbY2vDMO35fK/0QQ/4pA6iMjAwUFhbi+eefBwA899xzmnc/LCws9DtvlrSM99xXA+1dVVlZKa+DVM7f//73i2of/Mu8C6q/j5+LRkW9hQcnje5zMzYBBQyLHp6A3KmOkMMsLZ5higcx3ZqAZ/4rDy+901700raWgsEGWoB6CKI0aXywC36JNERRqabVjCkJAkQR6HULqhMb6UJ80+YdqqBgX3EFXIoeUNJr33/xoYAX/cHWTToB0ipr3d3LVD2F/A0T1EMKHwDPkC+tYEsKhqSLp1CCJ2U7P3jPLZqhmDJ80uqZpOeiQOtX1UDD5vSKyb4DNqtBVb4Uruza3x9oKo+JUFy5KEfVvsr2f+rl9/HgPbeojm/lftAKVJXvI+WcZbv2lqiGdP7htQ+wfu1K1XBQoD+sPVx63OfiamFupnzc7dpbEvDiS3rdH177ADarQe5x9cQL72LpkhwUHT6OxfnqebLef/EhrFyjHoaoHEKr/P+nX35fXterFs3kh/YIMRsxJm8wMLAgysgdTjQMys5PGhXr8emeUvz1k52Ynx2h+Xx2RiSOVXZj0TQ7Mo0f4dy5sz6v8cydhyENtcIZuI8kaUjgqVOnsHPnThw/flwOlKRhidJNU6TH/AVUWsucOnUKf/3rXwe0blJIJq2jcv3Gsj+s1jftSWldNI6di8YHh8fxA4pG17kZm4D8UQZa4eS0t+DCno9x+zV5BbMmmfHrV3o1L8RDtfHZbXjwnluwOC8L+4orAl7wawUfUo8Ul0tEnb3/7nSdzmg5rPLu1SIFQRuf3eZzl8Mbv/8bdBx7RZ6HayCUw8ek4EEZqEkX897DwgZC+nXx2itm48pFOXj7hUdUvx57D4/TClkC8d4P3uVr8Rd+heK1p9ep1j/cvRm8e88peyaFQlq/JQtmye2vDLa8j28pJNQaoql8H5lN6rmNpPBMWbb38MZAZQNQTdZ+5aIcVO99WXNfKsuRSMHHoZL+IbZfWZil2salS3Jw1aKZqrr9hVqq5RZn84P7EjGSwz+MRoZaRGPJzJmD/8FjfnYEbp36BVxCJJoc8bjQGQdpKOdJdzsiurshtrfAmOiCsfafmDNnDpxOJ2yWNoyLtiOUm0FcyoLNayWFVIF4DynUs4y/ddEykLIuFrOTOzE7uRMr8htRWheN9w6NZy8uGhUMbALSMlSBlpK97CAyDaX4SWG1z4X4QEihyYP33KKaayhYILJrbwk2PrtNDifsnaIcbNXZk1RhlfSapUtyVJPCP/n7HZqThF5726MAQpvzSis02bR5h2oeIWV4AniGikmPL1kwC+vuXhZykPZF0XFs2rxD1fNKascpi1bju/dukue+eurl9+UecP7uhudtX3EFYrLvQEz2Hfh4d4kq9FC+Zsqi1ZiyaLVc/v133TTgtvMedijNsbZkwSzct/rGoHNShUoaUudvqKiWFXdtwIq7Nsjt+917N2luu/L4Vm6L93xx3oFWXLRBbtfxuXfKbV8wL0ueS23D0+/IZTu6RbnsT/eUwdEtqnogAp6wdcqi1Vhx1wY5sNLq8ShRruPC3Ezct/pG+Z9WewDh6V1HF6+enu4RrF3gDiAaQzIzw/Nd7xI8k+w3d1nhTrgKP/rFNvzoF9tgjYzFVbnjED8hA3VdWajrykKtYyZ+9Itt+O4DH3IH0EVpdnInfnpDlXwdRzSSGGqRj+EItHw+FO8wDirQkgIR6QJbCgP8DT2UghNlWKPszWLvFNFkd6PJ7vYJq6Rw6eyBPwLwDDP0d9ebL4qOyyFCKEMD1/7bMp/HlIGa8r9S2dLfVy7KkSe0H6hQA6tQBZqbQhmcSNszUMpgRDm878pFOXjwnlvCGpwoJ4dVzlml57j1Dl61tl15fN+3+kbN+eK0Ai3lc45uUR6++sh9t8ih1j/39nedv1dR9q+eeQ+OblH1flD++/Czcvztc8++7Oz2fY3Uy3Dh/FnyY/Nmz8SD99wi//vBd/9Ffl1nt4gPPyuX3zOv/HadvF7KuWP81dPZzbtPXSrs5w+zEYi8hKNHEukzfvx4+f9vvfVWn+dzctTnLlH1JYju62Vssxpg5lgZukjMTu7EH1aXIzPJwcagEcNQi1Ruv94xrIGWpCAnEpfNjx10OVKPED0TxHvz3Ikq+C/wRYfVY+eDBTShzqe17u5leOS+W3x6sUgTakuh2rW3PeqZR6vvnxQE7NpbopqUO5DqvS9rDsVUDt28b/WNqN778oB6Nb3/4kNoLP6jz+NSrzIpoNEqX2voWqhW3LUBG5/dJv+TypJ65ynvwOiPq1fUtZ1SoBXKXfgW5mZqbru/tpaOb2n/KENb70Dr6suz5N5o3vNraZGOKyl89R4+eXnBTJ9J3YPxDmIBz/xjyuM10HtG79wj0jor5zaji/zkpbuKjUDkhaGWr4b22FGxHq6YJPlOpy6XOOR3iCUabj+9oQoPXXdC9+s5lJ/Cib8TkGxuViR+eEcqLuz5eNjrtpcdxKZ1S3HNageczoHPlSJNqD3QMMRkEmCzCnIPFm/WaAGHSio0L9wDufa2R3UPQZQuzKXtUM6ppXxeeSc6ydIlOdi9v0z30DdpLqWtzz0oh3PXXtEfOCkn3H/7hUdUIUqgOcu8vfb0OuzeX4bOblF195+nXn5fDnCk8r88WI7FeVly+d7D60Kh1QvqykWeNtITeOoZEjvQQAvo7wl3/1034YkX3sW+4goszM3029NQeXwr216rh5bUhh/vLsGHn/UHq9Kw1Q1PbfM74TrgCW+Vz6//z2/hykU5MJsEbNr8nlyfMqDU4n3DBOm4Dbac3veMdBfGj3eXYH/xcQBX88OciGgMaKv5YsjraOyIgXUUbKsrZgKcfUP57Z0irNHc/3TxmZnSi58UVuO/d04J+loDQy0KI4ZaJPv+v4TeQ6u2yY265t6+/3qGB2VNTcLMKRMRH9EEq7lJd1n2soN44uG5uO+X5wa1HVJQM5gwxBIp+IRa1mhBvlW9NDG13snApWGIenqelJRVyNvgPan5+ie3hhSaBPPEC+/iykU5WLokx2fdpF5MT738vjx5uff6+JtIXLLhmXewdEmOauifd/nSsDp/5YfS2y6sJ9tegZZWLz5loAX4zp22/smt+MNrH/itQ9m2WsMstQJDqa2ktvM35FAKwJYuyUHHsVd8yik6XO4z4bqy7EMlFarnpWPlkftuwSP3qfdToDnEpGNAaz2k5bR6gAV6z8i9FhUh3IZn3oHJyLmOLiUpKSmDWr6np2dAy3VUR6OBzU+D5Bbdl3wb2Gu/GFPrG5c8GS57CyZ3VCMuql5+/M033/Q9lytR3CAlJQ04o37e0cPh8nRxmp3cqTvYIgoXhloEAJgztRXzMlNgL6vU9fraJjf2n3SitskNoe86UhCA2NgJiB53hVDTCdR0AlZz0w+nxJzYrCfcctpbMHtWO/LnWHDgaOBx2QtzM/3O97R7f5l8Ye49hE/PpNYS5fw8ZpMAs1H7Oe8LculC3Ptx6c6JWst41+M9jBII3gtoz8FybHx2W0ghkDSB+L+vulH+BTE6UvAp47v3bvJpMz13Jfyi6Di+ccejWLo4Ww5v1j+5FUWHj6t6vEnlS6+R7gQ4kEArUA89KSQK1rtMK9CSAk1l8KPcp5rromM43BMvvOtzV0apx5pW+0rh0sZntwWdQ+va2x7FIz/6lnr4394SuVdYoLK1jpUVd23wmYds194SrFyz0Scgkxw6WoFl39uAh9bcpDqelcuZ+9rWbBJU5axcs1Eevqqcf8R7fjrpvcE5SoZXfHz8sNTjfaOCcImIiBjQchwyQeEgusW+49vFxhgDtmxvw5btsbBExvV9Tx2EY/2dfT+A+na7+r+jp/D4G3dIZ3cA2rDubsU5L3c7XcRmJ3di+dw6bD+SzMagYcFLAAIA/OCWODhqT+l6bV2zG+8Vee48JQj9F6ApNgMmTL1SdWVrd9qeL2lZ9HxOwl5RT7DlqD2F762YGzTU0jPBt3evH6XBTD6uFGjyd3/PhTJhvJLe4YuBtluvcJQxkDZT7h+tnluh0JorLJTjJxit3k8D3WcDaf8H77kFC+fPkoeNRivCIGcv5JDy0z2l2F1UpgplF+dl+Q2FpUDLX/C74altctlSvQ/qmGtr9/4yn96TyuU2PrsNZiN8ypJCyp/d801sfHYbliyYJZcjBX9tnW5eJIww6UYBRBQaJ0OtUW/92pV+z10+3l2imjvVuwc30aXqmwVtKD3vQEW9hY1BQ46hFsHtqEdBQT4u7AneS6uu2Y3t+3sACBC8OmZYbEv8jsUraVkk6Am2nPYW5F5mgtls1DW3lr+7Gw745FIRBgQKCsJ9skQ0EFrDRi9WyiD6u/duUj0XF23QNf8ZXVwq9/1+ROptqj3IxqdRZ3xMR5jKaee6aJxnSj30lT33tc4LP91TqusOz0Sjkd1pQ2uPDR0djWhvb5QfX5A+sMjgm/MbOQyRhgVDLcKd38lAZ03wXlpmawLe+9s5nzALAKYmOBEbO/7WQMvrDbY6a07hOzfYsGV7W9B1koan+ZvYfTCUQ85cLhH2zqEZArN5y/tyPQAGfHFuiewfuiX1mFA+JlG2lc1q0Nw+72X8DS3zR1mH1nqFow49XC5RvtuQ2QhVO3sLNORwMPtfamOtdlcKNKRW9f7QOSwWUIeygxVKvUNFCoCldlTu07hoQ9g/A0g/76Gjmu/HXjGswWPlvj+w4Yn6TIhtx0fPLQl+rpCSBs9wOG1XZVTqKgfID7guqP4VPnruVwFLiOptBbBI17qkL/iB39e1tzcHXJfE3v9D5b7zgS+IxO6A55la51Va5556b9QjaUUqWiPnI148A/Q080CmYffVuSKqO2agpnNG/5e4MAMnGz4XpWCr6FQvkhMFFEw3ITlR/507OQyRhgtDLYLYVQ9XW/Bfw/af9L0akQKunqi5uuqq7phxd07C3s0BL3zaWmCJnpQBQNcEXy7X2A20lPVoBStDzeUSYTJ51sEaDXk7vdvT0S3CbAIsEULAYEg+adaYaF/a3mB1mIzCoAIul0uEo8f34tkzoFW7DpdLHJJAKxRad2qUQjl/x7cyHAsUyulpM3/1WCIFVRihNXfXcB2z3qGWA4A1uj/YGopglPQxG/W0/+D2T1R9CcSqesAYzwYnusSc3O8/xG5vzw+4bHPdQTTXBe5h6S9gCzSVgSQm+w75//UMP1S+HgCchni0mubBGtsGoekAdzYNq5rOGRA7U3y+oNPTrxBOnvxc7OjwBFtnW0TsOODEiq9NwASjXXf5Myb3AkfYzjS0GGoRfnhHJi7s+TjwgSJ244tDXZq9tEK5ULE7bc/bnbaAE8c77S24/UZL5fOv6StT6omTP8eCX62y4/DxXhw54ZLX2+T2+vUtfiIEa1KGqgxn75suZ2/Blu1tAwo05mZFYn62etLhQ8d6cKS82+8yAwm0Vi2PU/39+l86dQ3T9L74dCjaztT3KSAFW9OmRKi2RarD6fJ0szebRFWoEYyjW5R71CjDM6nNSipd8hxqUh2uXlF3gKYMZrTCLLPZCJPZAEenU1WHo1tU/dqqtV+GK9DSEux4UAYIjm5xQIGWvzbz3n9yW45goOX3M6VThCWSgRYR0Ujw/jHEFZMEoFrXskL8JNXyrl5xVKyL9/fJx7tL5CGFwYYfbnjmHb/DD7962Wy/gZfTBTgjrIjgIUWjyPysWXd/fuAzuTOCIADvfNqAyQkGLMs36ypjdnInMpM4txYNLYZapMuXp4wQBOnq1ffi8YppHTjRpa+s1h4bgg1BFFvP6Z5XS5KTYYKj9jQyY4DM3ECvPAngpE8vMEtKGrZ/FKEKA4IFGquWx+G2JU1wtTXAaW9RPfftuQk43jEFL/1F9Am3Qgm05mZFYtV1bsyb0glHrfoXvNvWWVDqmIFXPxJQVqFvB3jq9d2um3NOY0W+5xbVXYqeELets6D0XBwOXkjFlu1tcLo83fCDBSfKXln2ThHWaGDu5FasyK1FTnYcXIZIOO0tWDENsKxKAwD8abdNrsPpElW9cIKFM8p9tWp5HFZ/XYTT3gzAqXrtn3bb5KDO+wQ4lEBLCuVuW+J7LL+xb0LR/iOOgkChpt5tmZsViQVzLUXfXthQoHzdW5+IKD3ehbKGhIDHVqCTf+X2r1oeh7zZUZidUNffVv+IAKLq/hLoAAAgAElEQVRisWV7W9BAS6te5XBT6fmbc04DgHysvX0gybM9JWl+l/FmsxpU7TQUw48pNIF6FIaLKyYJQrwBaHewwYlGEVUwFTNBd5CE+Ilh/9wIx7p4h1qf7inFXz/ZifnZETB1NMDUUS9/JrliJmBuViSOlHdjblYkZqSexblzZ32KP3SsBwAC9uKyd4oYz8OJRhG70/Z8ZuqEzRU1DarHz7a40dBr1d1ja+akToZaxFCLho7bUQ8gVeerw9MTwu603Q0g4BBER5sDJnN0yL2QBkOsKobJtEh10R7IxnvNmJ1wEo7aFu2LPHsLpqMFj61MwFvHMote2tZSoHWhHijQyplQjsdW2uC0t8BRq9FO7Q5MxxH88qYEHK814tG3QjsdcvWKmDWhFd/Mr8HMyWZ0IV67jlgHMmOqMffePDyy2Q2nsxf2ThE2q/9jwjs8W/+f45HZfgQuIRKOdgf6+4sBjtq+oGPaaeStnSsHgVIYFiikUYYbc7Mi8dsfm2EvOwB7mfbrV0w7jdseTcPPtlhVd9kMJdCSwkxH7WnN/fLN5NMFN2cn4HjvbDz6zAX9+8NrW1Zd58bshBo47S0F3vXckAl8c0Y3jtfW4tW9yThYo39IlvKYm5sViU3fb/cEph2AQzGn7oq+Kb5u+00a/v/nHXKANpChjt/OPYMV+fVyYCodazcs9AR/K/L34nidCQ+8X6Drfe89ZJZGltMlDkOoNQGINwLtp9ngRDSs5mdH4NapX8AlRKLJEY8LnXEA3ADO46S7HTG93bC6IxFR6/myzsryfIHaLG2YaGkAcDkbkcak3oiZW4EGn7tavfNpA35000SfH/U1z73zG/HB4XFsTBoyDLUuMYuzY4V/HjwvX3n0Oup1LRfltgOI8XlcGo74+ZkYTJyobx3sTtvzCBJqAcCsdBMOHHWOSDsFG1a18V4zMg2lcOr4gcJpb8GKybsKUDgTr/4jQnegdfv1DnxnoU3Xl4XT3oLpccAj157Hhr/pvxtedkYk1l9zBO2mpOAXlEIkMoVS/ObeuXjoacDp7EVbp9vvUESXokv+xnvNmN6xGy4hMmg903uP4LGVCXh4a6ocbAUKz5Qh0GMra2AvC95ejtrT+OVNCXgr2xM2hhJoBQszVfsEu/HItS7d+0S5LZ6g6XTAY8wlRCI9FXgsuw3r3krSFQQq5w974uEJmGksDbotjtrT+OkN3ThZcxIP7JivK9CSQmG3ox6Pr0tBpqFbMzSVdBnjMXUK8NffWfDj3zp17XuTSYDNKrCX1iXEbE1kIxDRiJDOYZq7rEhf8D184xvfAAB8fMstuCo3FgBQ1+UJsyabCvDwww8DAHY+OzyBltFo5E6isIuJGX8rtIZ4ANh/qBa56TG6ypk1ocVndAFRuDDUIl2ky0rBz/VlfERT2OvMyTDhwNHBlVHX7Ma+Sifqmt3yVggC8K9fTfY7BFIZNElDrpRBx+3XO5BpUE/ova/SiX2VLrl9BEHAv1w+B1NiTsgnQjcvasXxyki/vV2U5mZF4jsL1UMaa5vc2H9S2hbfOgAgPdWEm3NO44Uvpvo/KVOETau+UucTaCm3JcVmRF72bFUd03uP4Df3zsX9T3rm2ZImm/cX0Gi1V22TG3XNvdh/0oWZUyZi5pQkVR1Oews2fT8By34eJQ8T1JozSQoz3I56bPp+ok84s6/SCUEQkJxoQG/ETMRHNMn73Wlvwc3ZFQXHMy0oO2+V2yZQoPXEwxMwvWO3KmiStmVaogvdkXNVdUj75JFrS/DzD2YHDo66vXubnfY5luua3Zg4MdunDke7A5tursS6tzJwpLwbjh4RcX5CLeV+mWks9QlN65rd6I2YCQCqfSIFaLfflCD3OrREagdayjm+PIGW7/widqcNAHzeh/ayg/jtj/Pw9f9wBQ1OJZxPa2RlZGSgXjHSVuvunoPVZHfjj69XAsgAYBtFW9/KA4DoEpeTk4OSkhKfz8XhxlCLhtue0ybkput7bfrkXpQ1sM1oaDDUusQZLUm6XtdltEIQ/A8JqqhpwNww/4BeUjm4Gajrmt3Yvr9HDoA8/wWmxjtR0rJIsJqbfuh9J0atQEvJ7ajH7Vcnqoacbd/fjbpmNwyG/joyU5NQ0zlDsDttch1OewtW5Lqw4W8JmvUo5wVa9ZU6Vdgg1SEIQt8/YOLEbJ86AM9cRS/vn+53CJejp6+O5XHIjK7waq9uCIIAg8FThztyJmo6Zwg1nTOQk7BXlAKITNd+5M9ZiANHHZoBijJs8tde0rYkxsRp1uGoPY0Nd8/Gg08HD7UeX5cCR22p5rYAQP6s2eh1zRBqOoHU6BOiFNY47S34eeEZ3LZlkU+gJd0lURk2zTSWqmboUm6LIWIGeno9dXgfWzNTepE9oSXgEEF531/nhr3soGpb9lU6cbZFxKRJ2XB2euoAoG6vdge+d4OA+8vhN2xUbot3aLqv0on9J12YPHkWJk703Na5pnOGqr1cQiRuzq4o2J/l6UXnmdRX8Bs0PbqyDukG9Z1Vt+/vRptrHDIyFskLWs1NP5wSc0K+gYS97CAe/c44rH+TXdXHTKhVah/SOqzRAuxIwpbtbaNu+80mBqtEDLVK2BB00bpiagc+r9LukVXf5ECSjfNl0cgysAku8QNAZ6ilR2T3EV1jgFKjTwR9nUnsRtnJwYVaxY2xEATAYPAETZ58Q0BkXIrnwtlzJ0b59cLUXL+BlpQP3fmdDHn+JwB4r6gHZ1tEOQTyhCiC3AvF7rQ9X90xA8pwIy3VHDA4m5sVidmT3KovC3Udnu1ITjTIdZS0LLpben2XMR63L48rUoYYSlLd3hOcv1fUIwdmUh2ZqUlyuSUt/SGES4jE7YvOqcpTku5g5N1exY2xPu3VHTVXUNah3CfzrKdg7rvNkPe2KIMz5eTmdc1uvFfUo6qjN2KmXEdN5wxBuU+6jPH4ZvYpn0ArLtqgulBddZ1bFQJ57/sexXZ47xOXEInH7ovubx+X6Dds0tqWc62iFGSqrpy922tmTDXy51hUx6xWPVrbUnSqFwaDep9L7aXcFqe9Bd+7QfC77wHPBX5+aitmx9f6HGPnWkXMnKL+3OlrL9W2zE6oQ35qK8OCMSjYfIQD4RlqahiV/0K5GywRXXwYaNFYJorBL992nYmBKEL+p1TdamYjEkMtGnlFRVVBX3NZWvCJm/cfPwmruemH4ViniCnZcHQOfD6thl4rqqqa5HBG+icI/cOeAKC6Y8bdWst7X6RIYUB25KH+iyyxG2db3HKQ5a/HSk3nDFUYlDvbUuSvHsAzGakycCi6MM5nOwBgcoJBFQoot8v7TnlaQZCrrb+O/SddqlBOqqNv/jNle/WHDpPa/AZOWsGZ2ZqAL4sbvbbFl3KfONod+M4N0QH39Z3fyVC31ylX0Dr6erjJf3/n5mSfQMs7fJo3pVMVNgXb996BpqutxW/gJIWAPvtex7Yow0anvQU5KV2a+0Tvtnjvc61tmW054Xffy69JalHdRdMTAnqGAStDRn/73iVEYkVuLT+gx4ATJ05g+wcfwmzqf/97B7dERGOdJSUNllgLJkeo76gYLNSypKSx8eii4i/gIhopHH5IKCrpxqyr01Q9ary5hEgszo3Dl8WNAcs6VF62OT39iucDvUY5T89QOXOmCco5tJQiu48AyJYv1qFj0npJQcFUuZ2+PGUEoE4n/M05Znfa5LmDZsWfKwCifNu4L9gQWw4D0/ofr6pq9gk0BMETeCgn52/tsfmdJ8ybJwg6IP/d0BsPoMmnDpvprNjkmqzq5TQlxtPTTgqc9A4H+uJQo+Z2aAUoyn0S5WoBYPQZgii3V5f6Zgd1zeohcf72ib/2skT0LyCFT3OmtsLV1iM/Xt/k0PXxqWwvp70FORnpmvPESSGgd2ha1wzouetodccM+X1129U92PKh769mym1x1NaHvC3Ku5bq2ffZkztU5Z5tEYNuS194tlnaltmTO0J63zNIGRmVlZVYOrMDV2T34tVPY+S7owa7cykRhTdw0eNwdTTQN5DeEinA1ds/B2IoN2I4+G4N0HfzD0uk+oYdlpQ0oPU8xNZzmssK8ZOA+Il99XmGqCtD8VDXBWeCt4tYVay9LlNzFfW1y98l3p9dW7a3Yct2MyyRUzznIlvfgOOnr/dtd/+Pb5ZIAZZIAXse/wt+8vhf+qabMANowzrFz6jS+YzZJMBsQsCbE4VCEIJ/5mZkZKCwsFCe92vnzp3YuXMn30SkydhzXPTME699bDHYotGAoRbhUFkPbr86+KFQMN2IL7XPCeQPtPb2RlRWfi5mZFyh+cmnZ+ihJSUNL73TXgSgYOBf6v7DjOrWCJg7Gt/su5tHGE4gfB+rry/HxInZmgHKvJnaE3lKJzSenjqeu+hE9bZCCsC86+nouKBr/fzNR6VUVdWkWUdZbSsmTpwc9mNOWc/588dE72F1ypAmc5ITgNFve3We+BLISg3YXsae46K/3kESs9kIp7MXzl7A5PV2yMtLVYWAe06bfOroCMMx5S80leoJRx15eakA6v1ui786Qg2AZ0/ukO92uF8xlFgQPEOVuyPnhjXtCDbJPw0dQRCQkdyLGbZqfPu6NPxsixUHjjoYbBENMSlMkgIXfZxyiOQ5NxDQZPcMGb5mTTsAveV4Pt+Vd8BVrosn/Jnq97zEEwb1B1pSD+mBrUubPA+msg51uywIUkb//I+e75L+75P1a1di/dqVmkt9vLsEN37/N/LfW597EEuXBL7jsfJmGmajZ9uD3XU7lM/jYNasWaP6u7CwEAAYbJGmrjap17zyHKv/OJs2zQbAzoaiEcVQi3C4vBvRqTkBe2pJYctN891495AhYCrf0dGIljNbxXGTc1XDjPomgw5+UIrdKD7WXTCU2+xo+mJlTMyyQZUxbZoNB077v42H68LHomncUgFQ3x3y8PFezRM16eTUnJQNoMbzRWKMhyB0+21nPSGHnjmJpk2zycGWUn19OWalxKt6aw38REs7AFT2nJNPlRXtVVbRAa2ebfIJobX/9sAuQ5RmHRU1DUhPnxn4+Hb2hrTvvdvr/Pnylenp48MYFPi2V7jrUNY1lHV4b0tZrR3p6WF+T/cw0BpJzV2eO4g6ak/jlzcl4L8wVQ62bFaGWkRDQfp+9zcM3O/3ptd8ntZoYUA/CigDLe9eX6Gsi7KH9EDWRWt+UrMRYfmhY/2TW73qEtA3+h7OXsDp1UP40z2l+HSP+o6/ykBs117PUMWsCSdx8835sHfHAkiHySj4lDUUpABL63GGWuStvb3xzcqaVo1zxv5jdbKhAS5EsrFoRDHUIhgsSXj+lQrcHmQIIgAk2Sy4ab4D7xzUmo6t/wPuTIsZZ1pKMTWhWOyOnIvkRANyJpzUtT4RU7Jx4GjNoLZpce54FJ067/f5sy1u2J2fi9csyfIeQej3hMnpAl7e3ohv9/3YN8EY+FeJ0lo7ZuFj0TxuqaAc5lbWOqkIaPEb2glRSZBCLQCYEt+D6tYIzddWVn6+Mj39ijdjY8ffqgyCgnnxpS/w7ScmyvM3TTC2wt/MaidP7oLJtvTN2Njxtyp72pmtCSHdodIzB5hvY1e3RqDp5OdievoVygBUcdBlFAEtBWaT78m8o1tExNSrAHh6UbmESAC+IWBHRyNOetUR7CJB6Y+vV+LbGxICtldHRyMm9+4UzxoLB3wFX1RUhdmTPP9/WVovik751pEofik2C4sHXMfBgzVYoRjeevn88aphxXrD0sG8Hzs6GnX1ngtFuIZu0MA0OeJR0rIIOQl74bS34FerErDs51FwOnt19RYlooGRhrsN6mLAJIQlfNZ704RA66xnXVwuEY6e/gBNCsWyJpxEfFQ7yuoz0IYYmE3ioL8bNm3e4XfdlXet9vd678ek5eMi7BBFAXERbTyIadRyNO326aKo7NiQYjPAJUToKuvkWSMblIYuz2ATEAAUn07QPX9Bks2CZflmTJ1qgyfI8vzTmjTwTLMZU2JO4LJUfYGWYujh4C5w7S1YnDve50O4/5+I9vYGuBv36jvh6+vSfrRGPWn5t746wW8dgIiy2laY296XW0TZC83fCd0fX69U9T7KTY8JWMfJk7tWOpp2i8og6I2/iwEDG7NtDkxx/XVo3QhAqqOqxSzXoQzOTHEJOHDU4SnP63tKCqBe/Uf/2WRyokE1ub2yjvb2Rhw+/K54/vwxMSdhr2Z7KYcVeIc0SgXTjZrb4hkau0v0zA2gntut9FxcwPYyWJJU7eV9bEl1fFjiQGXlLrG9vfFNQD3cNlAIKLXXse75/SftQqRme3165DwqK3eJypsy6NkWaR8drYpXzb0ySaj3eW1l5ecrHU27VQeRcltMYnfQQPPtA0mq96Pn80Kx346VwbsOQN1LT/dJl+LukTSSwZZVvpmEo/a0fJOHUHuREBEFPCczCapzApNJgLNXCopEXL+gGYAnZAv33U6V526WSGHAyx9ryITbLeIbV8xD9d6X0Vj8R3Qce2XE2rSyspIHFqmcOPGZWNvUG/DuiAXT9fePKWtIYKMSQy0aWkfKu1FcZVGFKYEkJxrwjcwOrPhaEhbnjpeDLGVoVDDdhDXXRWFBuv4PvOjU6Xh1e1tYhh7OG9cmr5sUAHnCN08Atyw/AsmJ+t4CykCg9Fz/MhOMdty6bKbfOiYnGFTbX9ExxW8QpAxQSluSVW19S64jYB1XZ/X3GjNbE7D/TBz8BWdagZNLiMSNeWafwEwKK91uIDupRdWD6o19E4qUJ5SqE86+k81DZT2qY2rF1yZg6lSb320Ruo6r6jCnZvkPzvyENAXTTZicYNDclvb2RhSVlmKa6S+qb+iDJ82qtgnWXk57C27JdaiOeWUdJ07sWll/5j1RGTYFCgHl9jqmbi9lQNd/TuGp47P9/9x86NC7ot5tUe4jz0TBHkk2ixyeKbeloqYexcXviidO7BLPnStTbUug/aKqU+xWvR+9t0Wqo/PCbvHcuWOiofu4KpxVBmN6zM+O4If5COrt7UVNZ/9dMpV3PyUiGioulwizUYS9Ow5ut4gP9yWO+nVu74nBksKfo9myDBue2ob1T271Geo4FHbu3KkZYHHoIUlsprPiiROfie3tjYrzNlH+p7w+0XsddbyWvbRoaHH4Icl+/F8l2PV2Pi7s+Vj3MhOMdkwYD+ReGzXo+q2z8vDCm60hzW2kJ9gan29GXbMblpQ0uNpa0NPagoUZoR36JpMgd2N/7cvx+PUdPfJQtISOM1iWb0Z9kwNfnjJCFD1DupJMdtWHvdmagJc+TALQ7ZnQVGPyZHnS148MeGxl/3A327gELMt3o6HXii8ONcrBw4J0s8+2lDeNw5Hybr+hliXCM2/Dqx9aMG+KDZnRTfKX07J8s1yHFD4kJxqwMMOk2hZLShpefa7Nb48zaTuOVsWjtMWMTEOLHAbdmNGNooRx+LK4UdWzb0G6SbUtZmsC/rTbBqDNJ5Tx3icPPNOJX9/R317L8s3Yf9KFolMuVeCqtS2njHPlu/gp5/VQBk5Ol4hX3m3D7b/rH6JrG5fQNxRX8AqEgOREAcsXRKi25WdbrAAcmvteaq8j5d0obUmW2ys50YAb88woruxAVatZtS2AiOULIlXbYp2Vhy2/878t/o6vZflm7DjgRF1zryp0EkXAar6ABSl2KH8DCbRfJG+VpOHWvM/QbkpSbcuOA05IQ5WlNjtefR7JiQ24LLW/p1VUbytK62fyg5mIiHyYjYCj7/8dPSLiTAKON2aogq4wnk4OiY2bd/jMQzY+IhHoaR7Sep977jlkZGSo7n5IZDU3/bC86vzmg+eOyY9pzVMriiKSEw34ZoH+HxKPnYtmAxNDLRoeBksS1vz47/jdLwtgLzs4vCcn1gSUno3Flu3nwl52/y8JNUAkgPEDO+ylMOhoVTwe2lyO39xtk0MBTx0xmC+fT7WrQgCzNQFvHcssOlLumUtLK3DwDjd++kqEKqhJTjQgGe0BA8RTxrn4ye+6/AZa3mHQls+S8dhKd0h1mK0JWPdiLJzO7oD1SNvywKZaPH5ff3jmEiKRO74dudcEDkJLW5LlsMkaLQTdJ8rwDPCEZAvSTai/4MCZFrNmkGm2JuClrZ6AJVDQ6OoV4bQk4YFnWlX7JMlmwd3XAPVNDpxp9vSQ0qqntCVZ7tkUbN8/sKkWH7+cJ78HkxMNSF4Qh/omB6pazHKgtTDD7LMtP/6tM+i2SMfX8d7ZmI7d8nPL8s2oazairtndd9LimSvB+1e4Cvfs/hDQz76X7uJ0/9+vxmMra1TH193XRGL/SRdMYjdMcQlwtHUiOdGIFJv6/fLnI/n4vLINgFt1pygiIiLluYzT5blrovSdNJAJ60cDswlwW+dD6DgDof3kkNZVWVnJIYfkuWJpb0T9mSLxYJPb5znlyEMp4EpONGD5gtCme9h+JJkNTUObY7AJSKmkIQvFVRZYZ+UN35e4NQHWWXm4/7GGUX8CJYUrJQ1ZeGhzk2rYmz+WWAveOJKOl7a1yD2bAt3iXqrjaFU8fvpKhK46zNYEVLhn4/4nu+QTo0ATx0qTuR4p78bDW1N11QF4emg9vDVV7gnmL2ySttNs8oSlDzzVi4pOm+7jocI9Gw8+HTigkfaJtJ0PPu1EhXu2zxDapHEWzaDJe1v8hU3K5zyBZpNvHTZPHVr16N0WZXv9+LdOn/dgks0i92bTCrR0b0tfe93/WAMq3LNVzyUnGuQw0LtHG9DXE+wjQ9BjzPv48m6vBekmzM+IwZwkJxZmmH0CLT2BJhERjW7J1nokW+uHrPy4aINqqL00cftYC7TMJs93nfTdKcZMg3viUoix6TyIaMhZzU2oaxY1e2UpiSJw89KJIQdabx8Yz0amIcdQi3zc/1jDsAVbUqD1o182hHXY4VDxDrbWvRiLN/bHwpKSprpwN1sTYElJw0lXBta9lSFfoAcLm7zrOFoVj8L/aJbr0Go/S0oa3jiSrgpO9NyBSKrjSHk3Cv+jGW+V+w+3LClpqHDPxroXY1WBVqBwTnnCabAk4cHfjwtYh1RPqNsihUGAJ9gKFgRKoVko2+K93x/emhr0/WFJScN7dQuLQtqWiP59snT1Sc2Qzmc/zsrzCRoDbYt3e71Vnhq0DqnNfvxbp1xPsG1RHl8Pb01FVG9r8PeX6OlBpicEJCJtdR0c5kEjb3LceaRYzyI1/hziIjuGrJ64aIPf+UOt0ULYJ4ofin9x0QbN7zqGWzQckhMNWHNdFJYviMTCDDMEQVAFXJen9+KWqyfinkILkkz2kMv/4PA4NjIN/TU6m4C03P9YA554eAJyZ+UN2VBEZaAlXSgPxh9frwS+kz/wAs4A0jxBwUMnwN7pGcZ1BJPx+m5gztQI5OV56j94sAZHq6TeNPpDIK06DJYkvL4beH03sGq5evsOHevpa7u2kAItZR2OHs/Qulc/BF790LcOAH3zNDlVgYXebYmLNsjD0V790KKqQ2w5DJczCuYJMxX1hL4tyjqOVsXj6w956hC76nH71Z6PucMVdhxpSFO0WWjb4r3fr1nTjVXL8+FsOI7Vy/t/hZLq8WyLp3ee3m3x3icPPu3EnKkRmJMaq6oD8Ez2fqQ6Sp5DK5Rt8d4nxacTkJsWK7eVdz1bthrkNjObAvcE89det51dhJtzTmNFvudX+y5jPADIYdfxOhPePJyOzysbQt7/RNTvwXtuwS/W7mVD0Ihzu0UIwtDf/dQSKQT9wXAsE2OmAREJENpPDfl8W3TpkqZr0Z532D6gMn/9l6lsWBoWDLXIr/sfa8Dt1zvwvZvy4Kg9Jc+LE5YTkJQ0RKdOD0ugpZzzSOoRNRhmHe8Kk0mAzSrIXd0BT5hytEqqP37QJ1tadfjbPiloCLVXi8kkIM6kr47BbEtctAEulwh7p3cd0/v+2zbobZHqcPT0zRe2vQ2AJ0TzGOdTT6ihiSp0kuvwhJr91PWE2mbSPlGGdEer4r3qADwho3PAbRYXbZD3+5HybhwpV7aVdz0DazNlezm6RbxVkoa3StIAADfnnAYAlNbP9LrNs/uiv0AhGpYLYYhsBBoxZ9smAhDQ1h2D9p4YNshg38/meIiJ8+FytEBoPw2zm+EWjW6lddGoqLewIWhYMNSigF790IJDZbX4wS3jMCslQb7z20CZrQmIS56MoupE3P9QTdjWUwo0BjuC0WwMbbiT8uJbCoUGWlawOvxtXzgu/oPVEY56pJBOqkM5kavZ5LnL4GDbTAqEtOpQ1jOYbfGuw3u/h6seKTxSBo5a9QwkAPTe745uMeDEupbIge8bqb28SeGWt3BNCt/Z2YmYGF5IDSejkbfsHkkr7tqAxXlZePCeW/ovhN0iwN0y2uOKi3bLzrYlcfeGmdMQD0fkPJjdrVgy4yxKSs6zUWjUKa2Lxn/vnMKGoGHDUIuCOloVj7VPAKuWx+OuW6fDaW8JueeW1DNr/9FuvPQ/dhwpD8+k8NV7X77o2nvjs9t40I0xXx4sx77iiiEpezh6LXnK77trVF9YF65Qli4NRqMRJpMJ7e2NwAS2x0jYV1yBfcUVeOrl9zEvNQZJ4zthjY1jw4xKIqQw65zdxeagkDkN8Xj47mi88UYndnzexgah0RMuiN34y8GJbAga3uOOTUB6bdnehi3b2zBnaiu+f9tsLLgsEk57C5x2/12go1M9w8teeLMVh46FZ+4sANi1twRXLsq5KNtZ+Ss7EQVnNgKOvs+oO5azPUbC2bMHYTVf8Pwx3XNnpMPV0VAOX6XhU9fsQEdnJzocnTAIBpjNnsl/aXQQAfT2utHR2YnKsy1sEBqwb14Zh2V3/jdKS0uxZcsWZGRk4NSpU/6PPXHwPQPDUQZdnErrovGXgxO9ppXQVpDJ3vQUPgy1KGRHq+Jx/2OenlZzprYiLy/V72u3bK8ZknX47r2bxmTb3bf6Rh5AYwgDxtFn194S3y8ykwBw/qXBwosAAAusSURBVKAR09x8Cu3tDWgTgZsWegItszUBR45EAXDqmqeQwquxw41DlbVYGp+AqIhICIIAk8nEYGuESfOcOZ0udHY5cKy6EaVnu9kwNGhr167F2rVrAQD79+/Hzu3P49NPP0Fpk/rOiauu64XT3owTTVNw/fXXq55rqj2Azs4z+PM/IjSWaUFzlxULvrLSp+6q8rew5SP1OOf5syKRba1Dc5cVicn5yMjIUD1fue8P+PMnLhgs/T168nMsmJ1wzvOH7Ws+yzTXHcTusnM4VNb/njGbjfh2XjVcQqTfZT4/cAjFpxM1t6myeQoKCwv1bVNaD7IntqnaQTnsvqr8LfzxvUYYLBM9U2qE+N1ndrfDLA68153ZbB7Qcim2nrAcgxxySCOJp5o0KOrJ0SmYp15+n43A/UVDQJobjIbftGk2ZCRWYUneBHlYemlLsnxDCD13y6Tw+/xkD6IiTmBB9jRYY+OQnpaOWYty0Xi+gY0zArou2HG66gxcvS50Ojpxrr4efz9czYahsFuwYAESxUMoO/B/2FWvntfsG19zwlHbDndlOv793/9d9Vzlvt+jrq4NT36gDkeuvcIJR20zTjRZ8YMf/MCnvs+2/w2Pv6deJmlKHL42rRYnmqy4/rs/8Ambdnb/Ho+/7YLZ1h82jU+Jw5XTPO8JMeMKn9Ctcp8Tx1qcqN2ruBlPtBlfyy5Fl9Hgd5my00WoPaIeiv21y5xw1Dago3IS7rzzTo1t+it+/bZ6m662tePK2U040RTtZ5kPsH5zB8y26AFOHREDYBDD9oJkU5lJDnxzfiNmJ3eG/Zh7rygO248k881HI4ahFhERjXnSXVBp+E0w2jEjwywHWhXu2Xjw6f47c3JutpHz92NtKK4uxY3zJ7xlb2+7+dDRw4iJjh62+ielJmNSKi90AKDL0YmIiAicr6tHeU0T/nG4Go3tvWwYGjSh+RNU7lMHpE21BwMuk5FYjcp9v/ddJsDHtc3S6rNMMDZLK9D0MSqbPkZicj5sKfk6l7OH3A4DW6Y1rPvCaBm9N0eoqLfgv3dOwYwkBx6+oSosZb59YDw+ODyOb0IacQy1aExq63TDZAzPXf+I6OIg3TGShp/ZmgBTXAL+tNsm99Aym7hPRoPGDjde/vz8zeNjGjA+1gjBz1Vr7JDcLfT4qG2XpDgTkuKG99aQR89249R5O8MsCq+mT1DZ9InPw9GpaUCl9iIzbNWo3PcH3/PilDS/1dgs9kEu8wfdm9R89AnsPPqExjP5A1jG/+XuwuQS7Hz28pC2aYat2u8yBsvov+PniXoLfvBy1oB7bpXWRePYuWiGWTSqMNS6BC3OSRz161h3oQdnmwJPMOzS6JTh7AltXDiHK42Bi2UTwhJg0hDuo1Fyp0SXi+/n4WaxWLZUnpvy/Vf22Z2eG4H0Dwvh+3Z0aexwo7HDHeAVPWwkIqJLhNRzC/AMTZw5yRNuzZnYjJkpnuD9eK0RR897rhtNYjeHGNKoxVDrEnTVPBuvNGjQvjzWHnKC0Nvbi95e/kI9HPQEw1pCDYYBz50HOVH7pXuoAXB9/WuFOFK+Q31c8EeDkLH3MBERDbeKegsq6i0AgA/AHlg09jDUIqIBWZwdy6svGo2YpIwAobuxeXFOYuLFtl1FFR0hL+MeRHjPIHD0Y+/hMbCPjJfGXH5/2m0DYPP7/KFTNSEvgzOAssctALz6DxfQ5f+S0fnZUQB5qscOHqzBbUvSAq6/0dKs+ruk0hV0mYPv1gCIl/92Od0wT8mGIET6X6jc5XuMWAN/XR2usANe4U5e/nhYJvmvx1NmO9+ARCNxHrp+/Xq2AhERXRSuu+46MTMzExaLBTExMRAEXnyGk91uR0dHBzo6OlBXV4fDhw//5tSpUz+1Wq1sHBp21Y09Ym1j6L1Le3o41HK4DHcwTDQaXCzh91AFxG2dbhRkJXL0EIUNe2oRERER0ZgzZXyEMGV8BBtiFLtqno2NMIoxGB79RjIY5vQSNFYw1CIiIiIiIrrEMBge/RgMEwXHe20TEREREREREdGYw1CLiIiIiIiIiIjGHIZaRER0UeFcH0RERERElwaGWkREdFFhqEVEREREdGlgqEVERERERERERGMOQy0iIiIiIiIiIhpzGGoREREREREREdGYw1CLiIiIiIiIiIjGHIZaREREREREREQ05jDUIiIiIl2MRiMbgYiIiIhGDYZaREREpIvJZGIjEBEREdGowVCLiIiIiIiIiIjGHIZaRERENGAckkhEREREI4WhFhEREQ1YZGQkG4GIiIiIRgRDLSIiIhoQURRPcp4tIiIiIhopDLWIiOiisXfvXqG4uBj19fUQRZENMkSam5tx6tQpNDU1Pc/WICIiIqKRwp9XiYjootHa2ori4mKhuLhY9XhsbCymT58uAkBUVBSioqJ0lWcw8LcfSVdXF4qLi4Wuri42BhERERGNCgy1iIjootfe3o4jR44IbAkiIiIioosHf4ImIiIiIiIiIqIxh6EWERERERERERGNOQy1iIiIiIiIiIhozGGoRUREREREREREYw5DLSIiIiIiIiIiGnMYahERERERERER0ZjDUIuIiIiIiIiIiMYchlpERERERERERDTmMNQiIiIiIiIiIqIxh6EWERERERERERGNOQy1iIiIiIiIiIhozGGoRUREREREREREYw5DLSIiIiIiIiIiGnMYahERERERERER0ZjDUIuIiIiIiIiIiMYchlpERERERERERDTmMNQiIiIiIiIiIqIxh6EWERERERERERGNOQy1iIiIiIiIiIhozGGoRUREREREREREYw5DLSIiIiIiIiIiGnMYahERERERERER0ZjDUIuIiIiIiIiIiMYchlpERERERERERDTmMNQiIiIiIiIiIqIxh6EWERERERERERGNOQy1iIiIiIiIiIhozGGoRUREREREREREYw5DLSIiIiIiIiIiGnMYahERERERERER0ZjDUIuIiIiIiIiIiMYchlpERERERERERDTmMNQiIiIiIiIiIqIxh6EW0f9rxw5IAAAAAAT9f92OQGcIAAAA7EgtAAAAAHakFgAAAAA7UgsAAACAHakFAAAAwI7UAgAAAGBHagEAAACwI7UAAAAA2JFaAAAAAOxILQAAAAB2pBYAAAAAO1ILAAAAgB2pBQAAAMCO1AIAAABgR2oBAAAAsCO1AAAAANiRWgAAAADsSC0AAAAAdqQWAAAAADtSCwAAAIAdqQUAAADAjtQCAAAAYEdqAQAAALAjtQAAAADYkVoAAAAA7EgtAAAAAHakFgAAAAA7UgsAAACAHakFAAAAwI7UAgAAAGBHagEAAACwI7UAAAAA2JFaAAAAAOxILQAAAAB2pBYAAAAAO1ILAAAAgB2pBQAAAMCO1AIAAABgR2oBAAAAsCO1AAAAANiRWgAAAADsSC0AAAAAdqQWAAAAADtSCwAAAIAdqQUAAADAjtQCAAAAYEdqAQAAALAjtQAAAADYkVoAAAAA7EgtAAAAAHakFgAAAAA7UgsAAACAHakFAAAAwI7UAgAAAGBHagEAAACwI7UAAAAA2JFaAAAAAOxILQAAAAB2pBYAAAAAO1ILAAAAgB2pBQAAAMCO1AIAAABgR2oBAAAAsCO1AAAAANiRWgAAAADsSC0AAAAAdqQWAAAAADtSCwAAAIAdqQUAAADAjtQCAAAAYEdqAQAAALAjtQAAAADYkVoAAAAA7EgtAAAAAHakFgAAAAA7UgsAAACAHakFAAAAwI7UAgAAAGBHagEAAACwI7UAAAAA2JFaAAAAAOxILQAAAAB2pBYAAAAAO1ILAAAAgB2pBQAAAMCO1AIAAABgR2oBAAAAsCO1AAAAANiRWgAAAADsSC0AAAAAdqQWAAAAADtSCwAAAIAdqQUAAADAjtQCAAAAYEdqAQAAALAjtQAAAADYkVoAAAAA7EgtAAAAAHakFgAAAAA7UgsAAACAHakFAAAAwI7UAgAAAGAn7pNAGVwXTCIAAAAASUVORK5CYII=;rotation=-90;" parent="1" vertex="1">
          <mxGeometry x="140" y="190" width="613.46" height="310.03" as="geometry" />
        </mxCell>
        <mxCell id="1lYzTN99lWk1iXp4mCHI-2" value="GPIO5" style="text;html=1;strokeColor=#d6b656;fillColor=#fff2cc;align=center;verticalAlign=middle;whiteSpace=wrap;overflow=hidden;" parent="1" vertex="1">
          <mxGeometry x="165.04" y="355.02" width="50" height="21.07" as="geometry" />
        </mxCell>
        <mxCell id="1lYzTN99lWk1iXp4mCHI-3" value="" style="verticalLabelPosition=top;html=1;shadow=0;dashed=0;verticalAlign=bottom;strokeWidth=1;shape=mxgraph.ios.iPin;fillColor2=#00dd00;fillColor3=#004400;strokeColor=#006600;direction=south;" parent="1" vertex="1">
          <mxGeometry x="339.03999999999996" y="437.08" width="25" height="10" as="geometry" />
        </mxCell>
        <mxCell id="1lYzTN99lWk1iXp4mCHI-4" value="" style="verticalLabelPosition=top;html=1;shadow=0;dashed=0;verticalAlign=bottom;strokeWidth=1;shape=mxgraph.ios.iPin;fillColor2=#00dd00;fillColor3=#004400;strokeColor=#006600;direction=south;" parent="1" vertex="1">
          <mxGeometry x="339.03999999999996" y="449.08" width="25" height="10" as="geometry" />
        </mxCell>
        <mxCell id="1lYzTN99lWk1iXp4mCHI-5" value="" style="verticalLabelPosition=top;html=1;shadow=0;dashed=0;verticalAlign=bottom;strokeWidth=1;shape=mxgraph.ios.iPin;fillColor2=#00dd00;fillColor3=#004400;strokeColor=#006600;direction=south;" parent="1" vertex="1">
          <mxGeometry x="339.03999999999996" y="462.08" width="25" height="10" as="geometry" />
        </mxCell>
        <mxCell id="1lYzTN99lWk1iXp4mCHI-6" value="" style="verticalLabelPosition=top;html=1;shadow=0;dashed=0;verticalAlign=bottom;strokeWidth=1;shape=mxgraph.ios.iPin;fillColor2=#00dd00;fillColor3=#004400;strokeColor=#006600;direction=south;" parent="1" vertex="1">
          <mxGeometry x="339.03999999999996" y="475.08" width="25" height="10" as="geometry" />
        </mxCell>
        <mxCell id="1lYzTN99lWk1iXp4mCHI-7" value="" style="verticalLabelPosition=top;html=1;shadow=0;dashed=0;verticalAlign=bottom;strokeWidth=1;shape=mxgraph.ios.iPin;fillColor2=#00dd00;fillColor3=#004400;strokeColor=#006600;direction=south;" parent="1" vertex="1">
          <mxGeometry x="339.03999999999996" y="487.08" width="25" height="10" as="geometry" />
        </mxCell>
        <mxCell id="1lYzTN99lWk1iXp4mCHI-8" value="" style="verticalLabelPosition=top;html=1;shadow=0;dashed=0;verticalAlign=bottom;strokeWidth=1;shape=mxgraph.ios.iPin;fillColor2=#00dd00;fillColor3=#004400;strokeColor=#006600;direction=south;" parent="1" vertex="1">
          <mxGeometry x="339.03999999999996" y="500.08" width="25" height="10" as="geometry" />
        </mxCell>
        <mxCell id="1lYzTN99lWk1iXp4mCHI-9" value="" style="verticalLabelPosition=top;html=1;shadow=0;dashed=0;verticalAlign=bottom;strokeWidth=1;shape=mxgraph.ios.iPin;fillColor2=#00dd00;fillColor3=#004400;strokeColor=#006600;direction=south;" parent="1" vertex="1">
          <mxGeometry x="339.03999999999996" y="512.08" width="25" height="10" as="geometry" />
        </mxCell>
        <mxCell id="1lYzTN99lWk1iXp4mCHI-10" value="" style="verticalLabelPosition=top;html=1;shadow=0;dashed=0;verticalAlign=bottom;strokeWidth=1;shape=mxgraph.ios.iPin;fillColor2=#00dd00;fillColor3=#004400;strokeColor=#006600;direction=south;" parent="1" vertex="1">
          <mxGeometry x="339.03999999999996" y="525.08" width="25" height="10" as="geometry" />
        </mxCell>
        <mxCell id="1lYzTN99lWk1iXp4mCHI-11" value="" style="verticalLabelPosition=top;html=1;shadow=0;dashed=0;verticalAlign=bottom;strokeWidth=1;shape=mxgraph.ios.iPin;fillColor2=#00dd00;fillColor3=#004400;strokeColor=#006600;direction=south;" parent="1" vertex="1">
          <mxGeometry x="339.03999999999996" y="537.08" width="25" height="10" as="geometry" />
        </mxCell>
        <mxCell id="1lYzTN99lWk1iXp4mCHI-13" value="" style="verticalLabelPosition=top;html=1;shadow=0;dashed=0;verticalAlign=bottom;strokeWidth=1;shape=mxgraph.ios.iPin;fillColor2=#00dd00;fillColor3=#004400;strokeColor=#006600;direction=north;" parent="1" vertex="1">
          <mxGeometry x="530.04" y="549.15" width="25" height="10" as="geometry" />
        </mxCell>
        <mxCell id="1lYzTN99lWk1iXp4mCHI-16" value="" style="verticalLabelPosition=top;html=1;shadow=0;dashed=0;verticalAlign=bottom;strokeWidth=1;shape=mxgraph.ios.iPin;fillColor2=#00dd00;fillColor3=#004400;strokeColor=#006600;direction=north;" parent="1" vertex="1">
          <mxGeometry x="530.04" y="474.08" width="25" height="10" as="geometry" />
        </mxCell>
        <mxCell id="1lYzTN99lWk1iXp4mCHI-17" value="" style="verticalLabelPosition=top;html=1;shadow=0;dashed=0;verticalAlign=bottom;strokeWidth=1;shape=mxgraph.ios.iPin;fillColor2=#00dd00;fillColor3=#004400;strokeColor=#006600;direction=north;" parent="1" vertex="1">
          <mxGeometry x="530.04" y="486.08" width="25" height="10" as="geometry" />
        </mxCell>
        <mxCell id="1lYzTN99lWk1iXp4mCHI-18" value="" style="verticalLabelPosition=top;html=1;shadow=0;dashed=0;verticalAlign=bottom;strokeWidth=1;shape=mxgraph.ios.iPin;fillColor2=#00dd00;fillColor3=#004400;strokeColor=#006600;direction=north;" parent="1" vertex="1">
          <mxGeometry x="530.04" y="499.08" width="25" height="10" as="geometry" />
        </mxCell>
        <mxCell id="1lYzTN99lWk1iXp4mCHI-19" value="" style="verticalLabelPosition=top;html=1;shadow=0;dashed=0;verticalAlign=bottom;strokeWidth=1;shape=mxgraph.ios.iPin;fillColor2=#00dd00;fillColor3=#004400;strokeColor=#006600;direction=north;" parent="1" vertex="1">
          <mxGeometry x="530.04" y="511.08" width="25" height="10" as="geometry" />
        </mxCell>
        <mxCell id="1lYzTN99lWk1iXp4mCHI-20" value="" style="verticalLabelPosition=top;html=1;shadow=0;dashed=0;verticalAlign=bottom;strokeWidth=1;shape=mxgraph.ios.iPin;fillColor2=#00dd00;fillColor3=#004400;strokeColor=#006600;direction=north;" parent="1" vertex="1">
          <mxGeometry x="530.04" y="524.08" width="25" height="10" as="geometry" />
        </mxCell>
        <mxCell id="1lYzTN99lWk1iXp4mCHI-21" value="" style="verticalLabelPosition=top;html=1;shadow=0;dashed=0;verticalAlign=bottom;strokeWidth=1;shape=mxgraph.ios.iPin;fillColor2=#00dd00;fillColor3=#004400;strokeColor=#006600;direction=north;" parent="1" vertex="1">
          <mxGeometry x="530.04" y="536.08" width="25" height="10" as="geometry" />
        </mxCell>
        <mxCell id="1lYzTN99lWk1iXp4mCHI-22" value="" style="verticalLabelPosition=top;html=1;shadow=0;dashed=0;verticalAlign=bottom;strokeWidth=1;shape=mxgraph.ios.iPin;fillColor2=#ccccff;fillColor3=#0000ff;strokeColor=#000066;direction=south;rotation=-180;" parent="1" vertex="1">
          <mxGeometry x="530.04" y="436.08" width="25" height="10" as="geometry" />
        </mxCell>
        <mxCell id="1lYzTN99lWk1iXp4mCHI-23" value="" style="verticalLabelPosition=top;html=1;shadow=0;dashed=0;verticalAlign=bottom;strokeWidth=1;shape=mxgraph.ios.iPin;fillColor2=#dd0000;fillColor3=#440000;strokeColor=#660000;direction=north;" parent="1" vertex="1">
          <mxGeometry x="530.04" y="461.08" width="25" height="10" as="geometry" />
        </mxCell>
        <mxCell id="1lYzTN99lWk1iXp4mCHI-24" value="" style="verticalLabelPosition=top;html=1;shadow=0;dashed=0;verticalAlign=bottom;strokeWidth=1;shape=mxgraph.ios.iPin;fillColor2=#dd0000;fillColor3=#440000;strokeColor=#660000;direction=north;" parent="1" vertex="1">
          <mxGeometry x="530.04" y="449.08" width="25" height="10" as="geometry" />
        </mxCell>
        <mxCell id="1lYzTN99lWk1iXp4mCHI-27" value="&lt;div&gt;GPIO16&lt;/div&gt;" style="text;html=1;strokeColor=#d6b656;fillColor=#fff2cc;align=center;verticalAlign=middle;whiteSpace=wrap;overflow=hidden;" parent="1" vertex="1">
          <mxGeometry x="165.04" y="376.02" width="50" height="21.07" as="geometry" />
        </mxCell>
        <mxCell id="1lYzTN99lWk1iXp4mCHI-28" value="GPIO4" style="text;html=1;strokeColor=#d6b656;fillColor=#fff2cc;align=center;verticalAlign=middle;whiteSpace=wrap;overflow=hidden;" parent="1" vertex="1">
          <mxGeometry x="165.04" y="396.47999999999996" width="50" height="21.07" as="geometry" />
        </mxCell>
        <mxCell id="1lYzTN99lWk1iXp4mCHI-29" value="GPIO0" style="text;html=1;strokeColor=#d6b656;fillColor=#fff2cc;align=center;verticalAlign=middle;whiteSpace=wrap;overflow=hidden;" parent="1" vertex="1">
          <mxGeometry x="165.04" y="417.55" width="50" height="21.07" as="geometry" />
        </mxCell>
        <mxCell id="1lYzTN99lWk1iXp4mCHI-30" value="GPIO2" style="text;html=1;strokeColor=#d6b656;fillColor=#fff2cc;align=center;verticalAlign=middle;whiteSpace=wrap;overflow=hidden;" parent="1" vertex="1">
          <mxGeometry x="165.04" y="437.55" width="50" height="21.07" as="geometry" />
        </mxCell>
        <mxCell id="1lYzTN99lWk1iXp4mCHI-31" value="GPIO15" style="text;html=1;strokeColor=#d6b656;fillColor=#fff2cc;align=center;verticalAlign=middle;whiteSpace=wrap;overflow=hidden;" parent="1" vertex="1">
          <mxGeometry x="165.04" y="459.00999999999993" width="50" height="21.07" as="geometry" />
        </mxCell>
        <mxCell id="1lYzTN99lWk1iXp4mCHI-32" value="GPIO13" style="text;html=1;strokeColor=#d6b656;fillColor=#fff2cc;align=center;verticalAlign=middle;whiteSpace=wrap;overflow=hidden;" parent="1" vertex="1">
          <mxGeometry x="165.04" y="480.54999999999995" width="50" height="21.07" as="geometry" />
        </mxCell>
        <mxCell id="1lYzTN99lWk1iXp4mCHI-33" value="GPIO1" style="text;html=1;strokeColor=#d6b656;fillColor=#fff2cc;align=center;verticalAlign=middle;whiteSpace=wrap;overflow=hidden;" parent="1" vertex="1">
          <mxGeometry x="165.04" y="500.54999999999995" width="50" height="21.07" as="geometry" />
        </mxCell>
        <mxCell id="1lYzTN99lWk1iXp4mCHI-34" value="GPIO3" style="text;html=1;strokeColor=#d6b656;fillColor=#fff2cc;align=center;verticalAlign=middle;whiteSpace=wrap;overflow=hidden;" parent="1" vertex="1">
          <mxGeometry x="165.04" y="522.01" width="50" height="21.07" as="geometry" />
        </mxCell>
        <mxCell id="1lYzTN99lWk1iXp4mCHI-43" value="" style="endArrow=none;html=1;rounded=0;fontSize=5;exitX=0.607;exitY=1;exitDx=0;exitDy=0;exitPerimeter=0;entryX=1;entryY=0.5;entryDx=0;entryDy=0;edgeStyle=elbowEdgeStyle;" parent="1" target="1lYzTN99lWk1iXp4mCHI-2" edge="1">
          <mxGeometry width="50" height="50" relative="1" as="geometry">
            <mxPoint x="339.03999999999996" y="442.1500000000001" as="sourcePoint" />
            <mxPoint x="269.03999999999996" y="358.55499999999995" as="targetPoint" />
            <Array as="points">
              <mxPoint x="319.03999999999996" y="406.15" />
            </Array>
          </mxGeometry>
        </mxCell>
        <mxCell id="1lYzTN99lWk1iXp4mCHI-44" value="" style="endArrow=none;html=1;rounded=0;fontSize=5;exitX=0.807;exitY=1;exitDx=0;exitDy=0;exitPerimeter=0;edgeStyle=elbowEdgeStyle;entryX=1;entryY=0.5;entryDx=0;entryDy=0;" parent="1" target="1lYzTN99lWk1iXp4mCHI-27" edge="1">
          <mxGeometry width="50" height="50" relative="1" as="geometry">
            <mxPoint x="339.03999999999996" y="454.1500000000001" as="sourcePoint" />
            <mxPoint x="269.03999999999996" y="377.15" as="targetPoint" />
            <Array as="points">
              <mxPoint x="309.03999999999996" y="417.15" />
            </Array>
          </mxGeometry>
        </mxCell>
        <mxCell id="1lYzTN99lWk1iXp4mCHI-45" value="" style="endArrow=none;html=1;rounded=0;fontSize=5;exitX=0.807;exitY=1;exitDx=0;exitDy=0;exitPerimeter=0;edgeStyle=elbowEdgeStyle;entryX=1;entryY=0.5;entryDx=0;entryDy=0;" parent="1" target="1lYzTN99lWk1iXp4mCHI-28" edge="1">
          <mxGeometry width="50" height="50" relative="1" as="geometry">
            <mxPoint x="339.03999999999996" y="467.1500000000001" as="sourcePoint" />
            <mxPoint x="269.03999999999996" y="393.55499999999995" as="targetPoint" />
            <Array as="points">
              <mxPoint x="299.03999999999996" y="437.15" />
            </Array>
          </mxGeometry>
        </mxCell>
        <mxCell id="1lYzTN99lWk1iXp4mCHI-46" value="" style="endArrow=none;html=1;rounded=0;fontSize=5;edgeStyle=elbowEdgeStyle;entryX=1;entryY=0.5;entryDx=0;entryDy=0;" parent="1" target="1lYzTN99lWk1iXp4mCHI-29" edge="1">
          <mxGeometry width="50" height="50" relative="1" as="geometry">
            <mxPoint x="339.03999999999996" y="480.15" as="sourcePoint" />
            <mxPoint x="269.03999999999996" y="424.0149999999999" as="targetPoint" />
            <Array as="points">
              <mxPoint x="289.03999999999996" y="450.15" />
            </Array>
          </mxGeometry>
        </mxCell>
        <mxCell id="1lYzTN99lWk1iXp4mCHI-47" value="" style="endArrow=none;html=1;rounded=0;fontSize=5;edgeStyle=elbowEdgeStyle;" parent="1" target="1lYzTN99lWk1iXp4mCHI-30" edge="1">
          <mxGeometry width="50" height="50" relative="1" as="geometry">
            <mxPoint x="339.03999999999996" y="492.15" as="sourcePoint" />
            <mxPoint x="239.04" y="444.08500000000004" as="targetPoint" />
            <Array as="points">
              <mxPoint x="279.03999999999996" y="469.15" />
            </Array>
          </mxGeometry>
        </mxCell>
        <mxCell id="1lYzTN99lWk1iXp4mCHI-48" value="" style="endArrow=none;html=1;rounded=0;fontSize=5;edgeStyle=elbowEdgeStyle;entryX=1;entryY=0.5;entryDx=0;entryDy=0;" parent="1" target="1lYzTN99lWk1iXp4mCHI-31" edge="1">
          <mxGeometry width="50" height="50" relative="1" as="geometry">
            <mxPoint x="340.03999999999996" y="505.15" as="sourcePoint" />
            <mxPoint x="240.04" y="455.08500000000004" as="targetPoint" />
            <Array as="points">
              <mxPoint x="269.03999999999996" y="487.15" />
            </Array>
          </mxGeometry>
        </mxCell>
        <mxCell id="1lYzTN99lWk1iXp4mCHI-49" value="" style="endArrow=none;html=1;rounded=0;fontSize=5;edgeStyle=elbowEdgeStyle;entryX=1;entryY=0.5;entryDx=0;entryDy=0;" parent="1" target="1lYzTN99lWk1iXp4mCHI-32" edge="1">
          <mxGeometry width="50" height="50" relative="1" as="geometry">
            <mxPoint x="339.03999999999996" y="517.15" as="sourcePoint" />
            <mxPoint x="249.04" y="473.54499999999985" as="targetPoint" />
            <Array as="points">
              <mxPoint x="259.03999999999996" y="507.15" />
            </Array>
          </mxGeometry>
        </mxCell>
        <mxCell id="1lYzTN99lWk1iXp4mCHI-50" value="" style="endArrow=none;html=1;rounded=0;fontSize=5;edgeStyle=elbowEdgeStyle;entryX=1;entryY=0.5;entryDx=0;entryDy=0;exitX=0.407;exitY=0.96;exitDx=0;exitDy=0;exitPerimeter=0;" parent="1" target="1lYzTN99lWk1iXp4mCHI-33" edge="1">
          <mxGeometry width="50" height="50" relative="1" as="geometry">
            <mxPoint x="340.03999999999996" y="530.1500000000001" as="sourcePoint" />
            <mxPoint x="222.04" y="506.0849999999999" as="targetPoint" />
            <Array as="points">
              <mxPoint x="249.04" y="518.15" />
            </Array>
          </mxGeometry>
        </mxCell>
        <mxCell id="1lYzTN99lWk1iXp4mCHI-52" value="" style="endArrow=none;html=1;rounded=0;fontSize=5;edgeStyle=elbowEdgeStyle;entryX=1;entryY=0.5;entryDx=0;entryDy=0;exitX=0.407;exitY=0.96;exitDx=0;exitDy=0;exitPerimeter=0;" parent="1" target="1lYzTN99lWk1iXp4mCHI-34" edge="1">
          <mxGeometry width="50" height="50" relative="1" as="geometry">
            <mxPoint x="340.03999999999996" y="542.1500000000001" as="sourcePoint" />
            <mxPoint x="222.04" y="527.545" as="targetPoint" />
            <Array as="points">
              <mxPoint x="239.04" y="538.15" />
            </Array>
          </mxGeometry>
        </mxCell>
        <mxCell id="1lYzTN99lWk1iXp4mCHI-55" value="" style="endArrow=none;html=1;rounded=0;fontSize=5;edgeStyle=elbowEdgeStyle;entryX=1;entryY=0.5;entryDx=0;entryDy=0;exitX=0.5;exitY=0.96;exitDx=0;exitDy=0;exitPerimeter=0;" parent="1" edge="1">
          <mxGeometry width="50" height="50" relative="1" as="geometry">
            <mxPoint x="340.03999999999996" y="554.15" as="sourcePoint" />
            <mxPoint x="215.04" y="554.1150000000001" as="targetPoint" />
            <Array as="points">
              <mxPoint x="229.04" y="549.15" />
            </Array>
          </mxGeometry>
        </mxCell>
        <mxCell id="1lYzTN99lWk1iXp4mCHI-69" value="GPIO12" style="text;html=1;strokeColor=#d6b656;fillColor=#fff2cc;align=center;verticalAlign=middle;whiteSpace=wrap;overflow=hidden;" parent="1" vertex="1">
          <mxGeometry x="680.48" y="417.55" width="50" height="21.07" as="geometry" />
        </mxCell>
        <mxCell id="1lYzTN99lWk1iXp4mCHI-70" value="GPIO14" style="text;html=1;strokeColor=#d6b656;fillColor=#fff2cc;align=center;verticalAlign=middle;whiteSpace=wrap;overflow=hidden;" parent="1" vertex="1">
          <mxGeometry x="680.48" y="437.55" width="50" height="21.07" as="geometry" />
        </mxCell>
        <mxCell id="1lYzTN99lWk1iXp4mCHI-71" value="GPIO33" style="text;html=1;strokeColor=#d6b656;fillColor=#fff2cc;align=center;verticalAlign=middle;whiteSpace=wrap;overflow=hidden;" parent="1" vertex="1">
          <mxGeometry x="680.48" y="459.00999999999993" width="50" height="21.07" as="geometry" />
        </mxCell>
        <mxCell id="1lYzTN99lWk1iXp4mCHI-72" value="**GPI35" style="text;html=1;strokeColor=#d6b656;fillColor=#fff2cc;align=center;verticalAlign=middle;whiteSpace=wrap;overflow=hidden;" parent="1" vertex="1">
          <mxGeometry x="680.48" y="480" width="50" height="21.56" as="geometry" />
        </mxCell>
        <mxCell id="1lYzTN99lWk1iXp4mCHI-73" value="**GPI34" style="text;html=1;strokeColor=#d6b656;fillColor=#fff2cc;align=center;verticalAlign=middle;whiteSpace=wrap;overflow=hidden;" parent="1" vertex="1">
          <mxGeometry x="680.48" y="500.54999999999995" width="50" height="21.07" as="geometry" />
        </mxCell>
        <mxCell id="1lYzTN99lWk1iXp4mCHI-74" value="**GPI39" style="text;html=1;strokeColor=#d6b656;fillColor=#fff2cc;align=center;verticalAlign=middle;whiteSpace=wrap;overflow=hidden;" parent="1" vertex="1">
          <mxGeometry x="680.48" y="522.01" width="50" height="21.07" as="geometry" />
        </mxCell>
        <mxCell id="1lYzTN99lWk1iXp4mCHI-75" value="&lt;div&gt;GND&lt;/div&gt;" style="text;html=1;strokeColor=#6c8ebf;fillColor=#0000FF;align=center;verticalAlign=middle;whiteSpace=wrap;overflow=hidden;" parent="1" vertex="1">
          <mxGeometry x="680.48" y="353.95000000000005" width="49.9999" height="22.07" as="geometry" />
        </mxCell>
        <mxCell id="1lYzTN99lWk1iXp4mCHI-87" value="3.3V" style="text;html=1;strokeColor=#b85450;fillColor=#FF0000;align=center;verticalAlign=middle;whiteSpace=wrap;overflow=hidden;direction=west;" parent="1" vertex="1">
          <mxGeometry x="680.48" y="376.09" width="49.9999" height="20.8661" as="geometry" />
        </mxCell>
        <mxCell id="1lYzTN99lWk1iXp4mCHI-88" value="&lt;div&gt;5V&lt;/div&gt;" style="text;html=1;strokeColor=#b85450;fillColor=#FF0000;align=center;verticalAlign=middle;whiteSpace=wrap;overflow=hidden;direction=west;" parent="1" vertex="1">
          <mxGeometry x="680.48" y="396.47999999999996" width="49.9999" height="20.8661" as="geometry" />
        </mxCell>
        <mxCell id="1lYzTN99lWk1iXp4mCHI-89" value="**GPI36" style="text;html=1;strokeColor=#d6b656;fillColor=#fff2cc;align=center;verticalAlign=middle;whiteSpace=wrap;overflow=hidden;" parent="1" vertex="1">
          <mxGeometry x="680.48" y="542.9123" width="50" height="21.07" as="geometry" />
        </mxCell>
        <mxCell id="1lYzTN99lWk1iXp4mCHI-90" value="" style="endArrow=none;html=1;rounded=0;fontSize=5;edgeStyle=elbowEdgeStyle;entryX=1;entryY=0.5;entryDx=0;entryDy=0;exitX=0.5;exitY=0.96;exitDx=0;exitDy=0;exitPerimeter=0;" parent="1" edge="1">
          <mxGeometry width="50" height="50" relative="1" as="geometry">
            <mxPoint x="680.04" y="554.15" as="sourcePoint" />
            <mxPoint x="555.04" y="554.1150000000001" as="targetPoint" />
            <Array as="points">
              <mxPoint x="569.04" y="549.15" />
            </Array>
          </mxGeometry>
        </mxCell>
        <mxCell id="1lYzTN99lWk1iXp4mCHI-95" value="" style="endArrow=none;html=1;rounded=0;fontSize=5;exitX=0;exitY=0.5;exitDx=0;exitDy=0;entryX=0.593;entryY=0.92;entryDx=0;entryDy=0;edgeStyle=elbowEdgeStyle;entryPerimeter=0;" parent="1" edge="1">
          <mxGeometry width="50" height="50" relative="1" as="geometry">
            <mxPoint x="680.48" y="365.985" as="sourcePoint" />
            <mxPoint x="553.04" y="441.15" as="targetPoint" />
            <Array as="points">
              <mxPoint x="579.04" y="407.15" />
            </Array>
          </mxGeometry>
        </mxCell>
        <mxCell id="1lYzTN99lWk1iXp4mCHI-96" value="" style="endArrow=none;html=1;rounded=0;fontSize=5;exitX=1;exitY=0.5;exitDx=0;exitDy=0;entryX=0.593;entryY=0.92;entryDx=0;entryDy=0;edgeStyle=elbowEdgeStyle;entryPerimeter=0;" parent="1" source="1lYzTN99lWk1iXp4mCHI-87" edge="1">
          <mxGeometry width="50" height="50" relative="1" as="geometry">
            <mxPoint x="681.48" y="378.985" as="sourcePoint" />
            <mxPoint x="554.04" y="454.15" as="targetPoint" />
            <Array as="points">
              <mxPoint x="589.04" y="417.15" />
            </Array>
          </mxGeometry>
        </mxCell>
        <mxCell id="1lYzTN99lWk1iXp4mCHI-97" value="" style="endArrow=none;html=1;rounded=0;fontSize=5;exitX=1;exitY=0.5;exitDx=0;exitDy=0;entryX=0.693;entryY=1.16;entryDx=0;entryDy=0;edgeStyle=elbowEdgeStyle;entryPerimeter=0;" parent="1" source="1lYzTN99lWk1iXp4mCHI-88" edge="1">
          <mxGeometry width="50" height="50" relative="1" as="geometry">
            <mxPoint x="685.48" y="398.52305" as="sourcePoint" />
            <mxPoint x="554.04" y="466.15" as="targetPoint" />
            <Array as="points">
              <mxPoint x="599.04" y="437.15" />
            </Array>
          </mxGeometry>
        </mxCell>
        <mxCell id="1lYzTN99lWk1iXp4mCHI-98" value="" style="endArrow=none;html=1;rounded=0;fontSize=5;entryX=0.393;entryY=0.8;entryDx=0;entryDy=0;edgeStyle=elbowEdgeStyle;entryPerimeter=0;" parent="1" edge="1">
          <mxGeometry width="50" height="50" relative="1" as="geometry">
            <mxPoint x="680.04" y="426.15" as="sourcePoint" />
            <mxPoint x="550.04" y="479.15" as="targetPoint" />
            <Array as="points">
              <mxPoint x="609.04" y="457.15" />
            </Array>
          </mxGeometry>
        </mxCell>
        <mxCell id="1lYzTN99lWk1iXp4mCHI-99" value="" style="endArrow=none;html=1;rounded=0;fontSize=5;entryX=0.393;entryY=0.8;entryDx=0;entryDy=0;edgeStyle=elbowEdgeStyle;entryPerimeter=0;" parent="1" edge="1">
          <mxGeometry width="50" height="50" relative="1" as="geometry">
            <mxPoint x="680.04" y="447.15" as="sourcePoint" />
            <mxPoint x="551.04" y="491.58" as="targetPoint" />
            <Array as="points">
              <mxPoint x="619.04" y="467.15" />
            </Array>
          </mxGeometry>
        </mxCell>
        <mxCell id="1lYzTN99lWk1iXp4mCHI-100" value="" style="endArrow=none;html=1;rounded=0;fontSize=5;entryX=0.393;entryY=0.8;entryDx=0;entryDy=0;edgeStyle=elbowEdgeStyle;entryPerimeter=0;exitX=0;exitY=0.5;exitDx=0;exitDy=0;" parent="1" source="1lYzTN99lWk1iXp4mCHI-71" edge="1">
          <mxGeometry width="50" height="50" relative="1" as="geometry">
            <mxPoint x="683.04" y="460.15" as="sourcePoint" />
            <mxPoint x="554.04" y="504.58000000000004" as="targetPoint" />
            <Array as="points">
              <mxPoint x="629.04" y="487.15" />
            </Array>
          </mxGeometry>
        </mxCell>
        <mxCell id="1lYzTN99lWk1iXp4mCHI-101" value="" style="endArrow=none;html=1;rounded=0;fontSize=5;entryX=0.393;entryY=0.8;entryDx=0;entryDy=0;edgeStyle=elbowEdgeStyle;entryPerimeter=0;exitX=0;exitY=0.5;exitDx=0;exitDy=0;" parent="1" source="1lYzTN99lWk1iXp4mCHI-72" edge="1">
          <mxGeometry width="50" height="50" relative="1" as="geometry">
            <mxPoint x="680.48" y="481.54499999999996" as="sourcePoint" />
            <mxPoint x="554.04" y="516.58" as="targetPoint" />
            <Array as="points">
              <mxPoint x="639.04" y="497.15" />
            </Array>
          </mxGeometry>
        </mxCell>
        <mxCell id="1lYzTN99lWk1iXp4mCHI-102" value="" style="endArrow=none;html=1;rounded=0;fontSize=5;entryX=0.393;entryY=0.8;entryDx=0;entryDy=0;edgeStyle=elbowEdgeStyle;entryPerimeter=0;" parent="1" edge="1">
          <mxGeometry width="50" height="50" relative="1" as="geometry">
            <mxPoint x="679.04" y="507.15" as="sourcePoint" />
            <mxPoint x="554.04" y="528.58" as="targetPoint" />
            <Array as="points">
              <mxPoint x="649.04" y="517.15" />
            </Array>
          </mxGeometry>
        </mxCell>
        <mxCell id="1lYzTN99lWk1iXp4mCHI-103" value="" style="endArrow=none;html=1;rounded=0;fontSize=5;entryX=0.393;entryY=0.8;entryDx=0;entryDy=0;edgeStyle=elbowEdgeStyle;entryPerimeter=0;exitX=0;exitY=0.5;exitDx=0;exitDy=0;" parent="1" source="1lYzTN99lWk1iXp4mCHI-74" edge="1">
          <mxGeometry width="50" height="50" relative="1" as="geometry">
            <mxPoint x="679.04" y="527.15" as="sourcePoint" />
            <mxPoint x="555.04" y="541.58" as="targetPoint" />
            <Array as="points">
              <mxPoint x="659.04" y="537.15" />
            </Array>
          </mxGeometry>
        </mxCell>
        <mxCell id="OA18qLGr5_qBYXWfxLSv-1" value="&lt;div&gt;GPIO32&lt;/div&gt;" style="text;html=1;strokeColor=#d6b656;fillColor=#fff2cc;align=center;verticalAlign=middle;whiteSpace=wrap;overflow=hidden;" parent="1" vertex="1">
          <mxGeometry x="165.04" y="542.55" width="50" height="21.07" as="geometry" />
        </mxCell>
        <mxCell id="cE-21o4Gt5_F8m1UTusz-2" value="" style="verticalLabelPosition=top;html=1;shadow=0;dashed=0;verticalAlign=bottom;strokeWidth=1;shape=mxgraph.ios.iPin;fillColor2=#00dd00;fillColor3=#004400;strokeColor=#006600;direction=south;" parent="1" vertex="1">
          <mxGeometry x="339.03999999999996" y="549.08" width="25" height="10" as="geometry" />
        </mxCell>
        <mxCell id="FPyzdAFVNhbkyVy7kzHq-4" value="&lt;div&gt;ADC2_0&lt;/div&gt;" style="text;html=1;strokeColor=#82b366;fillColor=#d5e8d4;align=center;verticalAlign=middle;whiteSpace=wrap;overflow=hidden;" vertex="1" parent="1">
          <mxGeometry x="110" y="396.28" width="55.04" height="21.07" as="geometry" />
        </mxCell>
        <mxCell id="FPyzdAFVNhbkyVy7kzHq-5" value="TOUCH0" style="text;html=1;strokeColor=#6c8ebf;fillColor=#dae8fc;align=center;verticalAlign=middle;whiteSpace=wrap;overflow=hidden;" vertex="1" parent="1">
          <mxGeometry x="54.959999999999994" y="396.96" width="55.04" height="21.07" as="geometry" />
        </mxCell>
        <mxCell id="FPyzdAFVNhbkyVy7kzHq-6" value="&lt;div&gt;ADC2_1&lt;/div&gt;" style="text;html=1;strokeColor=#82b366;fillColor=#d5e8d4;align=center;verticalAlign=middle;whiteSpace=wrap;overflow=hidden;" vertex="1" parent="1">
          <mxGeometry x="110" y="417.54999999999995" width="55.04" height="21.07" as="geometry" />
        </mxCell>
        <mxCell id="FPyzdAFVNhbkyVy7kzHq-7" value="&lt;div&gt;TOUCH1&lt;/div&gt;" style="text;html=1;strokeColor=#6c8ebf;fillColor=#dae8fc;align=center;verticalAlign=middle;whiteSpace=wrap;overflow=hidden;" vertex="1" parent="1">
          <mxGeometry x="54.959999999999994" y="417.54999999999995" width="55.04" height="21.07" as="geometry" />
        </mxCell>
        <mxCell id="FPyzdAFVNhbkyVy7kzHq-8" value="&lt;div&gt;ADC2_2&lt;/div&gt;" style="text;html=1;strokeColor=#82b366;fillColor=#d5e8d4;align=center;verticalAlign=middle;whiteSpace=wrap;overflow=hidden;" vertex="1" parent="1">
          <mxGeometry x="110" y="438.0799999999999" width="55.04" height="21.07" as="geometry" />
        </mxCell>
        <mxCell id="FPyzdAFVNhbkyVy7kzHq-9" value="&lt;div&gt;TOUCH2&lt;/div&gt;" style="text;html=1;strokeColor=#6c8ebf;fillColor=#dae8fc;align=center;verticalAlign=middle;whiteSpace=wrap;overflow=hidden;" vertex="1" parent="1">
          <mxGeometry x="54.959999999999994" y="438.0799999999999" width="55.04" height="21.07" as="geometry" />
        </mxCell>
        <mxCell id="FPyzdAFVNhbkyVy7kzHq-10" value="&lt;div&gt;ADC2_3&lt;/div&gt;" style="text;html=1;strokeColor=#82b366;fillColor=#d5e8d4;align=center;verticalAlign=middle;whiteSpace=wrap;overflow=hidden;" vertex="1" parent="1">
          <mxGeometry x="110" y="459.0799999999999" width="55.04" height="21.07" as="geometry" />
        </mxCell>
        <mxCell id="FPyzdAFVNhbkyVy7kzHq-11" value="&lt;div&gt;TOUCH3&lt;/div&gt;" style="text;html=1;strokeColor=#6c8ebf;fillColor=#dae8fc;align=center;verticalAlign=middle;whiteSpace=wrap;overflow=hidden;" vertex="1" parent="1">
          <mxGeometry x="54.959999999999994" y="459.1499999999999" width="55.04" height="21.07" as="geometry" />
        </mxCell>
        <mxCell id="FPyzdAFVNhbkyVy7kzHq-12" value="HSPICS0" style="text;html=1;strokeColor=#666666;fillColor=#f5f5f5;align=center;verticalAlign=middle;whiteSpace=wrap;overflow=hidden;fontColor=#333333;" vertex="1" parent="1">
          <mxGeometry x="-10" y="458.08" width="64.96" height="21.653499999999998" as="geometry" />
        </mxCell>
        <mxCell id="FPyzdAFVNhbkyVy7kzHq-13" value="&lt;div&gt;TOUCH4&lt;/div&gt;" style="text;html=1;strokeColor=#6c8ebf;fillColor=#dae8fc;align=center;verticalAlign=middle;whiteSpace=wrap;overflow=hidden;" vertex="1" parent="1">
          <mxGeometry x="54.959999999999994" y="480.00999999999993" width="55.04" height="21.07" as="geometry" />
        </mxCell>
        <mxCell id="FPyzdAFVNhbkyVy7kzHq-14" value="&lt;div&gt;ADC2_4&lt;/div&gt;" style="text;html=1;strokeColor=#82b366;fillColor=#d5e8d4;align=center;verticalAlign=middle;whiteSpace=wrap;overflow=hidden;" vertex="1" parent="1">
          <mxGeometry x="110" y="480.00999999999993" width="55.04" height="21.07" as="geometry" />
        </mxCell>
        <mxCell id="FPyzdAFVNhbkyVy7kzHq-15" value="&lt;div&gt;ADC1_4&lt;/div&gt;" style="text;html=1;strokeColor=#82b366;fillColor=#d5e8d4;align=center;verticalAlign=middle;whiteSpace=wrap;overflow=hidden;" vertex="1" parent="1">
          <mxGeometry x="110" y="542.55" width="55.04" height="21.07" as="geometry" />
        </mxCell>
        <mxCell id="FPyzdAFVNhbkyVy7kzHq-16" value="&lt;div&gt;TOUCH9&lt;/div&gt;" style="text;html=1;strokeColor=#6c8ebf;fillColor=#dae8fc;align=center;verticalAlign=middle;whiteSpace=wrap;overflow=hidden;" vertex="1" parent="1">
          <mxGeometry x="54.959999999999994" y="542.55" width="55.04" height="21.07" as="geometry" />
        </mxCell>
        <mxCell id="FPyzdAFVNhbkyVy7kzHq-18" value="VP" style="text;html=1;strokeColor=#d6b656;fillColor=#fff2cc;align=center;verticalAlign=middle;whiteSpace=wrap;overflow=hidden;" vertex="1" parent="1">
          <mxGeometry x="730.48" y="542.9123" width="50" height="21.07" as="geometry" />
        </mxCell>
        <mxCell id="FPyzdAFVNhbkyVy7kzHq-19" value="VN" style="text;html=1;strokeColor=#d6b656;fillColor=#fff2cc;align=center;verticalAlign=middle;whiteSpace=wrap;overflow=hidden;" vertex="1" parent="1">
          <mxGeometry x="730.48" y="522.0462" width="50" height="21.07" as="geometry" />
        </mxCell>
        <mxCell id="FPyzdAFVNhbkyVy7kzHq-20" value="&lt;div&gt;ADC1_9&lt;/div&gt;" style="text;html=1;strokeColor=#82b366;fillColor=#d5e8d4;align=center;verticalAlign=middle;whiteSpace=wrap;overflow=hidden;" vertex="1" parent="1">
          <mxGeometry x="780.48" y="522.01" width="55.04" height="21.07" as="geometry" />
        </mxCell>
        <mxCell id="FPyzdAFVNhbkyVy7kzHq-21" value="&lt;div&gt;ADC1_0&lt;/div&gt;" style="text;html=1;strokeColor=#82b366;fillColor=#d5e8d4;align=center;verticalAlign=middle;whiteSpace=wrap;overflow=hidden;" vertex="1" parent="1">
          <mxGeometry x="780.48" y="542.9123" width="55.04" height="21.07" as="geometry" />
        </mxCell>
        <mxCell id="FPyzdAFVNhbkyVy7kzHq-22" value="&lt;div&gt;ADC1_7&lt;/div&gt;" style="text;html=1;strokeColor=#82b366;fillColor=#d5e8d4;align=center;verticalAlign=middle;whiteSpace=wrap;overflow=hidden;" vertex="1" parent="1">
          <mxGeometry x="730.48" y="477.15" width="49.52" height="23.23" as="geometry" />
        </mxCell>
        <mxCell id="FPyzdAFVNhbkyVy7kzHq-23" value="&lt;div&gt;ADC1_6&lt;/div&gt;" style="text;html=1;strokeColor=#82b366;fillColor=#d5e8d4;align=center;verticalAlign=middle;whiteSpace=wrap;overflow=hidden;" vertex="1" parent="1">
          <mxGeometry x="730.48" y="500" width="49.52" height="22" as="geometry" />
        </mxCell>
        <mxCell id="FPyzdAFVNhbkyVy7kzHq-24" value="&lt;div&gt;ADC1_5&lt;/div&gt;" style="text;html=1;strokeColor=#82b366;fillColor=#d5e8d4;align=center;verticalAlign=middle;whiteSpace=wrap;overflow=hidden;" vertex="1" parent="1">
          <mxGeometry x="730.48" y="458.94" width="49.52" height="21.07" as="geometry" />
        </mxCell>
        <mxCell id="FPyzdAFVNhbkyVy7kzHq-25" value="&lt;div&gt;TOUCH8&lt;/div&gt;" style="text;html=1;strokeColor=#6c8ebf;fillColor=#dae8fc;align=center;verticalAlign=middle;whiteSpace=wrap;overflow=hidden;" vertex="1" parent="1">
          <mxGeometry x="780.48" y="458.61999999999995" width="55.04" height="21.07" as="geometry" />
        </mxCell>
        <mxCell id="FPyzdAFVNhbkyVy7kzHq-26" value="&lt;div&gt;ADC2_6&lt;/div&gt;" style="text;html=1;strokeColor=#82b366;fillColor=#d5e8d4;align=center;verticalAlign=middle;whiteSpace=wrap;overflow=hidden;" vertex="1" parent="1">
          <mxGeometry x="730.96" y="437.55" width="49.52" height="21.07" as="geometry" />
        </mxCell>
        <mxCell id="FPyzdAFVNhbkyVy7kzHq-27" value="&lt;div&gt;TOUCH6&lt;/div&gt;" style="text;html=1;strokeColor=#6c8ebf;fillColor=#dae8fc;align=center;verticalAlign=middle;whiteSpace=wrap;overflow=hidden;" vertex="1" parent="1">
          <mxGeometry x="780.48" y="437.54999999999995" width="55.04" height="21.07" as="geometry" />
        </mxCell>
        <mxCell id="FPyzdAFVNhbkyVy7kzHq-28" value="&lt;div&gt;ADC2_5&lt;/div&gt;" style="text;html=1;strokeColor=#82b366;fillColor=#d5e8d4;align=center;verticalAlign=middle;whiteSpace=wrap;overflow=hidden;" vertex="1" parent="1">
          <mxGeometry x="730.96" y="418.01" width="49.52" height="20.078699999999998" as="geometry" />
        </mxCell>
        <mxCell id="FPyzdAFVNhbkyVy7kzHq-29" value="&lt;div&gt;TOUCH5&lt;/div&gt;" style="text;html=1;strokeColor=#6c8ebf;fillColor=#dae8fc;align=center;verticalAlign=middle;whiteSpace=wrap;overflow=hidden;" vertex="1" parent="1">
          <mxGeometry x="780.48" y="418.03" width="55.04" height="20.078699999999998" as="geometry" />
        </mxCell>
        <mxCell id="FPyzdAFVNhbkyVy7kzHq-31" value="HSPICLK" style="text;html=1;strokeColor=#666666;fillColor=#f5f5f5;align=center;verticalAlign=middle;whiteSpace=wrap;overflow=hidden;fontColor=#333333;" vertex="1" parent="1">
          <mxGeometry x="835.52" y="438.11" width="64.48" height="20.08" as="geometry" />
        </mxCell>
        <mxCell id="FPyzdAFVNhbkyVy7kzHq-32" value="HSPIMOSI" style="text;html=1;strokeColor=#666666;fillColor=#f5f5f5;align=center;verticalAlign=middle;whiteSpace=wrap;overflow=hidden;fontColor=#333333;" vertex="1" parent="1">
          <mxGeometry x="-10" y="480.01" width="65.04" height="21.07" as="geometry" />
        </mxCell>
        <mxCell id="FPyzdAFVNhbkyVy7kzHq-33" value="HSPIMISO" style="text;html=1;strokeColor=#666666;fillColor=#f5f5f5;align=center;verticalAlign=middle;whiteSpace=wrap;overflow=hidden;fontColor=#333333;" vertex="1" parent="1">
          <mxGeometry x="835.52" y="418.54" width="64.48" height="20.08" as="geometry" />
        </mxCell>
        <mxCell id="FPyzdAFVNhbkyVy7kzHq-36" value="BUTTON" style="text;html=1;strokeColor=#9673a6;fillColor=#e1d5e7;align=center;verticalAlign=middle;whiteSpace=wrap;overflow=hidden;" vertex="1" parent="1">
          <mxGeometry x="-10" y="418.02" width="65.04" height="20.4724" as="geometry" />
        </mxCell>
        <mxCell id="FPyzdAFVNhbkyVy7kzHq-38" value="LED" style="text;html=1;strokeColor=#9673a6;fillColor=#e1d5e7;align=center;verticalAlign=middle;whiteSpace=wrap;overflow=hidden;" vertex="1" parent="1">
          <mxGeometry x="-10" y="438.68" width="65.04" height="20.4724" as="geometry" />
        </mxCell>
        <mxCell id="FPyzdAFVNhbkyVy7kzHq-39" value="TX0" style="text;html=1;strokeColor=#666666;fillColor=#f5f5f5;align=center;verticalAlign=middle;whiteSpace=wrap;overflow=hidden;fontColor=#333333;" vertex="1" parent="1">
          <mxGeometry x="110" y="500.93" width="55.04" height="21.07" as="geometry" />
        </mxCell>
        <mxCell id="FPyzdAFVNhbkyVy7kzHq-40" value="RX0" style="text;html=1;strokeColor=#666666;fillColor=#f5f5f5;align=center;verticalAlign=middle;whiteSpace=wrap;overflow=hidden;fontColor=#333333;" vertex="1" parent="1">
          <mxGeometry x="110" y="522.08" width="55.117999999999995" height="20.87" as="geometry" />
        </mxCell>
        <mxCell id="FPyzdAFVNhbkyVy7kzHq-42" value="" style="text;html=1;strokeColor=#666666;fillColor=#f5f5f5;align=center;verticalAlign=middle;whiteSpace=wrap;overflow=hidden;fontColor=#333333;" vertex="1" parent="1">
          <mxGeometry x="10" y="171.00000000000006" width="55.117999999999995" height="20.87" as="geometry" />
        </mxCell>
        <mxCell id="FPyzdAFVNhbkyVy7kzHq-43" value="Communication pins(SPI,UART)*" style="text;html=1;strokeColor=none;fillColor=none;align=center;verticalAlign=middle;whiteSpace=wrap;rounded=0;" vertex="1" parent="1">
          <mxGeometry x="65.12" y="175.43" width="244.88" height="14.57" as="geometry" />
        </mxCell>
        <mxCell id="FPyzdAFVNhbkyVy7kzHq-44" value="" style="text;html=1;strokeColor=#6c8ebf;fillColor=#dae8fc;align=center;verticalAlign=middle;whiteSpace=wrap;overflow=hidden;" vertex="1" parent="1">
          <mxGeometry x="10" y="190.00000000000006" width="55.117999999999995" height="20.87" as="geometry" />
        </mxCell>
        <mxCell id="FPyzdAFVNhbkyVy7kzHq-45" value="Touch pins" style="text;html=1;strokeColor=none;fillColor=none;align=center;verticalAlign=middle;whiteSpace=wrap;rounded=0;" vertex="1" parent="1">
          <mxGeometry x="63.56" y="194.15" width="216.44" height="14.57" as="geometry" />
        </mxCell>
        <mxCell id="FPyzdAFVNhbkyVy7kzHq-46" value="" style="text;html=1;strokeColor=#82b366;fillColor=#d5e8d4;align=center;verticalAlign=middle;whiteSpace=wrap;overflow=hidden;" vertex="1" parent="1">
          <mxGeometry x="10" y="210.87000000000006" width="55.117999999999995" height="20.87" as="geometry" />
        </mxCell>
        <mxCell id="FPyzdAFVNhbkyVy7kzHq-47" value="ADC pins" style="text;html=1;strokeColor=none;fillColor=none;align=center;verticalAlign=middle;whiteSpace=wrap;rounded=0;" vertex="1" parent="1">
          <mxGeometry x="65.12" y="217.17" width="214.88" height="14.57" as="geometry" />
        </mxCell>
        <mxCell id="FPyzdAFVNhbkyVy7kzHq-49" value="" style="text;html=1;strokeColor=#9673a6;fillColor=#e1d5e7;align=center;verticalAlign=middle;whiteSpace=wrap;overflow=hidden;" vertex="1" parent="1">
          <mxGeometry x="10" y="231.74000000000007" width="55.117999999999995" height="20.87" as="geometry" />
        </mxCell>
        <mxCell id="FPyzdAFVNhbkyVy7kzHq-50" value="Board specific pins(LED, button)" style="text;html=1;strokeColor=none;fillColor=none;align=center;verticalAlign=middle;whiteSpace=wrap;rounded=0;" vertex="1" parent="1">
          <mxGeometry x="65.12" y="238.04" width="224.88" height="14.57" as="geometry" />
        </mxCell>
        <mxCell id="FPyzdAFVNhbkyVy7kzHq-51" value="*I2C can be mapped to any pins, don&#39;t forget pullups" style="text;html=1;strokeColor=none;fillColor=none;align=center;verticalAlign=middle;whiteSpace=wrap;rounded=0;" vertex="1" parent="1">
          <mxGeometry x="20" y="620" width="240" height="30" as="geometry" />
        </mxCell>
        <mxCell id="FPyzdAFVNhbkyVy7kzHq-52" value="" style="text;html=1;strokeColor=#6c8ebf;fillColor=#0000FF;align=center;verticalAlign=middle;whiteSpace=wrap;overflow=hidden;" vertex="1" parent="1">
          <mxGeometry x="10" y="252.61" width="55.117999999999995" height="22.07" as="geometry" />
        </mxCell>
        <mxCell id="FPyzdAFVNhbkyVy7kzHq-53" value="&lt;div&gt;Ground&lt;/div&gt;" style="text;html=1;strokeColor=none;fillColor=none;align=center;verticalAlign=middle;whiteSpace=wrap;rounded=0;" vertex="1" parent="1">
          <mxGeometry x="65.12" y="256.36" width="194.88" height="14.57" as="geometry" />
        </mxCell>
        <mxCell id="FPyzdAFVNhbkyVy7kzHq-54" value="" style="text;html=1;strokeColor=#6c8ebf;fillColor=#FF0000;align=center;verticalAlign=middle;whiteSpace=wrap;overflow=hidden;" vertex="1" parent="1">
          <mxGeometry x="10" y="270.93" width="55.117999999999995" height="22.07" as="geometry" />
        </mxCell>
        <mxCell id="FPyzdAFVNhbkyVy7kzHq-55" value="Power" style="text;html=1;strokeColor=none;fillColor=none;align=center;verticalAlign=middle;whiteSpace=wrap;rounded=0;" vertex="1" parent="1">
          <mxGeometry x="65.12" y="274.68" width="194.88" height="14.57" as="geometry" />
        </mxCell>
        <mxCell id="FPyzdAFVNhbkyVy7kzHq-57" value="** GPI - general purpose input(Input only pins)" style="text;html=1;strokeColor=none;fillColor=none;align=center;verticalAlign=middle;whiteSpace=wrap;rounded=0;" vertex="1" parent="1">
          <mxGeometry x="20" y="650" width="250" height="30" as="geometry" />
        </mxCell>
        <mxCell id="FPyzdAFVNhbkyVy7kzHq-58" value="&lt;font data-font-src=&quot;https://fonts.googleapis.com/css?family=+Dela+Gothic+One+&quot; style=&quot;font-size: 25px;&quot;&gt;Esp32-Stick pinout V2&lt;/font&gt;***" style="text;html=1;strokeColor=none;fillColor=none;align=center;verticalAlign=middle;whiteSpace=wrap;rounded=0;fontFamily= Dela Gothic One ;fontSource=https%3A%2F%2Ffonts.googleapis.com%2Fcss%3Ffamily%3D%2BDela%2BGothic%2BOne%2B;fontSize=25;" vertex="1" parent="1">
          <mxGeometry x="250" y="-20" width="420" height="30" as="geometry" />
        </mxCell>
        <mxCell id="FPyzdAFVNhbkyVy7kzHq-59" value="*** Pinout is the same for Esp32-Stick-PoE-P,Esp32-Stick-PoE-A, Esp32-Stick-Eth" style="text;html=1;strokeColor=none;fillColor=none;align=center;verticalAlign=middle;whiteSpace=wrap;rounded=0;" vertex="1" parent="1">
          <mxGeometry x="10" y="680" width="460" height="30" as="geometry" />
        </mxCell>
      </root>
    </mxGraphModel>
  </diagram>
</mxfile>
